/* XPM */
static char * CB_xpm[] = {
"32 32 363 2",
"  	c #BEBD15",
". 	c #BBBD04",
"+ 	c #C0BB07",
"@ 	c #BBBA07",
"# 	c #C9BF00",
"$ 	c #4DBB72",
"% 	c #01BBC8",
"& 	c #03BDB2",
"* 	c #02BCB7",
"= 	c #05BCCA",
"- 	c #05BB8B",
"; 	c #00BD00",
"> 	c #05BB04",
", 	c #01BB00",
"' 	c #05BC00",
") 	c #0BB50C",
"! 	c #A01DA1",
"~ 	c #BF01C3",
"{ 	c #BA04BB",
"] 	c #BB01BC",
"^ 	c #BD03C9",
"/ 	c #BB0250",
"( 	c #BA0300",
"_ 	c #BE0203",
": 	c #BA0005",
"< 	c #C70100",
"[ 	c #8A012D",
"} 	c #0000C9",
"| 	c #0300B8",
"1 	c #0000BD",
"2 	c #0000BF",
"3 	c #0000B6",
"4 	c #C6C616",
"5 	c #C3C404",
"6 	c #C7C308",
"7 	c #C1C109",
"8 	c #CEC600",
"9 	c #52C278",
"0 	c #06C1D0",
"a 	c #0AC3BD",
"b 	c #00C1BC",
"c 	c #05C1CD",
"d 	c #05BF8E",
"e 	c #00C202",
"f 	c #04C105",
"g 	c #01C001",
"h 	c #03C001",
"i 	c #0ABA0D",
"j 	c #A61EA6",
"k 	c #C502C8",
"l 	c #BE04BF",
"m 	c #C001C0",
"n 	c #C203CD",
"o 	c #C10154",
"p 	c #BF0301",
"q 	c #C30205",
"r 	c #BE0107",
"s 	c #C90302",
"t 	c #8E022F",
"u 	c #0001CB",
"v 	c #0500BC",
"w 	c #0001C0",
"x 	c #0101C3",
"y 	c #0202BA",
"z 	c #C4C60B",
"A 	c #C1C400",
"B 	c #C5C300",
"C 	c #C0C103",
"D 	c #CCC700",
"E 	c #4FC277",
"F 	c #02C0D0",
"G 	c #05C2BC",
"H 	c #00C4BD",
"I 	c #01C3CD",
"J 	c #02C28F",
"K 	c #00C502",
"L 	c #02C306",
"M 	c #00C301",
"N 	c #01C300",
"O 	c #08BE0A",
"P 	c #AB1DA7",
"Q 	c #C701C8",
"R 	c #C204C0",
"S 	c #C300C0",
"T 	c #C601CD",
"U 	c #C40054",
"V 	c #C20102",
"W 	c #C60006",
"X 	c #C10005",
"Y 	c #CC0202",
"Z 	c #8F012F",
"` 	c #0001C2",
" .	c #0101C5",
"..	c #0001BD",
"+.	c #C5C50D",
"@.	c #BFC203",
"#.	c #4EC277",
"$.	c #02C2D1",
"%.	c #04C3BE",
"&.	c #00C3BE",
"*.	c #00C28E",
"=.	c #00C501",
"-.	c #00C303",
";.	c #00C300",
">.	c #00C500",
",.	c #06BE08",
"'.	c #AA1BA8",
").	c #C701CA",
"!.	c #C301C1",
"~.	c #C500CE",
"{.	c #C30055",
"].	c #C20001",
"^.	c #C10004",
"/.	c #CC0000",
"(.	c #8F002E",
"_.	c #0100CC",
":.	c #0400BD",
"<.	c #0000C3",
"[.	c #0000C7",
"}.	c #C6C513",
"|.	c #C2C401",
"1.	c #C4C404",
"2.	c #C0C205",
"3.	c #CBC800",
"4.	c #4FC378",
"5.	c #02C3D2",
"6.	c #04C5C0",
"7.	c #00C3BF",
"8.	c #00C401",
"9.	c #01C303",
"0.	c #00C400",
"a.	c #01C400",
"b.	c #A91CA8",
"c.	c #C102C1",
"d.	c #C300C1",
"e.	c #C501CF",
"f.	c #C40056",
"g.	c #C50007",
"h.	c #C20004",
"i.	c #CD0100",
"j.	c #900031",
"k.	c #0200CD",
"l.	c #0500BD",
"m.	c #0000C5",
"n.	c #0001BE",
"o.	c #C4C215",
"p.	c #C1C204",
"q.	c #C3C205",
"r.	c #BFC106",
"s.	c #01C2D1",
"t.	c #05C4BF",
"u.	c #02C2CD",
"v.	c #03C28F",
"w.	c #00C402",
"x.	c #02C404",
"y.	c #08BE09",
"z.	c #AA1DA9",
"A.	c #C601CA",
"B.	c #C104C2",
"C.	c #C20056",
"D.	c #C20005",
"E.	c #CE0201",
"F.	c #0600BE",
"G.	c #0000C4",
"H.	c #C5C613",
"I.	c #CDC800",
"J.	c #50C378",
"K.	c #03C3D2",
"L.	c #06C4C2",
"M.	c #03C28E",
"N.	c #07BD09",
"O.	c #AB1CA9",
"P.	c #C203C2",
"Q.	c #C40006",
"R.	c #8F0131",
"S.	c #0000BC",
"T.	c #C5C70E",
"U.	c #C2C500",
"V.	c #C4C400",
"W.	c #C1C202",
"X.	c #03C0D3",
"Y.	c #05C1C2",
"Z.	c #02C4CE",
"`.	c #02C38E",
" +	c #07BE0A",
".+	c #AC1EA8",
"++	c #CA01C9",
"@+	c #C402C2",
"#+	c #C500C1",
"$+	c #C40055",
"%+	c #C10007",
"&+	c #CD0303",
"*+	c #900232",
"=+	c #0100BD",
"-+	c #C6C512",
";+	c #C2C400",
">+	c #C4C402",
",+	c #C0C304",
"'+	c #C600CF",
")+	c #C70007",
"!+	c #CE0203",
"~+	c #0001CD",
"{+	c #0100BE",
"]+	c #C4C500",
"^+	c #06C2C3",
"/+	c #01C2BD",
"(+	c #04C2CE",
"_+	c #05C18E",
":+	c #05C204",
"<+	c #00C201",
"[+	c #03C300",
"}+	c #0ABD0A",
"|+	c #A81EA7",
"1+	c #C602C8",
"2+	c #C104C0",
"3+	c #C200C0",
"4+	c #C302CD",
"5+	c #C00202",
"6+	c #C40107",
"7+	c #C20008",
"8+	c #CD0205",
"9+	c #8E0233",
"0+	c #0001CF",
"a+	c #0200BE",
"b+	c #C5C612",
"c+	c #05C3C1",
"d+	c #00C5BE",
"e+	c #00C5CE",
"f+	c #02C48F",
"g+	c #00C602",
"h+	c #01C404",
"i+	c #01C500",
"j+	c #06BF0A",
"k+	c #AC1BA8",
"l+	c #C900CA",
"m+	c #C401C1",
"n+	c #C600C1",
"o+	c #C700CF",
"p+	c #C30001",
"q+	c #C70006",
"r+	c #C5C414",
"s+	c #C2C303",
"t+	c #C4C306",
"u+	c #BFC104",
"v+	c #00C3BC",
"w+	c #00C2CC",
"x+	c #AD1BAA",
"y+	c #CA01CC",
"z+	c #C400C1",
"A+	c #C30101",
"B+	c #C30003",
"C+	c #CE0300",
"D+	c #91022E",
"E+	c #0201C9",
"F+	c #0100C6",
"G+	c #C7C613",
"H+	c #C3C500",
"I+	c #C5C503",
"J+	c #C1C306",
"K+	c #CCC900",
"L+	c #50C479",
"M+	c #02C4D0",
"N+	c #04C6BE",
"O+	c #01C2BF",
"P+	c #05C18F",
"Q+	c #00C200",
"R+	c #05C300",
"S+	c #0ABD09",
"T+	c #A81DAA",
"U+	c #C603CC",
"V+	c #BF04C3",
"W+	c #C200C1",
"X+	c #C302CF",
"Y+	c #C00053",
"Z+	c #C00301",
"`+	c #C30004",
" @	c #C30005",
".@	c #CE0000",
"+@	c #90012F",
"@@	c #0201CB",
"#@	c #0100C8",
"$@	c #C6C60C",
"%@	c #C6C400",
"&@	c #03C1CD",
"*@	c #03C203",
"=@	c #09BC08",
"-@	c #AA1DAA",
";@	c #C10053",
">@	c #C10100",
",@	c #C40004",
"'@	c #C10006",
")@	c #CD0102",
"!@	c #C5C70C",
"~@	c #50C27A",
"{@	c #03C1D1",
"]@	c #06C3BF",
"^@	c #00C5BD",
"/@	c #00C4CD",
"(@	c #01C38F",
"_@	c #00C405",
":@	c #05BE09",
"<@	c #AE1BA7",
"[@	c #CB01C9",
"}@	c #C502C0",
"|@	c #C800C1",
"1@	c #CA00CE",
"2@	c #C60054",
"3@	c #C70003",
"4@	c #CA0007",
"5@	c #BF0008",
"6@	c #CC0104",
"7@	c #0102BF",
"8@	c #C5C515",
"9@	c #C6C207",
"0@	c #CEC601",
"a@	c #53C37B",
"b@	c #07C2D3",
"c@	c #0AC3BE",
"d@	c #01C4BE",
"e@	c #04C390",
"f@	c #00C504",
"g@	c #05C307",
"h@	c #04C303",
"i@	c #0BBD0F",
"j@	c #AA1CA4",
"k@	c #C701C6",
"l@	c #C103BD",
"m@	c #C400BE",
"n@	c #C30102",
"o@	c #BE0108",
"p@	c #0501BA",
"q@	c #0101C1",
"r@	c #0103BA",
"s@	c #BBBA14",
"t@	c #B7B802",
"u@	c #BCB705",
"v@	c #B8B705",
"w@	c #C6BC00",
"x@	c #4BB874",
"y@	c #00B9C8",
"z@	c #01BAB4",
"A@	c #02B9B5",
"B@	c #04B8C7",
"C@	c #06B789",
"D@	c #01BA00",
"E@	c #06B802",
"F@	c #01B800",
"G@	c #05B800",
"H@	c #0CB20A",
"I@	c #9F1E9F",
"J@	c #BC01C0",
"K@	c #B703BA",
"L@	c #B901BB",
"M@	c #BB02CA",
"N@	c #B80151",
"O@	c #B90300",
"P@	c #BC0205",
"Q@	c #B80004",
"R@	c #C50200",
"S@	c #8A012B",
"T@	c #0300B4",
"U@	c #0000B9",
"V@	c #0002B3",
"  . + @ # $ % & * = - ; > , ' ) ! ~ { ] ^ / ( _ : < [ } | 1 2 3 ",
"4 5 6 7 8 9 0 a b c d e f g h i j k l m n o p q r s t u v w x y ",
"z A B C D E F G H I J K L M N O P Q R S T U V W X Y Z u v `  ...",
"+.A B @.D #.$.%.&.I *.=.-.;.>.,.'.).!.S ~.{.].W ^./.(._.:.<.[.1 ",
"}.|.1.2.3.4.5.6.7.I J 8.9.0.a.,.b.).c.d.e.f.V g.h.i.j.k.l.m.[.n.",
"o.p.q.r.D #.s.t.H u.v.w.x.;.a.y.z.A.B.d.e.C.V g.D.E.j.k.F.G.[.n.",
"H.|.1.2.I.J.K.L.H u.M.M 9.M a.N.O.).P.d.e.{.V Q.X Y R.k.:.<.m.S.",
"T.U.V.W.D E X.Y.H Z.`.K x.M 0. +.+++@+#+T $+].W %+&+*+k.v `  .=+",
"-+;+>+,+I.J.K.t.H u.J 8.9.0.a.O O.).P.d.'+{.V )+D.!+R.~+:.G.m.{+",
"-+;+>+,+I.J.K.t.H u.J 8.9.0.a.O O.).P.d.'+{.V )+D.!+R.~+:.G.m.{+",
"-+;+>+,+I.J.K.t.H u.J 8.9.0.a.O O.).P.d.'+{.V )+D.!+R.~+:.G.m.{+",
"-+;+>+,+I.J.K.t.H u.J 8.9.0.a.O O.).P.d.'+{.V )+D.!+R.~+:.G.m.{+",
"-+;+>+,+I.J.K.t.H u.J 8.9.0.a.O O.).P.d.'+{.V )+D.!+R.~+:.G.m.{+",
"-+;+>+,+I.J.K.t.H u.J 8.9.0.a.O O.).P.d.'+{.V )+D.!+R.~+:.G.m.{+",
"-+;+>+,+I.J.K.t.H u.J 8.9.0.a.O O.).P.d.'+{.V )+D.!+R.~+:.G.m.{+",
"-+;+>+,+I.J.K.t.H u.J 8.9.0.a.O O.).P.d.'+{.V )+D.!+R.~+:.G.m.{+",
"-+;+>+,+I.J.K.t.H u.J 8.9.0.a.O O.).P.d.'+{.V )+D.!+R.~+:.G.m.{+",
"-+;+>+,+I.J.K.t.H u.J 8.9.0.a.O O.).P.d.'+{.V )+D.!+R.~+:.G.m.{+",
"-+;+>+,+I.J.K.t.H u.J 8.9.0.a.O O.).P.d.'+{.V )+D.!+R.~+:.G.m.{+",
"-+;+>+,+I.J.K.t.H u.J 8.9.0.a.O O.).P.d.'+{.V )+D.!+R.~+:.G.m.{+",
"-+;+>+,+I.J.K.t.H u.J 8.9.0.a.O O.).P.d.'+{.V )+D.!+R.~+:.G.m.{+",
"-+;+>+,+I.J.K.t.H u.J 8.9.0.a.O O.).P.d.'+{.V )+D.!+R.~+:.G.m.{+",
"-+;+>+,+I.J.K.t.H u.J 8.9.0.a.O O.).P.d.'+{.V )+D.!+R.~+:.G.m.{+",
"-+;+>+,+I.J.K.t.H u.J 8.9.0.a.O O.).P.d.'+{.V )+D.!+R.~+:.G.m.{+",
"T.U.]+W.I.E X.^+/+(+_+w.:+<+[+}+|+1+2+3+4+C.5+6+7+8+9+0+a+m.} 2 ",
"b+;+>+,+I.J.K.c+d+e+f+g+h+K i+j+k+l+m+n+o+$+p+q+D.i.Z u :.<.[.1 ",
"r+s+t+u+D #.s.t.v+w+*.=.-.;.0.,.x+y+@+z+o+$+A+q+B+C+D+E+v ` F+{+",
"G+H+I+J+K+L+M+N+O+(+P+w.:+Q+R+S+T+U+V+W+X+Y+Z+`+ @.@+@@@v G.#@n.",
"$@U.%@,+D #.$.%.7.&@v.M *@;.[+=@-@A.B.d.e.;@>@,@'@)@j._.l.G.[.2 ",
"!@U.%@p.I.~@{@]@^@/@(@=._@=.>.:@<@[@}@|@1@2@3@4@5@6@R.k.F.G.F+7@",
"8@s+9@7 0@a@b@c@d@(+e@f@g@-.h@i@j@k@l@m@T U n@)+o@s t u p@n.q@r@",
"s@t@u@v@w@x@y@z@A@B@C@D@E@F@G@H@I@J@K@L@M@N@O@P@Q@R@S@m.T@U@S.V@"};
