/* XPM */
static const char * cc_xpm[] = {
"32 32 870 2",
"  	c #F9FFE3",
". 	c #F9FEE7",
"+ 	c #FFFFF4",
"@ 	c #FEFAF7",
"# 	c #FFF9F6",
"$ 	c #FEF6E9",
"% 	c #FFF9E6",
"& 	c #FFFFEB",
"* 	c #F9D78F",
"= 	c #C07524",
"- 	c #E2AC66",
"; 	c #FDFFEF",
"> 	c #F1EBD5",
", 	c #C57F39",
"' 	c #DA9459",
") 	c #F6EED7",
"! 	c #F7EEDD",
"~ 	c #D3985E",
"{ 	c #C87D3C",
"] 	c #F6E4E0",
"^ 	c #FFF4FC",
"/ 	c #F79D5F",
"( 	c #CC721A",
"_ 	c #F8DC9B",
": 	c #F7FFFD",
"< 	c #F2FCFE",
"[ 	c #FCFDFF",
"} 	c #FFFCF6",
"| 	c #FFFDF1",
"1 	c #FBFEF5",
"2 	c #FFFFFA",
"3 	c #FFF8F1",
"4 	c #FFFCF1",
"5 	c #FFFFF7",
"6 	c #F9FBFA",
"7 	c #FAFFFF",
"8 	c #FCFFFF",
"9 	c #FAFDF6",
"0 	c #F8FAED",
"a 	c #FBFCEC",
"b 	c #F9C69B",
"c 	c #BC6E30",
"d 	c #CC9157",
"e 	c #FDF0E7",
"f 	c #F7E3CB",
"g 	c #BC7825",
"h 	c #D28D40",
"i 	c #FEE8C1",
"j 	c #F8EDD1",
"k 	c #CD8E49",
"l 	c #C27328",
"m 	c #F4DED1",
"n 	c #FEE9E8",
"o 	c #E5823E",
"p 	c #CD6A0D",
"q 	c #F7D08F",
"r 	c #F2F8F4",
"s 	c #EDF7F9",
"t 	c #F9FFFF",
"u 	c #FBFFFE",
"v 	c #FBFFFF",
"w 	c #F3FEFF",
"x 	c #F6FFFF",
"y 	c #FFFFFD",
"z 	c #FFFFF2",
"A 	c #FCFFF6",
"B 	c #F4FEFD",
"C 	c #EFFFFF",
"D 	c #EBFAFF",
"E 	c #F2FBFF",
"F 	c #FFFEFC",
"G 	c #FECDAD",
"H 	c #C77C43",
"I 	c #C38B52",
"J 	c #F9EFE3",
"K 	c #F4E2CC",
"L 	c #B87526",
"M 	c #D08C43",
"N 	c #FFEBC6",
"O 	c #F3EEC4",
"P 	c #C68E3B",
"Q 	c #BF731B",
"R 	c #F7E8CB",
"S 	c #FFF1E2",
"T 	c #DD8033",
"U 	c #D67514",
"V 	c #F6CF8C",
"W 	c #F6FCFC",
"X 	c #F8FFFF",
"Y 	c #F2F8F8",
"Z 	c #F6FDFF",
"` 	c #F1FEFF",
" .	c #F5FFFF",
"..	c #FBFDFA",
"+.	c #ECFAFD",
"@.	c #F0FFFF",
"#.	c #ECFCFC",
"$.	c #EFFFFE",
"%.	c #F7FFFE",
"&.	c #FAFCEF",
"*.	c #FEFCE3",
"=.	c #E6C288",
"-.	c #BF7327",
";.	c #C3853A",
">.	c #F3EAC9",
",.	c #EDDDBC",
"'.	c #B96C26",
").	c #CF8047",
"!.	c #F6DEC2",
"~.	c #F2E3C2",
"{.	c #C5863F",
"].	c #BA6B1C",
"^.	c #F2DCC5",
"/.	c #F8E7DF",
"(.	c #D27A3A",
"_.	c #C76A1A",
":.	c #E7BD8B",
"<.	c #FFF8F6",
"[.	c #F7F9F6",
"}.	c #FBFFFD",
"|.	c #FDF9F8",
"1.	c #FAFBFF",
"2.	c #FEFFFF",
"3.	c #FCFCF4",
"4.	c #F0FFF8",
"5.	c #F7FEFF",
"6.	c #F2FAFD",
"7.	c #F5FBFB",
"8.	c #FFFFDE",
"9.	c #FADBA5",
"0.	c #CE8D49",
"a.	c #DAA258",
"b.	c #FFF0CA",
"c.	c #FEE6C2",
"d.	c #CE884A",
"e.	c #E29C69",
"f.	c #FFE8CA",
"g.	c #FFEDCB",
"h.	c #DCA061",
"i.	c #D2893C",
"j.	c #FDE8C9",
"k.	c #FDF1E1",
"l.	c #E29C60",
"m.	c #D48741",
"n.	c #FCD6A9",
"o.	c #FFF6F4",
"p.	c #FCFEFD",
"q.	c #F3FCF7",
"r.	c #FFFFF6",
"s.	c #FFFDF6",
"t.	c #FFFDFA",
"u.	c #F9FFE5",
"v.	c #FDFCF7",
"w.	c #FFFBFF",
"x.	c #FDFBFC",
"y.	c #F7F8FD",
"z.	c #F9F7FF",
"A.	c #EFE2C2",
"B.	c #F3D2C1",
"C.	c #EBC0A0",
"D.	c #F7D1A2",
"E.	c #F0D0B7",
"F.	c #F1CCB1",
"G.	c #F1BF8A",
"H.	c #FACB9D",
"I.	c #E7CDA8",
"J.	c #E5CEA4",
"K.	c #F9CD8E",
"L.	c #F9C174",
"M.	c #E7D9AC",
"N.	c #DEDDBF",
"O.	c #FED295",
"P.	c #F4BF7D",
"Q.	c #F0D2A0",
"R.	c #F7DCC9",
"S.	c #FFFEF6",
"T.	c #F9FBF6",
"U.	c #FFFDF4",
"V.	c #FDFFFC",
"W.	c #FFFCE9",
"X.	c #F9F3F3",
"Y.	c #FCF7FB",
"Z.	c #FFFFF8",
"`.	c #FBFBEF",
" +	c #FFFCEE",
".+	c #EFD1AB",
"++	c #C39951",
"@+	c #C87940",
"#+	c #C67637",
"$+	c #D28130",
"%+	c #DA7D38",
"&+	c #E27F3B",
"*+	c #DA7E2B",
"=+	c #D47E33",
"-+	c #C4782A",
";+	c #C57B34",
">+	c #D3812D",
",+	c #DF7F1B",
"'+	c #C98638",
")+	c #B98647",
"!+	c #D1802F",
"~+	c #D27623",
"{+	c #D07A2F",
"]+	c #D39157",
"^+	c #EAC7A7",
"/+	c #FEFFFB",
"(+	c #FCFEF3",
"_+	c #FDFFF4",
":+	c #FCFDF7",
"<+	c #FFFFFB",
"[+	c #FAFEDD",
"}+	c #FDFEF0",
"|+	c #FEFFF6",
"1+	c #F9FFE7",
"2+	c #FBFCDC",
"3+	c #FBE4C4",
"4+	c #B78047",
"5+	c #BE7214",
"6+	c #C68831",
"7+	c #CB8434",
"8+	c #C97A1D",
"9+	c #D37A26",
"0+	c #D87A30",
"a+	c #D37432",
"b+	c #CB763F",
"c+	c #C8833E",
"d+	c #C6823B",
"e+	c #C37E33",
"f+	c #D07D21",
"g+	c #C28334",
"h+	c #B48245",
"i+	c #C47C34",
"j+	c #D67F38",
"k+	c #D77C36",
"l+	c #D76A0B",
"m+	c #C58349",
"n+	c #F9E2D0",
"o+	c #FEFFF2",
"p+	c #FDFEEC",
"q+	c #FFFCF0",
"r+	c #FFF7EE",
"s+	c #F7D29B",
"t+	c #FCC791",
"u+	c #FCC3A5",
"v+	c #EEBB8E",
"w+	c #F7CAA0",
"x+	c #F8CDBC",
"y+	c #CE7C33",
"z+	c #D29046",
"A+	c #FAE7C6",
"B+	c #FDF7E1",
"C+	c #FAF6EA",
"D+	c #FBF2E3",
"E+	c #FFF0E0",
"F+	c #FDF1E5",
"G+	c #FCF4E9",
"H+	c #FFF6E7",
"I+	c #FDF4EB",
"J+	c #FAF5D8",
"K+	c #FBF1D6",
"L+	c #FEF2E4",
"M+	c #F5F8E5",
"N+	c #F3FCE9",
"O+	c #FCF5E3",
"P+	c #FFE2C6",
"Q+	c #DA895A",
"R+	c #C67E44",
"S+	c #F4D8B0",
"T+	c #F2D4A0",
"U+	c #EDCC97",
"V+	c #EEC897",
"W+	c #F3D3AD",
"X+	c #F7D8B9",
"Y+	c #BC722B",
"Z+	c #BA6C24",
"`+	c #C87740",
" @	c #C7702B",
".@	c #CF8347",
"+@	c #ECBB9B",
"@@	c #C5762B",
"#@	c #C87E37",
"$@	c #FBF5E5",
"%@	c #FCFFFD",
"&@	c #F5FEFF",
"*@	c #F8F9FD",
"=@	c #FFFBFC",
"-@	c #FAFEFF",
";@	c #FEFCFF",
">@	c #FEFEFE",
",@	c #FFFDFE",
"'@	c #FFFCFF",
")@	c #F3FDFF",
"!@	c #FDFEFF",
"~@	c #FFF0E7",
"{@	c #BB874B",
"]@	c #B8742B",
"^@	c #F2BF88",
"/@	c #C9874B",
"(@	c #BA753E",
"_@	c #BD7A45",
":@	c #B57842",
"<@	c #AC7032",
"[@	c #DDA862",
"}@	c #C78D4D",
"|@	c #C58953",
"1@	c #C78338",
"2@	c #DB9C55",
"3@	c #F7CCA2",
"4@	c #D4842D",
"5@	c #CA7D21",
"6@	c #F7F8E6",
"7@	c #F5FFFB",
"8@	c #EBFDFF",
"9@	c #EFF9FB",
"0@	c #F9FDFE",
"a@	c #F7FFFF",
"b@	c #F3FFFB",
"c@	c #F2FCF3",
"d@	c #F9FEFA",
"e@	c #FAFFF9",
"f@	c #FCFEFB",
"g@	c #EEFCEF",
"h@	c #E8FCFA",
"i@	c #F5FEFB",
"j@	c #FFF5DA",
"k@	c #BC7C24",
"l@	c #D3862A",
"m@	c #FFD090",
"n@	c #D8965A",
"o@	c #C98753",
"p@	c #CC8B55",
"q@	c #C98E52",
"r@	c #E5AA64",
"s@	c #F8FEE2",
"t@	c #FFF2EA",
"u@	c #F6ECC9",
"v@	c #FDEBC3",
"w@	c #EACBB7",
"x@	c #D87F3B",
"y@	c #D58429",
"z@	c #FAF6DD",
"A@	c #F7FFF4",
"B@	c #EEFAFA",
"C@	c #F3F7F6",
"D@	c #FDFCF8",
"E@	c #FCFFF8",
"F@	c #F9FFF3",
"G@	c #FAFDEA",
"H@	c #FEFEF6",
"I@	c #FBFBF9",
"J@	c #FBF6FA",
"K@	c #FCF9F2",
"L@	c #F3F9EB",
"M@	c #F0FCFC",
"N@	c #F9FBF8",
"O@	c #FCF1D3",
"P@	c #DC8826",
"Q@	c #C9822A",
"R@	c #ECD9AE",
"S@	c #FDF3D0",
"T@	c #F6EDCC",
"U@	c #FDF0CD",
"V@	c #F8F0CC",
"W@	c #FFF7D2",
"X@	c #F7F5CF",
"Y@	c #F8E6D0",
"Z@	c #F5E3CF",
"`@	c #F0E0BC",
" #	c #FFEAC5",
".#	c #F2CFBB",
"+#	c #DB7D3F",
"@#	c #CD7724",
"##	c #FFF3E3",
"$#	c #FDFDFB",
"%#	c #F4FBFF",
"&#	c #FAF9FF",
"*#	c #FFFDFF",
"=#	c #FFFDFC",
"-#	c #FDFBFF",
";#	c #FDF7FF",
">#	c #FFF9FC",
",#	c #FBFCF6",
"'#	c #FDFCFF",
")#	c #FCF0D8",
"!#	c #D97E21",
"~#	c #CD7F2A",
"{#	c #EED8A7",
"]#	c #FEF0C3",
"^#	c #EFE2B5",
"/#	c #F8E3B4",
"(#	c #F5E3BB",
"_#	c #FCE8C3",
":#	c #C07E28",
"<#	c #B67123",
"[#	c #B67525",
"}#	c #B86E27",
"|#	c #CC884B",
"1#	c #EEBE8D",
"2#	c #DB7F34",
"3#	c #D3792B",
"4#	c #FBF4E4",
"5#	c #FAFFFB",
"6#	c #F4FDFF",
"7#	c #F8FCFF",
"8#	c #FEFCFD",
"9#	c #FBFAFF",
"0#	c #FCFCFE",
"a#	c #FAFDF4",
"b#	c #F9FEF8",
"c#	c #FBFCFF",
"d#	c #FAFEFD",
"e#	c #FAF4DC",
"f#	c #C77B25",
"g#	c #DC8327",
"h#	c #FBBC77",
"i#	c #CC843A",
"j#	c #B97125",
"k#	c #C17529",
"l#	c #BA7029",
"m#	c #CC7E36",
"n#	c #D9954E",
"o#	c #D08A44",
"p#	c #D0834F",
"q#	c #DD966C",
"r#	c #F3C798",
"s#	c #D27B36",
"t#	c #CD7838",
"u#	c #FAFFF6",
"v#	c #F7FEF6",
"w#	c #FCFCFC",
"x#	c #FFFBFA",
"y#	c #F7FFF9",
"z#	c #FBFEFF",
"A#	c #F8FEFE",
"B#	c #FDF5E8",
"C#	c #BE7E34",
"D#	c #C87C2E",
"E#	c #FCC992",
"F#	c #DB9D60",
"G#	c #BF8241",
"H#	c #C68A44",
"I#	c #CD9353",
"J#	c #D29554",
"K#	c #F8EFD0",
"L#	c #FDE6C6",
"M#	c #FAE4BD",
"N#	c #F7E0CE",
"O#	c #FFE7D3",
"P#	c #EED5AD",
"Q#	c #C5752C",
"R#	c #C88036",
"S#	c #FFF5E3",
"T#	c #F2FBF6",
"U#	c #F8FBF4",
"V#	c #FEF9FF",
"W#	c #FFF5FD",
"X#	c #FBFFF1",
"Y#	c #FBF9FA",
"Z#	c #FFF7FF",
"`#	c #FFF7FA",
" $	c #FEFDF9",
".$	c #FFFEFA",
"+$	c #FFF1E4",
"@$	c #D07D2F",
"#$	c #C17833",
"$$	c #E7D2B3",
"%$	c #FFF2D0",
"&$	c #F8EFC4",
"*$	c #F6EAB6",
"=$	c #F7F0C2",
"-$	c #FAF5CD",
";$	c #F8F1D5",
">$	c #F8EFCE",
",$	c #F0EEC5",
"'$	c #F0E7CA",
")$	c #FEEACF",
"!$	c #E7D5AD",
"~$	c #BF772D",
"{$	c #FDF6E4",
"]$	c #FCFBFF",
"^$	c #FCFBF7",
"/$	c #FBFEF7",
"($	c #F8FCFB",
"_$	c #F2FDED",
":$	c #F5FFF3",
"<$	c #F9FFFB",
"[$	c #FFFEFB",
"}$	c #FFFEF1",
"|$	c #FAFDF2",
"1$	c #FDFFF2",
"2$	c #FDF8DB",
"3$	c #CD8324",
"4$	c #BC7928",
"5$	c #EAD8B2",
"6$	c #FEF0CD",
"7$	c #F7EBC3",
"8$	c #F7EBB9",
"9$	c #F4F0C1",
"0$	c #FAF8C8",
"a$	c #D7975A",
"b$	c #D08B48",
"c$	c #CB8D42",
"d$	c #C78549",
"e$	c #D99A65",
"f$	c #FBC994",
"g$	c #D47A2C",
"h$	c #C77B30",
"i$	c #FDF9D4",
"j$	c #FDFEF9",
"k$	c #FCFFFB",
"l$	c #FDFAFF",
"m$	c #F7FFFB",
"n$	c #F0FEEF",
"o$	c #F1FFF4",
"p$	c #FCFEF1",
"q$	c #F8FFF5",
"r$	c #FAF8DF",
"s$	c #BA8132",
"t$	c #C9812F",
"u$	c #F9C68D",
"v$	c #D79759",
"w$	c #C78747",
"x$	c #CE8F4A",
"y$	c #CA8F4B",
"z$	c #D39751",
"A$	c #C47B2E",
"B$	c #BD6F1C",
"C$	c #C0771B",
"D$	c #BA6E20",
"E$	c #CF8A3F",
"F$	c #F8C375",
"G$	c #DC7F17",
"H$	c #D2801C",
"I$	c #FEF6D2",
"J$	c #FCF7FD",
"K$	c #F9FCFF",
"L$	c #FCFAFD",
"M$	c #F8FEFA",
"N$	c #F7FBFF",
"O$	c #FFF9FF",
"P$	c #FDFCFA",
"Q$	c #FEFDFF",
"R$	c #FDF7E9",
"S$	c #C67C33",
"T$	c #D98232",
"U$	c #FBBB7D",
"V$	c #D0863D",
"W$	c #BC7022",
"X$	c #C47526",
"Y$	c #C0732B",
"Z$	c #CB7930",
"`$	c #F8EBE2",
" %	c #F6E4D6",
".%	c #F5E9D1",
"+%	c #F2E0D2",
"@%	c #FBEAD6",
"#%	c #E7DEB7",
"$%	c #C58639",
"%%	c #BF8232",
"&%	c #FFF6E0",
"*%	c #FFF8FB",
"=%	c #FEFBFF",
"-%	c #FFF8FF",
";%	c #FCF9FF",
">%	c #FFF4FF",
",%	c #FFF6F7",
"'%	c #FDF8FE",
")%	c #FFF1E6",
"!%	c #D07934",
"~%	c #CF8443",
"{%	c #ECD5B3",
"]%	c #FEEFC6",
"^%	c #F2E4B5",
"/%	c #F9E3B1",
"(%	c #F5E2BA",
"_%	c #FFE8C8",
":%	c #FFF0EA",
"<%	c #FFEAE0",
"[%	c #FFEEDF",
"}%	c #FBE7E0",
"|%	c #FDEDE0",
"1%	c #E3DEC0",
"2%	c #BF8943",
"3%	c #C08C43",
"4%	c #F7FBE0",
"5%	c #F1FBFA",
"6%	c #FAFBF5",
"7%	c #FBFBFD",
"8%	c #FFFAFF",
"9%	c #FCFDEF",
"0%	c #FFF5F6",
"a%	c #F9F8F4",
"b%	c #FDF9F6",
"c%	c #FDF2E0",
"d%	c #D28239",
"e%	c #C88443",
"f%	c #E1D1B7",
"g%	c #F5EFCD",
"h%	c #FDF4CD",
"i%	c #F6F0CE",
"j%	c #FEF8D8",
"k%	c #F29957",
"l%	c #E6833F",
"m%	c #DD7F39",
"n%	c #D87E49",
"o%	c #E19969",
"p%	c #FED09C",
"q%	c #D38034",
"r%	c #C37B33",
"s%	c #F4FEE3",
"t%	c #EFFEFF",
"u%	c #EAFEFD",
"v%	c #F0FBFD",
"w%	c #F5FCFF",
"x%	c #FBFEF3",
"y%	c #FBFFF8",
"z%	c #FCF8F5",
"A%	c #FBF7EB",
"B%	c #B87D2F",
"C%	c #CF8637",
"D%	c #FFCC9C",
"E%	c #D89966",
"F%	c #BF804B",
"G%	c #C88A51",
"H%	c #C89053",
"I%	c #E2A868",
"J%	c #C4720C",
"K%	c #CF730E",
"L%	c #D67A17",
"M%	c #D2782C",
"N%	c #CE8443",
"O%	c #EDBD7B",
"P%	c #C9741A",
"Q%	c #CC7E2C",
"R%	c #FCF6DC",
"S%	c #F8FFFE",
"T%	c #F8F9FB",
"U%	c #FFFCF9",
"V%	c #FCFCF0",
"W%	c #FDFFF7",
"X%	c #FEF9F6",
"Y%	c #FFFEFF",
"Z%	c #FDF5EA",
"`%	c #B9843E",
" &	c #C07C33",
".&	c #F2BE8E",
"+&	c #C6834E",
"@&	c #B57039",
"#&	c #BE793E",
"$&	c #AA6E32",
"%&	c #AF7134",
"&&	c #F3D690",
"*&	c #FED593",
"=&	c #F0C789",
"-&	c #F1C199",
";&	c #F7CAA9",
">&	c #F6D5AA",
",&	c #D47C34",
"'&	c #E48942",
")&	c #FFE3BE",
"!&	c #FFF2E6",
"~&	c #FFF9E0",
"{&	c #FBF0D4",
"]&	c #F9EDD7",
"^&	c #FBF5DD",
"/&	c #FCEEE5",
"(&	c #FCF5D9",
"_&	c #FCF8DF",
":&	c #FCF2E6",
"<&	c #FFEFE5",
"[&	c #FEF1E0",
"}&	c #FDF7EB",
"|&	c #FEF6EB",
"1&	c #FAEAD0",
"2&	c #DE8C43",
"3&	c #C97C36",
"4&	c #F4D2AC",
"5&	c #F3D1A3",
"6&	c #E9C48F",
"7&	c #F7CE96",
"8&	c #F1CFA1",
"9&	c #F8D6B0",
"0&	c #F6FDF6",
"a&	c #FAF5F2",
"b&	c #C58045",
"c&	c #DA6909",
"d&	c #D07F47",
"e&	c #BF8847",
"f&	c #C17E27",
"g&	c #D47B1F",
"h&	c #DB7D26",
"i&	c #CD7F2D",
"j&	c #BF8138",
"k&	c #CC8229",
"l&	c #C08134",
"m&	c #CA7F2E",
"n&	c #CE7F34",
"o&	c #C67E36",
"p&	c #BD7E37",
"q&	c #BF8845",
"r&	c #CE8131",
"s&	c #E36D00",
"t&	c #C97D32",
"u&	c #F9E1C7",
"v&	c #F7F9EB",
"w&	c #FFFFEC",
"x&	c #FFF9E3",
"y&	c #FDFBE2",
"z&	c #F2FEFE",
"A&	c #ECF6F7",
"B&	c #F7FBFC",
"C&	c #FFFFFF",
"D&	c #F6F7F9",
"E&	c #EECBAB",
"F&	c #CF8F52",
"G&	c #C47D3D",
"H&	c #C07D2F",
"I&	c #CF8226",
"J&	c #CD832E",
"K&	c #D38533",
"L&	c #D77F26",
"M&	c #C87F32",
"N&	c #BB7730",
"O&	c #C07D2E",
"P&	c #C78330",
"Q&	c #D17F29",
"R&	c #CD8440",
"S&	c #C38242",
"T&	c #C68134",
"U&	c #BB7B31",
"V&	c #C67E34",
"W&	c #D7943D",
"X&	c #F7CF9E",
"Y&	c #FFFCEF",
"Z&	c #FDF8F4",
"`&	c #F9F5F2",
" *	c #F8F8F8",
".*	c #F3E3CC",
"+*	c #F0D5AA",
"@*	c #F1C086",
"#*	c #FFCD8D",
"$*	c #E9D8AC",
"%*	c #EBD5A6",
"&*	c #FCBF7C",
"**	c #FFCE99",
"=*	c #E6D6B5",
"-*	c #E5D3AB",
";*	c #F7CD91",
">*	c #F8C181",
",*	c #F1D6B8",
"'*	c #EFDBC2",
")*	c #FCD19C",
"!*	c #EAC18D",
"~*	c #F4D4AE",
"{*	c #F2E2C9",
"]*	c #FFFDF8",
"^*	c #FAFDFF",
"/*	c #F8FDFF",
"(*	c #FFFBF7",
"_*	c #FFFEF8",
":*	c #F8F9F4",
"<*	c #FBFDF8",
"[*	c #F7D9A7",
"}*	c #CB894F",
"|*	c #DE9C60",
"1*	c #FCF2CE",
"2*	c #F7E9BA",
"3*	c #CF873B",
"4*	c #DB9F61",
"5*	c #FCEFCD",
"6*	c #FEF2C8",
"7*	c #DAA061",
"8*	c #CF8642",
"9*	c #FCE8C5",
"0*	c #FFF2D5",
"a*	c #DA9D64",
"b*	c #C68B53",
"c*	c #F9DAAE",
"d*	c #FBFFF3",
"e*	c #FFFCF7",
"f*	c #FFFAF0",
"g*	c #FFFEF5",
"h*	c #FEFBF2",
"i*	c #FCF8EC",
"j*	c #E7C192",
"k*	c #BA713E",
"l*	c #C7814E",
"m*	c #F9ECCA",
"n*	c #F2E1B3",
"o*	c #BA6E22",
"p*	c #F4E7BD",
"q*	c #F2EABB",
"r*	c #CC864A",
"s*	c #BF6A27",
"t*	c #F1DEB4",
"u*	c #F5EDC9",
"v*	c #C8834A",
"w*	c #BD743D",
"x*	c #E5C491",
"y*	c #FAFDEC",
"z*	c #FAF8FD",
"A*	c #F4FFFF",
"B*	c #FAF9F5",
"C*	c #FFFCF3",
"D*	c #FFFFEF",
"E*	c #F8C99D",
"F*	c #BF7643",
"G*	c #C8814D",
"H*	c #FCECC8",
"I*	c #F8E0B0",
"J*	c #BE6F24",
"K*	c #CE8B47",
"L*	c #FFEFBF",
"M*	c #F7EAB6",
"N*	c #D18645",
"O*	c #C66B24",
"P*	c #F7E1B0",
"Q*	c #FCF0C8",
"R*	c #CE864C",
"S*	c #C67A40",
"T*	c #F5CC96",
"U*	c #FFFDFD",
"V*	c #FAFCFB",
"W*	c #FFFEF9",
"X*	c #F1FCFF",
"Y*	c #FEFFFD",
"Z*	c #F6F7F1",
"`*	c #FFFAEE",
" =	c #F3CDA8",
".=	c #B4733D",
"+=	c #CE9055",
"@=	c #FBF1CE",
"#=	c #F7E1BA",
"$=	c #C0712C",
"%=	c #CC8C4E",
"&=	c #F7EABE",
"*=	c #FAEDC3",
"==	c #D28E4D",
"-=	c #C47228",
";=	c #F4DEB5",
">=	c #F7EECF",
",=	c #CC8F58",
"'=	c #B5723B",
")=	c #F5CC9E",
"!=	c #F9F7DE",
"~=	c #FCF9F0",
"{=	c #FDFDFD",
"]=	c #F7FAFF",
"^=	c #FDFDFF",
"/=	c #FEFBF4",
"(=	c #FDFFFA",
"_=	c #FEFAF1",
":=	c #F7D7B1",
"<=	c #B6793A",
"[=	c #E3A862",
"}=	c #FFF9D5",
"|=	c #F7E3C2",
"1=	c #CC7C37",
"2=	c #D99858",
"3=	c #FBF2CB",
"4=	c #FFEDC9",
"5=	c #D79851",
"6=	c #CB7E2E",
"7=	c #FCE4C0",
"8=	c #FFFADF",
"9=	c #E0AA6E",
"0=	c #B6783D",
"a=	c #FED2AB",
"b=	c #FFFEEF",
"c=	c #FFFCFB",
"  . + @ # $ % & * = - ; > , ' ) ! ~ { ] ^ / ( _ : < [ } | 1 2 3 ",
"4 5 6 7 8 9 0 a b c d e f g h i j k l m n o p q r s t u v w x y ",
"z A B C D E v F G H I J K L M N O P Q R S T U V 2 W X Y Z `  ...",
" .+.@.#.$.%.&.*.=.-.;.>.,.'.).!.~.{.].^./.(._.:.<.[.}.2 |.1.2.3.",
"4.w 5.6.t 7.a 8.9.0.a.b.c.d.e.f.g.h.i.j.k.l.m.n.o.p.q.r.s.t.y 5 ",
"u.v.w.x.y.z.s.A.B.C.D.E.F.G.H.I.J.K.L.M.N.O.P.Q.R.S.t T.U.2 ..V.",
"W.X.Y.Z.`. +.+++@+#+$+%+&+*+=+-+;+>+,+'+)+!+~+{+]+^+r./+(+_+:+<+",
"[+}+|+1+2+3+4+5+6+7+8+9+0+a+b+c+d+e+f+g+h+i+j+k+l+m+n+3.o+p+q+r+",
"s+t+u+v+w+x+y+z+A+B+C+D+E+F+G+H+I+J+K+L+M+N+O+P+Q+R+S+T+U+V+W+X+",
"Y+Z+`+ @.@+@@@#@$@%@&@*@=@[ -@..;@>@,@'@)@@.!@~@{@]@^@/@(@_@:@<@",
"[@}@|@1@2@3@4@5@6@7@8@9@0@a@b@c@d@e@f@9 g@h@i@j@k@l@m@n@o@p@q@r@",
"s@F+t@u@v@w@x@y@z@A@B@C@D@E@F@G@H@I@J@K@L@M@N@O@P@Q@R@S@T@U@V@W@",
"X@Y@Z@`@ #.#+#@###$#%#&#'@*#F r.=#-#;#>#,#Z '#)#!#~#{#]#^#/#(#_#",
":#<#[#}#|#1#2#3#4#5#6#7#8#9#0#=#a#b#c#,@9 B d#e#f#g#h#i#j#k#l#m#",
"n#o#M p#q#r#s#t#B+u#b@v#Z...w#x#5#y#z#*#0#A#2.B#C#D#E#F#G#H#I#J#",
"K#L#M#N#O#P#Q#R#S#1 T#U#Z.8#V#W#2 X#Y#Z#`# $.$+$@$#$$$%$&$*$=$-$",
";$>$,$'$)$!$~$1@{$]$d#^$x#/$($$#_$:$<$[$}$|$1$2$3$4$5$6$7$8$9$0$",
"a$b$c$d$e$f$g$h$i$j$k$w#l$e@m$A n$o$B $#p$q$u#r$s$t$u$v$w$x$y$z$",
"A$B$C$D$E$F$G$H$I$x#f@J$;#[ K$L$M$x N$O$P$-@Q$R$S$T$U$V$W$X$Y$Z$",
"`$ %.%+%@%#%$%%%&%L$9 K@*%8#=%-% $V.;%>%,%'%O$)%!%~%{%]%^%/%(%_%",
":%<%[%}%|%1%2%3%4%5%g@L@6%1 7%8%9%1$|.0%I+a%b%c%d%e%f%;$g%h%i%j%",
"k%l%m%n%o%p%q%r%s%t%u%v%w%x t F x%y%[ V#z%0@2.A%B%C%D%E%F%G%H%I%",
"J%K%L%M%N%O%P%Q%R%[ S%T%&#u !@U%V%W%-#Z#X%[ Y%Z%`% &.&+&@&#&$&%&",
"&&*&=&-&;&>&,&'&)&!&~&{&]&^&G+/&(&_&:&<&[&}&|&1&2&3&4&5&6&7&8&9&",
"0&k$D@U%a&n+b&c&d&e&f&g&h&i&j&!+k&l&m&n&o&p&q&r&s&t&u&E@v&w&x&y&",
"z&A&B&C&D&S.E&F&G&H&I&J&K&L&M&N&O&P&Q&R&S&T&U&V&W&X&Y&: b#Z&`&d@",
"t x v >@ *8 r..*+*@*#*$*%*&***=*-*;*>*,*'*)*!*~*{*]*^*/*<+<+<+e@",
"U.8 B&(*_*:*<*r.[*}*|*1*2*3*4*5*6*7*8*9*0*a*b*c*d*N@0#[$e*Y%*#P$",
"f*6 w%y S.g*h*i*j*k*l*m*n*o*w$p*q*r*s*t*u*v*w*x*y*s.[$Z.D@Y%z*2 ",
"_*x A*t B*2 C*D*E*F*G*H*I*J*K*L*M*N*O*P*Q*R*S*T*4 U*L$V*t t 8 r.",
"W*a@X*0@y Y*Z*`* =.=+=@=#=$=%=&=*===-=;=>=,='=)=!=~={=%@v ]=^=!@",
"/=Y*y } U.$#(=_=:=<=[=}=|=1=2=3=4=5=6=7=8=9=0=a=b=c=Y%B*r..$U%2 "};
