/* XPM */
static char * DS_xpm[] = {
"32 32 364 2",
"  	c #0F0F11",
". 	c #121214",
"+ 	c #121116",
"@ 	c #0F0E13",
"# 	c #100F14",
"$ 	c #111113",
"% 	c #101012",
"& 	c #111111",
"* 	c #0E0F11",
"= 	c #0E0E10",
"- 	c #100E11",
"; 	c #0F0D10",
"> 	c #121013",
", 	c #0C0A0D",
"' 	c #0E0C0F",
") 	c #0C0A0B",
"! 	c #0D0B0E",
"~ 	c #0E0C11",
"{ 	c #0C0B10",
"] 	c #0D0C11",
"^ 	c #131315",
"/ 	c #111015",
"( 	c #110F10",
"_ 	c #121011",
": 	c #110F12",
"< 	c #121015",
"[ 	c #0E0D12",
"} 	c #0C0C0E",
"| 	c #141416",
"1 	c #100E0F",
"2 	c #0F0D0E",
"3 	c #141318",
"4 	c #151419",
"5 	c #141217",
"6 	c #161419",
"7 	c #151318",
"8 	c #0F0D12",
"9 	c #100E13",
"0 	c #0F0E0C",
"a 	c #0E0C0D",
"b 	c #131217",
"c 	c #16151B",
"d 	c #19181E",
"e 	c #17161C",
"f 	c #16131A",
"g 	c #18151C",
"h 	c #1A171E",
"i 	c #17141B",
"j 	c #131017",
"k 	c #1C1B20",
"l 	c #16151A",
"m 	c #0B0B0D",
"n 	c #0C0C0C",
"o 	c #101010",
"p 	c #100F0D",
"q 	c #15141A",
"r 	c #1A191F",
"s 	c #1E1D23",
"t 	c #201F25",
"u 	c #222127",
"v 	c #1F1E24",
"w 	c #1C1920",
"x 	c #1B181F",
"y 	c #1D1A21",
"z 	c #100F15",
"A 	c #161618",
"B 	c #1F1F1F",
"C 	c #0D0D0F",
"D 	c #131218",
"E 	c #1E1D25",
"F 	c #201F27",
"G 	c #24232B",
"H 	c #292830",
"I 	c #2B2A32",
"J 	c #28272F",
"K 	c #25242C",
"L 	c #2A2730",
"M 	c #312E37",
"N 	c #302F37",
"O 	c #27262E",
"P 	c #1D1C24",
"Q 	c #18171D",
"R 	c #1A1921",
"S 	c #222129",
"T 	c #2A2A32",
"U 	c #25252D",
"V 	c #2E2D35",
"W 	c #2C2B33",
"X 	c #282631",
"Y 	c #25232E",
"Z 	c #212028",
"` 	c #171516",
" .	c #131114",
"..	c #131116",
"+.	c #161417",
"@.	c #151517",
"#.	c #1B1C21",
"$.	c #27272F",
"%.	c #262630",
"&.	c #2E2C37",
"*.	c #29262D",
"=.	c #322F36",
"-.	c #313036",
";.	c #2F2E36",
">.	c #292931",
",.	c #27282D",
"'.	c #242329",
").	c #211E25",
"!.	c #1F1C23",
"~.	c #1C1A1F",
"{.	c #110F14",
"].	c #29292B",
"^.	c #171719",
"/.	c #17161B",
"(.	c #1C1D22",
"_.	c #26262E",
":.	c #2B2B35",
"<.	c #323035",
"[.	c #403B41",
"}.	c #3F3A40",
"|.	c #3C3A3F",
"1.	c #343237",
"2.	c #2E2D33",
"3.	c #28272D",
"4.	c #2A272E",
"5.	c #222025",
"6.	c #1E1C21",
"7.	c #1A181D",
"8.	c #18171C",
"9.	c #1C1B21",
"0.	c #2A2A34",
"a.	c #312E35",
"b.	c #3B363A",
"c.	c #484244",
"d.	c #494041",
"e.	c #4B4243",
"f.	c #433A3B",
"g.	c #38363B",
"h.	c #2E2C31",
"i.	c #2B292E",
"j.	c #232126",
"k.	c #1F1D22",
"l.	c #211F22",
"m.	c #19171A",
"n.	c #151314",
"o.	c #131112",
"p.	c #18181A",
"q.	c #1B1A20",
"r.	c #212026",
"s.	c #2A2931",
"t.	c #313038",
"u.	c #373238",
"v.	c #433D41",
"w.	c #4E4546",
"x.	c #514644",
"y.	c #594B48",
"z.	c #534640",
"A.	c #3E383A",
"B.	c #2F2A2E",
"C.	c #2A252B",
"D.	c #222023",
"E.	c #1A1819",
"F.	c #0A0809",
"G.	c #19181D",
"H.	c #443E40",
"I.	c #524847",
"J.	c #5C4E4B",
"K.	c #63544D",
"L.	c #63524A",
"M.	c #584E4D",
"N.	c #504748",
"O.	c #3B3537",
"P.	c #2C272B",
"Q.	c #252326",
"R.	c #1F1D20",
"S.	c #1D1B1C",
"T.	c #1E1C1D",
"U.	c #141213",
"V.	c #0E0E0E",
"W.	c #1A191E",
"X.	c #1D1C21",
"Y.	c #23222A",
"Z.	c #2C2930",
"`.	c #332E34",
" +	c #433D3F",
".+	c #574D4C",
"++	c #675A54",
"@+	c #705F57",
"#+	c #7B695F",
"$+	c #6B5E58",
"%+	c #5B504C",
"&+	c #4A4240",
"*+	c #353132",
"=+	c #29272A",
"-+	c #1E1C1F",
";+	c #201E1F",
">+	c #181617",
",+	c #1C1A1B",
"'+	c #312F30",
")+	c #0D0F0E",
"!+	c #0F1012",
"~+	c #1D1B20",
"{+	c #25222B",
"]+	c #302E33",
"^+	c #413B3D",
"/+	c #564E4C",
"(+	c #6D605A",
"_+	c #7B6A62",
":+	c #9E8C80",
"<+	c #908279",
"[+	c #695C54",
"}+	c #574D4B",
"|+	c #2F2D30",
"1+	c #28262B",
"2+	c #1B1B1D",
"3+	c #212123",
"4+	c #1D1D1F",
"5+	c #0E100F",
"6+	c #211E27",
"7+	c #242128",
"8+	c #383337",
"9+	c #4C4442",
"0+	c #635854",
"a+	c #796B62",
"b+	c #B2A197",
"c+	c #BBAB9E",
"d+	c #796C63",
"e+	c #635A55",
"f+	c #514B4B",
"g+	c #353336",
"h+	c #2D2B30",
"i+	c #211F24",
"j+	c #1C1C1E",
"k+	c #101116",
"l+	c #121317",
"m+	c #201E23",
"n+	c #242227",
"o+	c #464042",
"p+	c #6E635F",
"q+	c #897C76",
"r+	c #988E84",
"s+	c #7D746B",
"t+	c #655E58",
"u+	c #5A5552",
"v+	c #403C3D",
"w+	c #323033",
"x+	c #27252A",
"y+	c #0C0D12",
"z+	c #38393E",
"A+	c #4F5055",
"B+	c #0B0A0F",
"C+	c #1E1B22",
"D+	c #221F26",
"E+	c #4E4548",
"F+	c #605655",
"G+	c #6E6361",
"H+	c #7C736A",
"I+	c #6D645D",
"J+	c #6A625F",
"K+	c #554F4F",
"L+	c #423E3F",
"M+	c #312F32",
"N+	c #201F24",
"O+	c #201D24",
"P+	c #27242B",
"Q+	c #3E393D",
"R+	c #4B4547",
"S+	c #5B5253",
"T+	c #5F5754",
"U+	c #5F5755",
"V+	c #6C6364",
"W+	c #554F51",
"X+	c #454044",
"Y+	c #3A353B",
"Z+	c #2A282D",
"`+	c #1A1A1C",
" @	c #0D0B10",
".@	c #0D0C0A",
"+@	c #0B0B0B",
"@@	c #18191E",
"#@	c #24212A",
"$@	c #2B2831",
"%@	c #3C3940",
"&@	c #4A484D",
"*@	c #544E52",
"=@	c #504A4E",
"-@	c #484349",
";@	c #49444A",
">@	c #2F2D32",
",@	c #1B1C1E",
"'@	c #1B1A18",
")@	c #0E0D0B",
"!@	c #0D0B0C",
"~@	c #09090B",
"{@	c #121318",
"]@	c #14151A",
"^@	c #1F1E23",
"/@	c #26252B",
"(@	c #33323A",
"_@	c #38373F",
":@	c #4D484E",
"<@	c #4B464C",
"[@	c #4B444B",
"}@	c #3C373D",
"|@	c #363137",
"1@	c #302D34",
"2@	c #29282E",
"3@	c #171518",
"4@	c #161115",
"5@	c #2C2B29",
"6@	c #161415",
"7@	c #232228",
"8@	c #25242A",
"9@	c #2F2F39",
"0@	c #3A3740",
"a@	c #39343B",
"b@	c #39343A",
"c@	c #312C33",
"d@	c #36333A",
"e@	c #27262C",
"f@	c #18161B",
"g@	c #0D0D0D",
"h@	c #09080D",
"i@	c #0B0A10",
"j@	c #131418",
"k@	c #232027",
"l@	c #26252D",
"m@	c #303038",
"n@	c #302F35",
"o@	c #353037",
"p@	c #312C32",
"q@	c #2F2A31",
"r@	c #37343D",
"s@	c #19171C",
"t@	c #1D1E20",
"u@	c #0A0B0F",
"v@	c #26232A",
"w@	c #2D2C34",
"x@	c #2D2A31",
"y@	c #29242B",
"z@	c #34313A",
"A@	c #1F1A21",
"B@	c #1A151C",
"C@	c #131313",
"D@	c #0F0F0F",
"E@	c #17151A",
"F@	c #312F3A",
"G@	c #2D2D37",
"H@	c #24242E",
"I@	c #141215",
"J@	c #1E1D22",
"K@	c #252229",
"L@	c #282830",
"M@	c #20202A",
"N@	c #1C1B23",
"O@	c #1B191E",
"P@	c #151316",
"Q@	c #1B161C",
"R@	c #171216",
"S@	c #140F13",
"T@	c #130E12",
"U@	c #151014",
"V@	c #0A090E",
"W@	c #121212",
"  . + @ # $ % & * * * %   = =   - ; - > - , , ' ) ! ' ~ { { ] # ",
"  ^ + # / + $ & % % % $ . ^ > - ; ; ; ; ' ; ( _ ( - : < # [ } } ",
"= $ # @ / / % $ % ^ | $ - - ; ! - > : ' ' 1 1 2 ( 1 : > . $   = ",
"= % @ @ + + # + / 3 4 5 5 6 7 < 8 9 - - - 1 1 1 0 a a - % $ $ $ ",
"  $ % # b b b c d d e f g h i j k l + $   m n o p 2 2 ; = = =   ",
"# $ % % b b q r s t u v w h x y t e z # / % A B 1 1 - :   = C = ",
"# / % % + D e E F G H I J K L M N O P Q b [ = . _ - ; 9 # @ = = ",
"+ b . . b q R S T U U I V W H H X Y Z s r 4 + % `  .; ~ [ [ [ ] ",
"..+.@.^ ^ 3 #.$.%.&.N *.=.-.;.>.,.'.'.).!.~.< {.].^.= % = C   $ ",
"' : . ^ @./.(._.:.N =.<.[.}.|.1.2.3.4.*.5.6.7.6 C = % = } $ . m ",
"$ ^ | @.^.8.9.'.0.;.a.b.c.d.e.f.g.h.i.i.j.k.l.m.` _ _ n.( a 1 o.",
"p.p.A A 8.8.q.r.s.t.u.v.w.x.y.z.c.A.B.C.j.l.D.E.o.o._ 1 2 2 a F.",
"| | ^ 3 8.G.r t K a.u.H.I.J.K.L.M.N.O.P.Q.D.R.S.T.E.U.1 a a 1 U.",
"V.% $ 4 W.r W.X.Y.Z.`. +.+++@+#+$+%+&+*+=+j.-+l.;+>+_ U.U.( ,+'+",
")+!+$ l r r 7.~+{+4.]+^+/+(+_+:+<+[+}+H.|+1+k.D.2+3+4+^   C C $ ",
")+5+# 3 d d 7.6.6+7+i.8+9+0+a+b+c+d+e+f+g+h+i+6.j+4+p.@.@.$   | ",
"k+l+# . | 7.~+x j.m+n+<.o+.+p+q+r+s+t+u+v+w+x+~+~+k.G.l /.y+z+A+",
"B+% . . $ l C+D+~.i+7+i.b.E+F+G+H+I+J+K+L+M+x+6.4+j+/.8.8.{ N+3.",
"U.2 V.& | + c 9.~+C+O+P+=.Q+R+S+T+U+V+W+X+Y+Z+j.4+2+^.`+8.@ 8  @",
".@p U.+@= 3 @@@@5.).t #@$@a.%@&@W+W+*@=@-@;@>@m+,@2+p.`++.+.' ' ",
"'@)@!@~@+ + {@]@^@/@/@Z G W (@_@[.:@<@[@}@|@1@2@4+2+p.^.> 3@: 4@",
"5@6@^ / W.b / /.8.v 7@8@O H W 9@0@%@a@b@b@c@d@e@^@k f@f@ .+.; ; ",
"g@= W.h@i@{ 8 9 l+j@G.k@*.l@J m@;.n@o@`.p@q@r@s.).6.f@s@6 5 - ! ",
"t@u@3 c 7@s@8 ; k+l+3 f@O+v@J w@$.3.x@p@y@o@z@X A@A@B@s@6 < b + ",
"b # # ^ @.C@o D@9 {.5 E@f@f@~+)./@3.e@l@I F@G@H@~+s@7 6 E@7 < 9 ",
"  % $ ^ $     $ +.I@....5 7 s@~.J@u K@v@H w@L@M@6.s@7 7 7 5 ....",
"C   $ $ % =   . 3@I@: 9 {...7 6 6 7.6.).D+k@v N@O@f@7 5 5 ..< ..",
"V.g@g@= % # # @ > : - - < < ..< I@P@3@Q@Q@s@f@f@6 6 6 6 7 ..{.9 ",
"D@V.V.= = @ @ [ ' ; - : {.{.{.{.P@I@I@R@R@R@7 7 7 6 f@f@6 ..{.8 ",
"  $ . % = =   %   % $   = [ @ @ $ : : S@4@4@I@I@5 6 6 7 ..< {.9 ",
"C % $ %   % $ $   $ $   C = @ [   % : : T@U@I@I@< ....{.9 {.{.{.",
"B+B+V@} % C@W@D@g@  %     % % = % .  .- -  .+.+.9 < ..< {.< < {."};
