/* XPM */
static char * Fz_xpm[] = {
"32 32 936 2",
"  	c #FFF6FB",
". 	c #FFF9FE",
"+ 	c #FFF9FD",
"@ 	c #FFFCFF",
"# 	c #FBF9FC",
"$ 	c #FBF9FA",
"% 	c #FFFEFF",
"& 	c #FCFAFB",
"* 	c #FEFAF9",
"= 	c #F4F8FF",
"- 	c #DBE3F6",
"; 	c #B5C7DD",
"> 	c #8FA7C1",
", 	c #8FADC7",
"' 	c #B3D5EE",
") 	c #D2E8F6",
"! 	c #DDEFFB",
"~ 	c #EBF8FF",
"{ 	c #F3FBFE",
"] 	c #FAFEFD",
"^ 	c #FFFFFD",
"/ 	c #FDFCF8",
"( 	c #FFFFFB",
"_ 	c #FEFCFF",
": 	c #FBF6FA",
"< 	c #FFFDFE",
"[ 	c #FBFCFE",
"} 	c #FBFFFF",
"| 	c #F5FDFF",
"1 	c #FBF7F8",
"2 	c #F3F7F8",
"3 	c #F4FCFE",
"4 	c #F3FBFD",
"5 	c #F9FFFF",
"6 	c #F7F7F7",
"7 	c #E9EDF0",
"8 	c #F7FEFF",
"9 	c #CCDAE5",
"0 	c #7C96A3",
"a 	c #5D8294",
"b 	c #5A8B9C",
"c 	c #5F96AA",
"d 	c #6FA4B4",
"e 	c #78A8B6",
"f 	c #91B9C5",
"g 	c #B3D1DC",
"h 	c #CEE4EF",
"i 	c #D8E6EF",
"j 	c #D8E2EB",
"k 	c #E3ECF5",
"l 	c #E9F3F5",
"m 	c #F3F8FB",
"n 	c #FEFFFF",
"o 	c #FDFDFD",
"p 	c #FDFDFB",
"q 	c #FDFFFE",
"r 	c #F9FBF8",
"s 	c #F8FFFF",
"t 	c #F0FEFE",
"u 	c #F1FFFF",
"v 	c #EAFFFF",
"w 	c #DDF2F3",
"x 	c #CFE7E7",
"y 	c #DDEBEC",
"z 	c #EEF9FB",
"A 	c #F2FCFD",
"B 	c #EBF9FC",
"C 	c #BDD4DA",
"D 	c #8AACB6",
"E 	c #78A7B7",
"F 	c #649DAE",
"G 	c #609EB3",
"H 	c #629CB2",
"I 	c #6296AE",
"J 	c #6B97B0",
"K 	c #89ADC5",
"L 	c #A2C1D6",
"M 	c #A7C2D7",
"N 	c #ABC4D8",
"O 	c #C6D9DD",
"P 	c #D3E5E7",
"Q 	c #D6E2E2",
"R 	c #EAF0EE",
"S 	c #F4F5F0",
"T 	c #F7F6F1",
"U 	c #FFFFFA",
"V 	c #F6F5F0",
"W 	c #FCFFFD",
"X 	c #F2FBF8",
"Y 	c #ECFAFA",
"Z 	c #E9FDFE",
"` 	c #D4EDF1",
" .	c #B7D4D8",
"..	c #A1C0C3",
"+.	c #95B7B9",
"@.	c #ABC8D0",
"#.	c #D6EBF0",
"$.	c #EFFDFE",
"%.	c #F6FCFC",
"&.	c #F2FAFC",
"*.	c #DDECF3",
"=.	c #C2D9E7",
"-.	c #B3D2E6",
";.	c #A5CDE7",
">.	c #A0C5E2",
",.	c #99BCDA",
"'.	c #93B6D6",
").	c #92B5D3",
"!.	c #8EB2CC",
"~.	c #96BAD0",
"{.	c #B1D6E9",
"].	c #DDF4FA",
"^.	c #E0F5FA",
"/.	c #D7E7E7",
"(.	c #E9F3F2",
"_.	c #EAF0EC",
":.	c #DBE0DA",
"<.	c #EEF1EA",
"[.	c #FEFFFA",
"}.	c #D9E8ED",
"|.	c #C0D7DD",
"1.	c #9FBCC4",
"2.	c #8AABB4",
"3.	c #86A8B1",
"4.	c #97BCC4",
"5.	c #9DC1D1",
"6.	c #AECAD5",
"7.	c #D4E5EC",
"8.	c #F6FEFF",
"9.	c #FCFFFF",
"0.	c #F2FFFF",
"a.	c #E1F1FE",
"b.	c #D8EAFE",
"c.	c #D4E6FC",
"d.	c #C9DDF5",
"e.	c #BED4EC",
"f.	c #BAD5EA",
"g.	c #B7D4E6",
"h.	c #B1D3DF",
"i.	c #BADCE6",
"j.	c #EAFBFF",
"k.	c #EDFEFF",
"l.	c #E9F8FD",
"m.	c #E9F7F8",
"n.	c #EDF8FA",
"o.	c #DCE7E9",
"p.	c #C3D1D2",
"q.	c #E7F5F6",
"r.	c #FAFAFF",
"s.	c #D8DFE9",
"t.	c #B7C5D0",
"u.	c #BED4E2",
"v.	c #C3DFED",
"w.	c #C3E3F2",
"x.	c #B1D2E1",
"y.	c #ABCCDB",
"z.	c #C5E6F9",
"A.	c #B7D4E2",
"B.	c #A9C0C8",
"C.	c #CDDFE3",
"D.	c #EAFAFA",
"E.	c #E1F3F3",
"F.	c #E5FAFB",
"G.	c #E6FBFF",
"H.	c #E2F6FD",
"I.	c #E2F5FC",
"J.	c #DEF1F8",
"K.	c #DBEEF5",
"L.	c #DBEEF4",
"M.	c #DEF1F5",
"N.	c #E9FCFF",
"O.	c #F3FCFF",
"P.	c #E1EBF4",
"Q.	c #ADB7C0",
"R.	c #C3D1DA",
"S.	c #7B8E9C",
"T.	c #586F7F",
"U.	c #A8C2D3",
"V.	c #F5F7FF",
"W.	c #A5ABBB",
"X.	c #68778A",
"Y.	c #445A6F",
"Z.	c #506C81",
"`.	c #8AABBE",
" +	c #B9DAED",
".+	c #D1F2FF",
"++	c #C8E4F0",
"@+	c #C7E1EE",
"#+	c #BDD8E3",
"$+	c #B3CCD3",
"%+	c #C7E0E5",
"&+	c #C8E1E5",
"*+	c #B1CBCC",
"=+	c #C4DEDD",
"-+	c #EAFCFC",
";+	c #EFFFFF",
">+	c #F4FFFF",
",+	c #EEFDFA",
"'+	c #F0FAF9",
")+	c #F8FDFF",
"!+	c #EEF2F5",
"~+	c #EAEFF3",
"{+	c #D8DFE5",
"]+	c #CDD7E1",
"^+	c #D7E4F4",
"/+	c #607288",
"(+	c #0E2642",
"_+	c #122F51",
":+	c #415F85",
"<+	c #C8CBDE",
"[+	c #40465C",
"}+	c #0D1C33",
"|+	c #0A223A",
"1+	c #1B374F",
"2+	c #143449",
"3+	c #3B5C6F",
"4+	c #99BACD",
"5+	c #DAF3FA",
"6+	c #D7F2FB",
"7+	c #E0FBFF",
"8+	c #DBF5FF",
"9+	c #CBE3EF",
"0+	c #CBDDE7",
"a+	c #CAD9E0",
"b+	c #C0CBD1",
"c+	c #ACAFB4",
"d+	c #ACB0B3",
"e+	c #C7CBCA",
"f+	c #DFE4E0",
"g+	c #E2E4E1",
"h+	c #E1E1E1",
"i+	c #E9E9EB",
"j+	c #F8F6FB",
"k+	c #F5F9FC",
"l+	c #F5FAFF",
"m+	c #556477",
"n+	c #1E314F",
"o+	c #2E456E",
"p+	c #011D4D",
"q+	c #325084",
"r+	c #7F8DB0",
"s+	c #0C1C3E",
"t+	c #142849",
"u+	c #304D6D",
"v+	c #8FB2D2",
"w+	c #9DC2DF",
"x+	c #789DB7",
"y+	c #54778D",
"z+	c #7C99A7",
"A+	c #B4CFDA",
"B+	c #D5E9F2",
"C+	c #EFFAFF",
"D+	c #FAFFFF",
"E+	c #FBF9FE",
"F+	c #F9F7FC",
"G+	c #F4EEF0",
"H+	c #D5CFD9",
"I+	c #9A98A6",
"J+	c #848A98",
"K+	c #829196",
"L+	c #99A8AB",
"M+	c #D1DFE2",
"N+	c #F0F9FF",
"O+	c #E2F1F8",
"P+	c #E7F8FF",
"Q+	c #70848D",
"R+	c #1A3141",
"S+	c #3A546D",
"T+	c #021F41",
"U+	c #001C42",
"V+	c #426289",
"W+	c #445C7E",
"X+	c #304B69",
"Y+	c #3B5A77",
"Z+	c #3B607D",
"`+	c #AAD3EF",
" @	c #AAD7EE",
".@	c #9CC7DA",
"+@	c #9CC3D4",
"@@	c #81A5B3",
"#@	c #8DADBA",
"$@	c #AAC5D0",
"%@	c #BDD1DA",
"&@	c #9FAEB5",
"*@	c #8C99A1",
"=@	c #C2CCD5",
"-@	c #E6F0F9",
";@	c #D9EFFA",
">@	c #CEE3F4",
",@	c #D4EDFF",
"'@	c #D0EFFF",
")@	c #CEF4FF",
"!@	c #CCF4FE",
"~@	c #C3E7F3",
"{@	c #BEDFEE",
"]@	c #7E96A2",
"^@	c #284452",
"/@	c #314D63",
"(@	c #11304D",
"_@	c #4C6A8E",
":@	c #325374",
"<@	c #406180",
"[@	c #324F6F",
"}@	c #4F6E8D",
"|@	c #587B99",
"1@	c #3A5F7A",
"2@	c #BCE2F9",
"3@	c #C1E6F8",
"4@	c #C2E6F4",
"5@	c #B7D9E3",
"6@	c #93B8C8",
"7@	c #B0D2DE",
"8@	c #BDDBE6",
"9@	c #C7E3EE",
"0@	c #99B5C1",
"a@	c #6D8997",
"b@	c #658290",
"c@	c #86B0C0",
"d@	c #94BDD1",
"e@	c #9ABFDA",
"f@	c #97C1DA",
"g@	c #97C6DA",
"h@	c #90C1D2",
"i@	c #86B7C6",
"j@	c #9DCCDE",
"k@	c #82A2AF",
"l@	c #557687",
"m@	c #8FB2C8",
"n@	c #2C4F6F",
"o@	c #1F4167",
"p@	c #8BABD1",
"q@	c #44627C",
"r@	c #354B70",
"s@	c #364E72",
"t@	c #6F8CAE",
"u@	c #3B5673",
"v@	c #C9E2F8",
"w@	c #DDF3FF",
"x@	c #DDEFF9",
"y@	c #D2E3EB",
"z@	c #87AEBF",
"A@	c #81A6B8",
"B@	c #A5C9D9",
"C@	c #94B8C6",
"D@	c #9ABECC",
"E@	c #B6DBEB",
"F@	c #C5EBFE",
"G@	c #BDE6FA",
"H@	c #9FC5D8",
"I@	c #97BAD0",
"J@	c #8BABC4",
"K@	c #7C9CB5",
"L@	c #8BAFC5",
"M@	c #A4CADD",
"N@	c #97BCCE",
"O@	c #82A7B9",
"P@	c #91B5C1",
"Q@	c #ABD0E2",
"R@	c #96BBD8",
"S@	c #244A71",
"T@	c #305280",
"U@	c #9EBBE7",
"V@	c #375172",
"W@	c #556D87",
"X@	c #43577A",
"Y@	c #172F53",
"Z@	c #839DC0",
"`@	c #425978",
" #	c #D1E2F6",
".#	c #EEF8FF",
"+#	c #EFF6FE",
"@#	c #F1F8FE",
"##	c #B7D7E6",
"$#	c #BADAE9",
"%#	c #B2CFDD",
"&#	c #A8C8D5",
"*#	c #A4C5D4",
"=#	c #89AEBE",
"-#	c #93B9CC",
";#	c #A6D1E4",
">#	c #C9EEFF",
",#	c #C4E5F8",
"'#	c #B0CCE1",
")#	c #B5D1E6",
"!#	c #AFCBE0",
"~#	c #CFEEFF",
"{#	c #819EAE",
"]#	c #89A5B3",
"^#	c #B5D4D9",
"/#	c #C6E7F6",
"(#	c #96B9D5",
"_#	c #163865",
":#	c #416194",
"<#	c #A1BBEC",
"[#	c #2C4065",
"}#	c #73849E",
"|#	c #587190",
"1#	c #133052",
"2#	c #6485A6",
"3#	c #405B76",
"4#	c #D2E5F4",
"5#	c #EAF5FB",
"6#	c #AAB4B6",
"7#	c #8FA7B1",
"8#	c #CBE1EC",
"9#	c #E1F8FF",
"0#	c #DDF4FC",
"a#	c #D8F0FA",
"b#	c #C0DCE7",
"c#	c #A6C6D3",
"d#	c #97BBC9",
"e#	c #8FB9C9",
"f#	c #8DB2C2",
"g#	c #87ABB9",
"h#	c #96BACA",
"i#	c #CAEFFF",
"j#	c #B6D9EC",
"k#	c #82A1B3",
"l#	c #C7E4F2",
"m#	c #DAEFF2",
"n#	c #D6F1FC",
"o#	c #8AA8C4",
"p#	c #12335E",
"q#	c #5C7AAC",
"r#	c #8FA7D5",
"s#	c #1F3155",
"t#	c #8B9BB4",
"u#	c #627B99",
"v#	c #0F2E4D",
"w#	c #325575",
"x#	c #33516B",
"y#	c #DAEDFB",
"z#	c #EEF7FC",
"A#	c #EFF7F9",
"B#	c #798384",
"C#	c #697B7F",
"D#	c #B9C8CB",
"E#	c #EEFEFE",
"F#	c #E8FAFC",
"G#	c #EAFDFF",
"H#	c #D7EFF3",
"I#	c #CCE5EA",
"J#	c #ADCDD8",
"K#	c #ACCDD4",
"L#	c #BDDEE5",
"M#	c #D3F5FF",
"N#	c #AAC7D5",
"O#	c #9BB2C0",
"P#	c #E1F5FF",
"Q#	c #C1CED4",
"R#	c #DEF0FC",
"S#	c #748EA7",
"T#	c #05254B",
"U#	c #6586B1",
"V#	c #819DC4",
"W#	c #213953",
"X#	c #A7BAC9",
"Y#	c #778AA8",
"Z#	c #1A3254",
"`#	c #2C496B",
" $	c #2A425C",
".$	c #E1EFFC",
"+$	c #F3F4F8",
"@$	c #C7CCD0",
"#$	c #A4B2B2",
"$$	c #DCEBE8",
"%$	c #F5FFFD",
"&$	c #EEF9F5",
"*$	c #F3FFFB",
"=$	c #EDFCF9",
"-$	c #ECFFFD",
";$	c #E8FCFB",
">$	c #E5F4F9",
",$	c #DBEBEB",
"'$	c #E6F9F7",
")$	c #E3F7F6",
"!$	c #E5F8FE",
"~$	c #B9CAD2",
"{$	c #A2ABB4",
"]$	c #F9FCFF",
"^$	c #A6ADB5",
"/$	c #C8D6E3",
"($	c #6E869E",
"_$	c #001F42",
":$	c #6A8CB2",
"<$	c #6B8CAB",
"[$	c #2E495C",
"}$	c #B6CDD3",
"|$	c #7B93AF",
"1$	c #284361",
"2$	c #456483",
"3$	c #2E4D62",
"4$	c #DFF5FF",
"5$	c #F0FFFC",
"6$	c #F4FBF4",
"7$	c #FBFCFF",
"8$	c #F6FBFF",
"9$	c #F4FBFF",
"0$	c #F1F5FE",
"a$	c #F9FAFE",
"b$	c #F9F8F4",
"c$	c #FCFDF8",
"d$	c #F7F8FA",
"e$	c #F6F5FD",
"f$	c #F6F7FC",
"g$	c #F3F9F9",
"h$	c #F1FDFD",
"i$	c #ABB5BF",
"j$	c #B4BDC6",
"k$	c #EFF4F7",
"l$	c #ECF9FF",
"m$	c #627890",
"n$	c #001D43",
"o$	c #42658D",
"p$	c #597A99",
"q$	c #415868",
"r$	c #CDDCE1",
"s$	c #96A7C1",
"t$	c #1F3453",
"u$	c #637E9C",
"v$	c #2F4962",
"w$	c #CFE2F1",
"x$	c #F5FEFF",
"y$	c #FEF9FF",
"z$	c #F7FFFB",
"A$	c #F1FCF8",
"B$	c #F3FCFB",
"C$	c #FFFAFC",
"D$	c #FCF7FB",
"E$	c #F6F3FA",
"F$	c #FBF8FF",
"G$	c #FBFAFF",
"H$	c #F5F9F8",
"I$	c #F3FDFE",
"J$	c #9FA9B3",
"K$	c #C9D2DB",
"L$	c #70829A",
"M$	c #0D294E",
"N$	c #375780",
"O$	c #3F5C7C",
"P$	c #506674",
"Q$	c #DBE9EC",
"R$	c #9DAEC2",
"S$	c #304560",
"T$	c #6984A2",
"U$	c #3A5570",
"V$	c #C8DDF2",
"W$	c #D1DDEB",
"X$	c #EFF1FE",
"Y$	c #EBE9F7",
"Z$	c #E4F2F2",
"`$	c #EFFBF9",
" %	c #F3F9F7",
".%	c #FAFBF6",
"+%	c #FAF6F5",
"@%	c #FFFAFE",
"#%	c #FCFBF7",
"$%	c #FEF9FD",
"%%	c #FDF8FC",
"&%	c #F7F7F5",
"*%	c #959DA8",
"=%	c #D8E0EB",
"-%	c #F7FFFF",
";%	c #EFF5F5",
">%	c #7888A1",
",%	c #253D63",
"'%	c #47648E",
")%	c #183253",
"!%	c #566978",
"~%	c #EDF8FC",
"{%	c #98ADBE",
"]%	c #49637A",
"^%	c #789AB5",
"/%	c #264863",
"(%	c #A6C3D5",
"_%	c #D5E8F6",
":%	c #D7E3EF",
"<%	c #DFE5F3",
"[%	c #E6EDFD",
"}%	c #DAE6F4",
"|%	c #DBEBF8",
"1%	c #EBFCFF",
"2%	c #F7FFFD",
"3%	c #F4F6F5",
"4%	c #FBFEF7",
"5%	c #F7F5F6",
"6%	c #F4FDFC",
"7%	c #939DA7",
"8%	c #DBE8F1",
"9%	c #F3FFFF",
"0%	c #596A86",
"a%	c #3A517B",
"b%	c #5A75A2",
"c%	c #132B4F",
"d%	c #495C6D",
"e%	c #EAF8FB",
"f%	c #AABDCE",
"g%	c #4E667E",
"h%	c #5A7894",
"i%	c #03213B",
"j%	c #87A1B2",
"k%	c #D8EAF4",
"l%	c #D4E1E7",
"m%	c #DEE9EF",
"n%	c #D2D5E6",
"o%	c #BAC5D9",
"p%	c #ABC1D6",
"q%	c #B5D2E4",
"r%	c #D0EEF9",
"s%	c #E0F7FF",
"t%	c #E1F3F7",
"u%	c #EAF8F9",
"v%	c #EEFAF6",
"w%	c #F5FAFE",
"x%	c #F2F8F8",
"y%	c #DCE7EB",
"z%	c #7D8D9A",
"A%	c #DDF1FC",
"B%	c #E7FCFD",
"C%	c #95ABB9",
"D%	c #344B6B",
"E%	c #2A4574",
"F%	c #304C7C",
"G%	c #021A40",
"H%	c #526576",
"I%	c #EDFBFE",
"J%	c #B2BFD2",
"K%	c #495973",
"L%	c #2C3F5F",
"M%	c #263957",
"N%	c #C8D7EA",
"O%	c #E6F3FC",
"P%	c #E7F2F4",
"Q%	c #E2EEEE",
"R%	c #DBE4E9",
"S%	c #C9DAE4",
"T%	c #AEC9DA",
"U%	c #799CB0",
"V%	c #64879B",
"W%	c #8EAFC2",
"X%	c #C2DDF0",
"Y%	c #C9E6EC",
"Z%	c #D3E9F6",
"`%	c #E0F0FF",
" &	c #EBF9FF",
".&	c #CADCE8",
"+&	c #778DA2",
"@&	c #D0EBFC",
"#&	c #B8D6DE",
"$&	c #6E8F94",
"%&	c #2F4E60",
"&&	c #1A3759",
"*&	c #1D3969",
"=&	c #223C6F",
"-&	c #0B2148",
";&	c #506171",
">&	c #F2FDFF",
",&	c #AEC1D2",
"'&	c #2C4059",
")&	c #1D3051",
"!&	c #415172",
"~&	c #DBEAFF",
"{&	c #E6F9FD",
"]&	c #E3F8F9",
"^&	c #E6FEFF",
"/&	c #E1FAFF",
"(&	c #E2FFFF",
"_&	c #D6F2FD",
":&	c #A8C5D3",
"<&	c #7291A5",
"[&	c #577B93",
"}&	c #58819D",
"|&	c #618EA3",
"1&	c #7093AF",
"2&	c #8CA7C4",
"3&	c #B9D1E9",
"4&	c #9EB8D1",
"5&	c #6483A2",
"6&	c #7598B4",
"7&	c #537A8B",
"8&	c #A6CFD3",
"9&	c #92B7C7",
"0&	c #3C5D80",
"a&	c #334F7F",
"b&	c #1B3264",
"c&	c #16284C",
"d&	c #697583",
"e&	c #F8FFFE",
"f&	c #A5C7D1",
"g&	c #0C2C41",
"h&	c #23405E",
"i&	c #5D7695",
"j&	c #C1D7EE",
"k&	c #CEE9F4",
"l&	c #C7E6E9",
"m&	c #B6DDDC",
"n&	c #BADFE7",
"o&	c #C7E8EF",
"p&	c #D7F0F5",
"q&	c #E7FAFE",
"r&	c #EBFEFF",
"s&	c #DCF9FF",
"t&	c #ADD6E8",
"u&	c #699DB5",
"v&	c #386D8D",
"w&	c #37638A",
"x&	c #33547D",
"y&	c #4B698B",
"z&	c #224064",
"A&	c #20416A",
"B&	c #30567B",
"C&	c #638DA6",
"D&	c #CCFAFA",
"E&	c #B5DCEB",
"F&	c #7697B8",
"G&	c #7D98C7",
"H&	c #2F4375",
"I&	c #1E2D4E",
"J&	c #E1EAF3",
"K&	c #FAFDF6",
"L&	c #A5BFCC",
"M&	c #264353",
"N&	c #608399",
"O&	c #86B0C9",
"P&	c #A2D0EA",
"Q&	c #9CCAE2",
"R&	c #96C3D8",
"S&	c #8CBACA",
"T&	c #8DC0C4",
"U&	c #9EC7CB",
"V&	c #BAD3D7",
"W&	c #CDDAE0",
"X&	c #DEE7EE",
"Y&	c #E8F9FF",
"Z&	c #DDFAFF",
"`&	c #C4E9F2",
" *	c #85AFC7",
".*	c #527E9B",
"+*	c #376589",
"@*	c #174670",
"#*	c #0E3B65",
"$*	c #769DC4",
"%*	c #83A6C4",
"&*	c #8EAEC7",
"**	c #B8E2EE",
"=*	c #B5DAED",
"-*	c #A9C4E2",
";*	c #96A8CC",
">*	c #4A5374",
",*	c #B0B5C9",
"'*	c #F7F9F4",
")*	c #A6B9C0",
"!*	c #384F5F",
"~*	c #6685A2",
"{*	c #9BC8EF",
"]*	c #83B5D6",
"^*	c #80B2C9",
"/*	c #84B8C6",
"(*	c #8FB8D4",
"_*	c #96B8D1",
":*	c #ABC2D2",
"<*	c #BBCCD4",
"[*	c #BDCCD1",
"}*	c #C9DEE3",
"|*	c #D9F6FE",
"1*	c #CEF3FC",
"2*	c #BEE7FD",
"3*	c #9BC5DE",
"4*	c #6F98B8",
"5*	c #396185",
"6*	c #487094",
"7*	c #ACD3F4",
"8*	c #91B4D2",
"9*	c #9ABED8",
"0*	c #C0E5EE",
"a*	c #93ABC3",
"b*	c #53637D",
"c*	c #ACB3CD",
"d*	c #FBFEFF",
"e*	c #F4F5F7",
"f*	c #CBD3D5",
"g*	c #364451",
"h*	c #3F5877",
"i*	c #5A7CA9",
"j*	c #8BB7E6",
"k*	c #9ACBF3",
"l*	c #ADE1F9",
"m*	c #B7ECFA",
"n*	c #BFDDF5",
"o*	c #C1DEF0",
"p*	c #C4DFEA",
"q*	c #B6CFD4",
"r*	c #BDD6DB",
"s*	c #C1DCE5",
"t*	c #B2CFDF",
"u*	c #C3E2F7",
"v*	c #C0E5F7",
"w*	c #CEF1FF",
"x*	c #AECEE5",
"y*	c #7D9BB5",
"z*	c #708EA8",
"A*	c #C2E1FD",
"B*	c #91B3CE",
"C*	c #A4C8E2",
"D*	c #D4F0FB",
"E*	c #AFC7D3",
"F*	c #566777",
"G*	c #A9B5C5",
"H*	c #FCFDFF",
"I*	c #FCFCF4",
"J*	c #FEFEFC",
"K*	c #A8ACB5",
"L*	c #27364D",
"M*	c #183255",
"N*	c #32537C",
"O*	c #547B9C",
"P*	c #77A0B6",
"Q*	c #ADD4E5",
"R*	c #D9EDF8",
"S*	c #E5FCFF",
"T*	c #E6FFFF",
"U*	c #E4FFFF",
"V*	c #E0FDFF",
"W*	c #CFEBF9",
"X*	c #CEE8F9",
"Y*	c #CCE8F4",
"Z*	c #C3DBE7",
"`*	c #CBDEEC",
" =	c #BACCDA",
".=	c #95A6B6",
"+=	c #D3EAFC",
"@=	c #ABC7DC",
"#=	c #C2E2F7",
"$=	c #C6D8E4",
"%=	c #6C7D87",
"&=	c #BBC5CF",
"*=	c #F6FAFF",
"==	c #F8F9FD",
"-=	c #F9F9F9",
";=	c #FFFEFA",
">=	c #FFFDF8",
",=	c #F9F5F2",
"'=	c #FFFFFF",
")=	c #D7DEE8",
"!=	c #8592A2",
"~=	c #68798D",
"{=	c #57697D",
"]=	c #4E5F71",
"^=	c #3A4B5B",
"/=	c #454E5D",
"(=	c #4A5768",
"_=	c #5C6E82",
":=	c #7C92A7",
"<=	c #A4BECF",
"[=	c #C3DEE7",
"}=	c #D8F0F2",
"|=	c #EDFFFF",
"1=	c #E1F2FA",
"2=	c #D9E8EF",
"3=	c #A9B3BC",
"4=	c #D3E1EC",
"5=	c #DEF1FF",
"6=	c #BCD3E1",
"7=	c #5A6372",
"8=	c #B7BFCA",
"9=	c #FCFCFC",
"0=	c #F8F7F5",
"a=	c #FDFCFA",
"b=	c #F8FAF9",
"c=	c #F7FAFF",
"d=	c #ECEFF8",
"e=	c #DEDEE8",
"f=	c #BABEC9",
"g=	c #898F9F",
"h=	c #5D687E",
"i=	c #1A2843",
"j=	c #0C1C36",
"k=	c #2D3C51",
"l=	c #53616C",
"m=	c #A7B6BB",
"n=	c #F1FAFF",
"o=	c #ECF5FC",
"p=	c #AFB9C2",
"q=	c #DAE4ED",
"r=	c #DEEBF3",
"s=	c #92A1A8",
"t=	c #BDC1CD",
"u=	c #F8F6F7",
"v=	c #F6F6F8",
"w=	c #F1FAF5",
"x=	c #EEF4F0",
"y=	c #FEFFFD",
"z=	c #F7F6F4",
"A=	c #FBF7F6",
"B=	c #FFFCFB",
"C=	c #F7FBFE",
"D=	c #E9ECFB",
"E=	c #B4B9CC",
"F=	c #858A9D",
"G=	c #6B7282",
"H=	c #575F6C",
"I=	c #868D95",
"J=	c #DBE9F6",
"K=	c #768695",
"L=	c #A3B1BC",
"M=	c #B7C0C7",
"N=	c #C4CCCF",
"O=	c #FEFEFF",
"P=	c #F8F7FC",
"Q=	c #FAF8F9",
"R=	c #F8F7F3",
"S=	c #FBFDFC",
"T=	c #EFFEF9",
"U=	c #F4FFFB",
"V=	c #FAFEFF",
"W=	c #FCFAFD",
"X=	c #FFFBFC",
"Y=	c #FDFFF4",
"Z=	c #F5F9EB",
"`=	c #FDFEFF",
" -	c #FEFDF9",
".-	c #FCFEF9",
"+-	c #FBFFFC",
"@-	c #E4EAE8",
"#-	c #BFC6D0",
"$-	c #A6B2C0",
"%-	c #8D9EB0",
"&-	c #6C8299",
"*-	c #3A4F64",
"=-	c #8A9AA9",
"--	c #EBF4FB",
";-	c #F7F7F9",
">-	c #FDFCF7",
",-	c #FBFAF5",
"'-	c #FDFEF9",
")-	c #F6FAFB",
"  . + @ # $ % & * % = - ; > , ' ) ! ~ { ] ^ / ( % _ : < & [ } | ",
"1 % [ 2 } 3 4 5 6 7 8 9 0 a b c d e f g h i j k l m n o ^ ^ p q ",
"r ] s t u v w x y z A B C D E F G H I J K L M N O P Q R S T U V ",
"W X Y Z `  ...+.@.#.$.%.&.*.=.-.;.>.,.'.).!.~.{.].^./.(._.:.<.[.",
"[ 5 }.|.1.2.3.4.5.6.7.8.9.} 0.a.b.c.d.e.f.g.h.i.j.k.l.m.n.o.p.q.",
"r.s.t.u.v.w.x.y.z.A.B.C.D.E.F.v G.H.I.J.K.L.M.N.O.P.Q.R.0.S.T.U.",
"V.W.X.Y.Z.`. +.+++@+#+$+%+&+*+=+-+;+>+,+'+5 )+!+~+{+]+^+/+(+_+:+",
"<+[+}+|+1+2+3+4+5+6+7+8+9+0+a+b+c+d+e+f+g+h+i+j+k+l+s m+n+o+p+q+",
"r+s+t+u+v+w+x+y+z+A+B+C+D+n E+F+G+H+I+J+K+L+M+N+O+P+Q+R+S+T+U+V+",
"W+X+Y+Z+`+ @.@+@@@#@$@%@&@*@=@-@;@>@,@'@)@!@~@{@;@]@^@/@(@_@:@<@",
"[@}@|@1@2@3@4@5@+@6@7@8@9@0@a@b@c@d@e@f@g@h@i@j@k@l@m@n@o@p@}@q@",
"r@s@t@u@v@w@x@y@z@A@B@C@D@E@F@G@H@I@J@K@L@M@N@O@P@Q@R@S@T@U@V@W@",
"X@Y@Z@`@ #.#+#@###$#%#&#*#=#-#;#>#,#'#)#!#~#{#]#^#/#(#_#:#<#[#}#",
"|#1#2#3#4#5#{ 6#7#8#9#0#a#b#c#d#e#f#g#h#i#j#k#l#m#n#o#p#q#r#s#t#",
"u#v#w#x#y#z#A#B#C#D#>+E#F#G#H#I#J#K#^#L#M#N#O#P#Q#R#S#T#U#V#W#X#",
"Y#Z#`# $.$9.+$@$#$$$%$&$*$=$-$;$>$,$'$)$!$~${$]$^$/$($_$:$<$[$}$",
"|$1$2$3$4$5$6$[.7$8$9$0$a$< b$c$d$e$f$g$h$i$j$D+k$l$m$n$o$p$q$r$",
"s$t$u$v$w$x$n y$z$A$B$9.^ C$D$E$& F$G$H$I$J$K$| %..#L$M$N$O$P$Q$",
"R$S$T$U$V$W$X$Y$Z$u `$ %.%+%@%@ #%$%%%&%%.*%=%-%;%s >%,%'%)%!%~%",
"{%]%^%/%(%_%:%<%[%}%|%1%0.2%9.3%4%$ 5%&%6%7%8%9%n.u 0%a%b%c%d%e%",
"f%g%h%i%j%k%l%m%n%o%p%q%r%s%t%u%v%{ w%x%y%z%A%B%^.C%D%E%F%G%H%I%",
"J%K%L%M%N%O%P%Q%R%S%T%U%V%W%g.X%Y%Z%`% &.&+&@&#&$&%&&&*&=&-&;&>&",
",&'&)&!&~&1%{&]&^&/&(&_&:&<&[&}&|&1&2&3&4&5&6&7&8&9&0&a&b&c&d&e&",
"f&g&h&i&j&k&l&m&n&o&p&q&r&s&t&u&v&w&x&y&z&A&B&C&D&E&F&G&H&I&J&K&",
"L&M&N&O&P&Q&R&S&T&U&V&W&X&Y&Z&`& *.*+*@*#*$*%*&***=*-*;*>*,*9.'*",
")*!*~*$*{*]*^*/*(*_*:*<*[*}*|*1*2*3*4*5*6*7*8*9*0*w.a*b*c*d*e*U ",
"f*g*h*i*j*k*l*m*n*o*p*q*r*s*t*u*v*w*x*y*z*A*B*C*D*E*F*G*5 H*.%I*",
"J*K*L*M*N*O*P*Q*R*S*T*U*V*D*W*X*Y*Z*`* =.=+=@=#=$=%=&=*===-=;=>=",
",='=)=!=~={=]=^=/=(=_=:=<=[=}=|=1=2=m%X&3=4=5=6=7=8=} n 9=0=a=a=",
"c$p b=9.9.c=d=e=f=g=h=i=j=k=l=m=n=s o=-%p=q=r=s=t=]$n u=^ ^ < v=",
"w=x=y=z=A=B=/ ( n C=]$D=E=F=G=H=I=3=J=`%K=L=M=N=O=P=Q=( R=J*S=n ",
"T=U=V=W=X=b$Y=Z=a$`=&% -[..-+-@-#-$-%-&-*-=---9.;-6 #%>-,-'-S=)-"};
