/* XPM */
static const char * info_xpm[] = {
"32 32 396 2",
"  	c None",
". 	c #5172C0",
"+ 	c #5678C2",
"@ 	c #5778C2",
"# 	c #5273BF",
"$ 	c #4568B7",
"% 	c #4D6EBD",
"& 	c #5D7DC7",
"* 	c #7190D2",
"= 	c #7F9DDB",
"- 	c #8AA7E1",
"; 	c #8FACE4",
"> 	c #90AEE5",
", 	c #8EABE3",
"' 	c #85A3DD",
") 	c #7594D4",
"! 	c #6181C7",
"~ 	c #4468B6",
"{ 	c #5373C1",
"] 	c #5C7CC6",
"^ 	c #7F9DDA",
"/ 	c #98B4EA",
"( 	c #A4C0F1",
"_ 	c #ADC8F6",
": 	c #B0CBF8",
"< 	c #B1CCF9",
"[ 	c #B3CEF9",
"} 	c #B5CFFA",
"| 	c #B6D1FB",
"1 	c #B1CCF8",
"2 	c #A7C2F1",
"3 	c #90AEE4",
"4 	c #6081C6",
"5 	c #4467B3",
"6 	c #5778C4",
"7 	c #6A89CF",
"8 	c #97B4EA",
"9 	c #A4C0F2",
"0 	c #A7C3F3",
"a 	c #A8C4F4",
"b 	c #AAC5F5",
"c 	c #ABC6F5",
"d 	c #ACC7F6",
"e 	c #AFCAF7",
"f 	c #B2CDF9",
"g 	c #B4CFF9",
"h 	c #B4CFFA",
"i 	c #B1CBF8",
"j 	c #81A0DA",
"k 	c #4468B5",
"l 	c #5979C5",
"m 	c #708ED2",
"n 	c #9FBCEF",
"o 	c #A1BDF0",
"p 	c #A2BEF0",
"q 	c #A4BFF1",
"r 	c #A5C0F2",
"s 	c #A7C2F3",
"t 	c #ADC8F4",
"u 	c #B1CBF6",
"v 	c #ADC8F5",
"w 	c #B8D2FC",
"x 	c #96B3E7",
"y 	c #4367B5",
"z 	c #6880B5",
"A 	c #5878C4",
"B 	c #6E8ED2",
"C 	c #9EBBEF",
"D 	c #9DB9EE",
"E 	c #A0BCEF",
"F 	c #BED2F6",
"G 	c #FCFDFE",
"H 	c #FFFFFF",
"I 	c #DEE9FB",
"J 	c #AEC8F6",
"K 	c #ACC7F5",
"L 	c #AEC9F7",
"M 	c #B2CCF8",
"N 	c #B7D1FC",
"O 	c #98B5E9",
"P 	c #4468B4",
"Q 	c #5676C3",
"R 	c #6887CE",
"S 	c #98B4EB",
"T 	c #98B5EB",
"U 	c #9AB6EC",
"V 	c #9BB7ED",
"W 	c #9CB8EE",
"X 	c #9EBAEE",
"Y 	c #9FBBEF",
"Z 	c #A4BFF0",
"` 	c #E6EDFB",
" .	c #FEFEFE",
"..	c #B6CDF5",
"+.	c #A9C4F4",
"@.	c #AAC6F5",
"#.	c #AECAF7",
"$.	c #AFCAF8",
"%.	c #88A6DE",
"&.	c #4668B1",
"*.	c #5D7CC7",
"=.	c #89A7E3",
"-.	c #94B1EA",
";.	c #95B2EA",
">.	c #97B3EB",
",.	c #A1BCEF",
"'.	c #DEE7FA",
").	c #B2CAF4",
"!.	c #A6C1F3",
"~.	c #AAC5F4",
"{.	c #AEC9F6",
"].	c #6889CB",
"^.	c #5571AE",
"/.	c #5474C2",
"(.	c #7392D6",
"_.	c #8FACE7",
":.	c #91AEE8",
"<.	c #92AFE9",
"[.	c #94B0E9",
"}.	c #98B4EC",
"|.	c #9AB5EC",
"1.	c #9BB8ED",
"2.	c #AFC6F0",
"3.	c #E2EBFA",
"4.	c #EEF2FC",
"5.	c #C9D9F6",
"6.	c #A3BEF0",
"7.	c #A3BFF1",
"8.	c #A6C2F2",
"9.	c #ABC7F5",
"0.	c #94B1E7",
"a.	c #5272B5",
"b.	c #5E7DC8",
"c.	c #819FDE",
"d.	c #8DAAE6",
"e.	c #8EABE7",
"f.	c #92AFE8",
"g.	c #94B1E9",
"h.	c #96B3EB",
"i.	c #A1BCEE",
"j.	c #A5BFEF",
"k.	c #9FBBEE",
"l.	c #A0BCF0",
"m.	c #A3BEF1",
"n.	c #A6C1F2",
"o.	c #6384C8",
"p.	c #6C82B0",
"q.	c #6887CF",
"r.	c #85A2E1",
"s.	c #8AA8E5",
"t.	c #8BA9E5",
"u.	c #90ADE8",
"v.	c #93B0E9",
"w.	c #95B3EB",
"x.	c #97B4EC",
"y.	c #98B5EC",
"z.	c #9DBAEE",
"A.	c #A2BEF1",
"B.	c #7A9AD7",
"C.	c #5C78B1",
"D.	c #6E8DD2",
"E.	c #85A3E2",
"F.	c #87A4E2",
"G.	c #88A6E3",
"H.	c #89A7E4",
"I.	c #8CAAE5",
"J.	c #91ADE8",
"K.	c #F4F7FD",
"L.	c #F7F9FE",
"M.	c #F7F9FD",
"N.	c #FDFEFE",
"O.	c #AFC5F0",
"P.	c #A3BFF2",
"Q.	c #A8C2F4",
"R.	c #8AA8E1",
"S.	c #5977B7",
"T.	c #7190D5",
"U.	c #84A2E2",
"V.	c #84A2E1",
"W.	c #86A4E2",
"X.	c #88A5E4",
"Y.	c #8EABE5",
"Z.	c #DEE7F8",
"`.	c #E2EAF9",
" +	c #F9FAFE",
".+	c #97B4EB",
"++	c #9AB6ED",
"@+	c #94B1E8",
"#+	c #5375BA",
"$+	c #99A3B8",
"%+	c #597AC5",
"&+	c #708FD5",
"*+	c #809FDF",
"=+	c #819FE0",
"-+	c #82A0E0",
";+	c #83A1E1",
">+	c #86A4E3",
",+	c #88A5E3",
"'+	c #89A6E4",
")+	c #83A3E3",
"!+	c #E5ECF9",
"~+	c #ADC3EE",
"{+	c #94B0EA",
"]+	c #96B2EA",
"^+	c #9CB9EE",
"/+	c #97B5EA",
"(+	c #4E72BA",
"_+	c #6F8ED4",
":+	c #7D9CDE",
"<+	c #7E9CDE",
"[+	c #7F9DDF",
"}+	c #819FDF",
"|+	c #E6EDF9",
"1+	c #AAC1ED",
"2+	c #99B6EC",
"3+	c #96B3E9",
"4+	c #4C70BA",
"5+	c #9AA3B8",
"6+	c #5777C3",
"7+	c #6B8BD2",
"8+	c #7A99DD",
"9+	c #7B99DD",
"0+	c #7C9BDE",
"a+	c #819EDF",
"b+	c #82A0E1",
"c+	c #8CA8E3",
"d+	c #A8BFEC",
"e+	c #93B0E8",
"f+	c #8FADE6",
"g+	c #4D71B8",
"h+	c #9DA6B9",
"i+	c #5273C0",
"j+	c #6686CF",
"k+	c #7796DB",
"l+	c #7897DC",
"m+	c #7998DC",
"n+	c #7C9ADD",
"o+	c #7E9DDF",
"p+	c #89A5E2",
"q+	c #E5EBF9",
"r+	c #A5BCEA",
"s+	c #83A2DE",
"t+	c #5474B6",
"u+	c #A1A9B9",
"v+	c #5F80CA",
"w+	c #7392D8",
"x+	c #7594D9",
"y+	c #7695DA",
"z+	c #7897DB",
"A+	c #7A99DC",
"B+	c #7D9BDE",
"C+	c #7E9DDE",
"D+	c #85A3E1",
"E+	c #E4EAF8",
"F+	c #A3BAE9",
"G+	c #8AA8E4",
"H+	c #8EABE6",
"I+	c #90ADE7",
"J+	c #96B3EA",
"K+	c #7293D4",
"L+	c #5C78B2",
"M+	c #A9AFBB",
"N+	c #6C8CD4",
"O+	c #7291D8",
"P+	c #7392D9",
"Q+	c #7B99DC",
"R+	c #83A0DF",
"S+	c #A1B8E8",
"T+	c #8AA7E4",
"U+	c #90AEE8",
"V+	c #5C80C7",
"W+	c #6E84AF",
"X+	c #5272BE",
"Y+	c #6484CF",
"Z+	c #6F8FD7",
"`+	c #7090D7",
" @	c #7593D9",
".@	c #7E9CDD",
"+@	c #E3E9F7",
"@@	c #9EB5E7",
"#@	c #87A4E3",
"$@	c #8BA8E5",
"%@	c #8CAAE6",
"&@	c #81A0DF",
"*@	c #4E6FB6",
"=@	c #8F9CB5",
"-@	c #6A8AD4",
";@	c #6D8DD6",
">@	c #6F8ED7",
",@	c #708FD7",
"'@	c #7191D8",
")@	c #7594DA",
"!@	c #8CA5E0",
"~@	c #93ACE2",
"{@	c #E7ECF9",
"]@	c #ACC0EA",
"^@	c #94ADE4",
"/@	c #8AA6E2",
"(@	c #6486CC",
"_@	c #5B75AD",
":@	c #B3B6BD",
"<@	c #5172BC",
"[@	c #5C7EC9",
"}@	c #6B8BD5",
"|@	c #6C8BD5",
"1@	c #6F8ED6",
"2@	c #7493D8",
"3@	c #E5EBF8",
"4@	c #E9EEF9",
"5@	c #FAFBFD",
"6@	c #EEF2FB",
"7@	c #E8EDF9",
"8@	c #B1C3EB",
"9@	c #7A9ADE",
"0@	c #7B9BDC",
"a@	c #4466AE",
"b@	c #8D9BB6",
"c@	c #4D6FBC",
"d@	c #6081CD",
"e@	c #6A8AD5",
"f@	c #6C8CD5",
"g@	c #7190D7",
"h@	c #BDCCEE",
"i@	c #7696DB",
"j@	c #7F9EDF",
"k@	c #4469B5",
"l@	c #6980B0",
"m@	c #C5C3C0",
"n@	c #4B6EBB",
"o@	c #6988D3",
"p@	c #6988D4",
"q@	c #6C8BD4",
"r@	c #7391D7",
"s@	c #7795D9",
"t@	c #7896DA",
"u@	c #7997DB",
"v@	c #7A98DC",
"w@	c #7D99DC",
"x@	c #7D9ADD",
"y@	c #456AB6",
"z@	c #5371AC",
"A@	c #C2C1BF",
"B@	c #6F86BA",
"C@	c #4B6DBA",
"D@	c #5B7DC9",
"E@	c #6686D2",
"F@	c #6787D3",
"G@	c #6B8BD4",
"H@	c #6C8CD6",
"I@	c #6E8DD6",
"J@	c #7896DB",
"K@	c #7090D6",
"L@	c #4367B4",
"M@	c #5371AD",
"N@	c #BFBFBF",
"O@	c #5171B8",
"P@	c #5375C1",
"Q@	c #5E7FCC",
"R@	c #6585D1",
"S@	c #6888D3",
"T@	c #6A89D4",
"U@	c #6E8ED7",
"V@	c #597BC7",
"W@	c #4466AF",
"X@	c #6A81B0",
"Y@	c #C1C1C0",
"Z@	c #627DB6",
"`@	c #5373B8",
" #	c #4E71BF",
".#	c #5578C6",
"+#	c #5B7DCA",
"@#	c #6182CE",
"##	c #6485D0",
"$#	c #6686D1",
"%#	c #6182CD",
"&#	c #597DC9",
"*#	c #4E72C0",
"=#	c #4A6CB5",
"-#	c #5C77AF",
";#	c #8F9CB7",
">#	c #758AB7",
",#	c #637DB6",
"'#	c #5675B7",
")#	c #4C6EB8",
"!#	c #4669B7",
"~#	c #4468B7",
"{#	c #476AB6",
"]#	c #5070B5",
"^#	c #5E7AB4",
"/#	c #7388B2",
"(#	c #919DB7",
"_#	c #9CA6BA",
":#	c #9DA6BA",
"<#	c #9FA7BA",
"[#	c #A3ABBA",
"}#	c #ABB0BC",
"                                                                ",
"                                                                ",
"                            . + @ # $                           ",
"                    % & * = - ; > , ' ) ! ~                     ",
"                { ] ^ / ( _ : < [ } | 1 2 3 4 5                 ",
"              6 7 8 9 0 a b c d _ e 1 f g h i j k               ",
"            l m n o p q r s a t u v _ e i f [ w x y z           ",
"          A B C D C E o p 9 F G H I J K _ L : M N O P           ",
"        Q R S T U V W X Y Z ` H  .H ..+.@.K _ #.$.} %.&.        ",
"        *.=.-.;.>.T U V W ,.'.H H H ).!.0 +.~.K _ #.{.].^.      ",
"      /.(._.:.<.[.;.>.}.|.1.2.3.4.5.6.7.9 8.0 +.b 9._ 0.a.      ",
"      b.c.d.e._.:.f.g.;.h.S U i.j.k.Y l.o m.r n.0 a b n.o.p.    ",
"      q.r.s.t.d.e._.u.f.<.v.-.w.x.y.V z.Y l.o A.q !.s 9.B.C.    ",
"      D.E.F.G.H.t.I.d.J.K.L.M.M.M.N.O.U V D C E o p P.Q.R.S.    ",
"    A T.U.V.E.W.X.H.s.Y.Z.`. +H H H O..+T ++V D X E o 7.@+#+$+  ",
"    %+&+*+=+-+;+E.>+,+'+)+s.!+H H H ~+{+]+.+y.++1.^+X l./+(+$+  ",
"    l _+:+<+[+}+-+;+E.W.,+Y.|+H H H 1+:.v.g.;.>.y.2+1.D 3+4+5+  ",
"    6+7+8+9+0+:+[+a+b+;+U.c+!+H H H d+e._.:.e+-.;.h.S ++f+g+h+  ",
"    i+j+k+l+m+9+n+:+o+*+-+p+q+H H H r+s.d.e._.u.f.-.;.}.s+t+u+  ",
"      v+w+x+y+z+m+A+n+B+C+D+E+H H H F+,+G+t.I.H+_.I+f.J+K+L+M+  ",
"      %+N+O+P+x+y+k+m+Q+n+R+E+H H H S+E.W.X.T+t.I.H+_.U+V+W+    ",
"      X+Y+Z+`+O+P+ @y+k+k+.@+@H H H @@*+;+E.#@,+'+$@%@&@*@=@    ",
"        6+-@;@>@,@'@P+)@!@~@{@H H H ]@^@/@-+;+E.W.,+'+(@_@:@    ",
"        <@[@}@|@;@1@>@2@3@4@5@H H H 6@7@8@9@}+b+;+E.0@a@b@      ",
"          c@d@e@-@}@f@g@H H H H H H H H h@i@<+j@=+b+k@l@m@      ",
"            n@d@o@p@-@q@r@2@x+s@t@u@v@w@Q+m+9+x@:+y@z@A@        ",
"            B@C@D@E@F@o@-@G@H@I@Z+g@O+P+)@k+J@K@L@M@N@          ",
"                O@P@Q@R@S@p@T@}@;@U@,@O+O+G@V@W@X@Y@            ",
"                  Z@`@ #.#+#@###$#R@%#&#*#=#-#;#m@              ",
"                      >#,#'#)#!#~#{#]#^#/#(#:@                  ",
"                            _#_#:#<#[#}#                        ",
"                                                                "};
