/* XPM */
static char * Ld_xpm[] = {
"32 32 451 2",
"  	c #FFFFFF",
". 	c #FEFEFE",
"+ 	c #FDFDFF",
"@ 	c #FDFDFD",
"# 	c #FFFFFD",
"$ 	c #FFFFFB",
"% 	c #FFFEFF",
"& 	c #FEFFF5",
"* 	c #FFFCFD",
"= 	c #FFFDFF",
"- 	c #FBFFFF",
"; 	c #FBFBFB",
"> 	c #FCFFFB",
", 	c #FFFCFF",
"' 	c #FFFEFB",
") 	c #FCFFFF",
"! 	c #FCFFFD",
"~ 	c #FFFBF8",
"{ 	c #FEFEFF",
"] 	c #FBFFFE",
"^ 	c #FFFCF9",
"/ 	c #FEFDFF",
"( 	c #FCFCFE",
"_ 	c #FEFFFF",
": 	c #FEFDF9",
"< 	c #FEFFFD",
"[ 	c #FBFCF6",
"} 	c #E6F1E9",
"| 	c #93AB79",
"1 	c #E4EFDE",
"2 	c #FCFFF1",
"3 	c #FEFEFC",
"4 	c #FDFDFB",
"5 	c #FFFFF8",
"6 	c #A9B88D",
"7 	c #406805",
"8 	c #649C15",
"9 	c #366201",
"0 	c #B4C4A9",
"a 	c #FCFEFD",
"b 	c #FFFFFA",
"c 	c #FBFCF4",
"d 	c #99B386",
"e 	c #547C0C",
"f 	c #ACE608",
"g 	c #77AA33",
"h 	c #3C7D07",
"i 	c #316900",
"j 	c #AEC39A",
"k 	c #F8FCFB",
"l 	c #A3A598",
"m 	c #4E8800",
"n 	c #9DDB16",
"o 	c #73A52C",
"p 	c #629721",
"q 	c #67A52A",
"r 	c #549908",
"s 	c #3C7001",
"t 	c #A3B58F",
"u 	c #FDFFFA",
"v 	c #FCFCFA",
"w 	c #9EB889",
"x 	c #539902",
"y 	c #8DD624",
"z 	c #6FAD24",
"A 	c #5E9D0E",
"B 	c #529200",
"C 	c #63A01E",
"D 	c #69AD26",
"E 	c #65AC12",
"F 	c #3B7600",
"G 	c #C8D0C3",
"H 	c #FBFFF9",
"I 	c #FEFFFA",
"J 	c #FFFDFE",
"K 	c #FFFBFD",
"L 	c #FFFAF5",
"M 	c #FDFBFC",
"N 	c #FFFBFF",
"O 	c #FEFFF9",
"P 	c #FFFDFC",
"Q 	c #FBFBFF",
"R 	c #FAFFFA",
"S 	c #F9FEF7",
"T 	c #3C5F03",
"U 	c #86CB32",
"V 	c #77B923",
"W 	c #67B416",
"X 	c #58A904",
"Y 	c #58A700",
"Z 	c #5BA900",
"` 	c #70B315",
" .	c #77B71B",
"..	c #68B50F",
"+.	c #718645",
"@.	c #BCBA7D",
"#.	c #AF965D",
"$.	c #B4975B",
"%.	c #AF9558",
"&.	c #AE9457",
"*.	c #B09757",
"=.	c #AD9855",
"-.	c #B3A076",
";.	c #DDD4B5",
">.	c #FFFEF9",
",.	c #FAFEFF",
"'.	c #FDFFFC",
").	c #FFFEFD",
"!.	c #A1B28E",
"~.	c #527125",
"{.	c #407E03",
"].	c #7DC823",
"^.	c #62B701",
"/.	c #61BB03",
"(.	c #61B700",
"_.	c #7AC522",
":.	c #3A6E00",
"<.	c #5E7D2F",
"[.	c #8B7B2E",
"}.	c #CDBC76",
"|.	c #E6D496",
"1.	c #E6D69B",
"2.	c #E2D69A",
"3.	c #E3D99B",
"4.	c #E3D89A",
"5.	c #E8D59A",
"6.	c #E1CF91",
"7.	c #A2904E",
"8.	c #F1ECD9",
"9.	c #FFFDFA",
"0.	c #FBFFFA",
"a.	c #FCFFF8",
"b.	c #D7CEA7",
"c.	c #A09253",
"d.	c #3B7308",
"e.	c #89D22B",
"f.	c #6CC10B",
"g.	c #67C002",
"h.	c #6DC403",
"i.	c #81CF24",
"j.	c #3F5F00",
"k.	c #A08D49",
"l.	c #E9DEA6",
"m.	c #EEE6A5",
"n.	c #D6CD82",
"o.	c #DCCB7D",
"p.	c #DDCA7D",
"q.	c #D8C87A",
"r.	c #DDD280",
"s.	c #DACE7A",
"t.	c #F1EAB4",
"u.	c #BCA65B",
"v.	c #DBD0B0",
"w.	c #FFFCF6",
"x.	c #FDFFF9",
"y.	c #FDFEFF",
"z.	c #F9EEE8",
"A.	c #9E8A43",
"B.	c #E1D3A2",
"C.	c #426501",
"D.	c #88CA32",
"E.	c #66BA04",
"F.	c #67BF00",
"G.	c #64C100",
"H.	c #7ACB24",
"I.	c #395E00",
"J.	c #E5E4B6",
"K.	c #DADAA8",
"L.	c #A9A173",
"M.	c #A69770",
"N.	c #A49870",
"O.	c #A5A078",
"P.	c #A89F7E",
"Q.	c #A69A84",
"R.	c #A79B8B",
"S.	c #F0EDB8",
"T.	c #B9A25F",
"U.	c #E1D4B2",
"V.	c #FEFCFD",
"W.	c #FFFCFE",
"X.	c #DDC9B0",
"Y.	c #AB945E",
"Z.	c #A07A33",
"`.	c #9E7E35",
" +	c #957828",
".+	c #9C8134",
"++	c #9A7E2B",
"@+	c #9B7C2A",
"#+	c #9A7C34",
"$+	c #998129",
"%+	c #8E7729",
"&+	c #A78B64",
"*+	c #A4A3A9",
"=+	c #A7A5A8",
"-+	c #BCBBB7",
";+	c #BCBDB7",
">+	c #C3C4BF",
",+	c #C7C7C5",
"'+	c #D3D4CF",
")+	c #94958D",
"!+	c #F3E5A8",
"~+	c #B9A55C",
"{+	c #D9CEB2",
"]+	c #B09A60",
"^+	c #E6E0BE",
"/+	c #FCF9D6",
"(+	c #FDF8DA",
"_+	c #F4F8D3",
":+	c #FCF3D6",
"<+	c #FBF5D1",
"[+	c #F9F5C8",
"}+	c #FFF6C5",
"|+	c #FEF1C4",
"1+	c #EAE0AB",
"2+	c #BEAF76",
"3+	c #AA935F",
"4+	c #B4A878",
"5+	c #BAB28B",
"6+	c #BEB093",
"7+	c #BBAC8F",
"8+	c #BDB090",
"9+	c #BCB28E",
"0+	c #8F825F",
"a+	c #CCB778",
"b+	c #A9954C",
"c+	c #D2C29E",
"d+	c #FDFFFE",
"e+	c #FEFFF8",
"f+	c #BA9E6F",
"g+	c #E4DAB7",
"h+	c #F1F2D0",
"i+	c #F7F2C8",
"j+	c #F4ECBB",
"k+	c #F5F1C2",
"l+	c #F5EFB5",
"m+	c #F6E7AC",
"n+	c #F6E7A2",
"o+	c #F2E2A4",
"p+	c #EDDF98",
"q+	c #EFE29C",
"r+	c #E1CD9B",
"s+	c #C6AF7D",
"t+	c #C5AE78",
"u+	c #C2AD74",
"v+	c #C4AF76",
"w+	c #C4AE75",
"x+	c #C7AE78",
"y+	c #C2AB75",
"z+	c #C6AD75",
"A+	c #AF945D",
"B+	c #E1D6B8",
"C+	c #FBFFFC",
"D+	c #FFFEFA",
"E+	c #C8B894",
"F+	c #D3C294",
"G+	c #F6EDC6",
"H+	c #F3F1C1",
"I+	c #F0EAB6",
"J+	c #F4EAB5",
"K+	c #F3E7AD",
"L+	c #F2E4A5",
"M+	c #F2E49D",
"N+	c #EFDF92",
"O+	c #EBD987",
"P+	c #EED885",
"Q+	c #EED585",
"R+	c #EED583",
"S+	c #EFD580",
"T+	c #EED47D",
"U+	c #ECD176",
"V+	c #ECCF73",
"W+	c #ECCF71",
"X+	c #ECCF69",
"Y+	c #E9CB6B",
"Z+	c #E8DAC0",
"`+	c #BCA772",
" @	c #D6CBAD",
".@	c #C8B37E",
"+@	c #F6EAC4",
"@@	c #EFEDBC",
"#@	c #EAE6B6",
"$@	c #EEE6B5",
"%@	c #EEE2AE",
"&@	c #EBDFA3",
"*@	c #ECDE9D",
"=@	c #E8DA93",
"-@	c #E5D387",
";@	c #E5D285",
">@	c #E5CB74",
",@	c #E4CB71",
"'@	c #E3C86D",
")@	c #E0C667",
"!@	c #DFC360",
"~@	c #DFC25E",
"{@	c #DFC25C",
"]@	c #DDC05A",
"^@	c #DFC266",
"/@	c #D5C39F",
"(@	c #C8B58A",
"_@	c #E8E1CF",
":@	c #B29957",
"<@	c #F1E5BD",
"[@	c #ECE6B4",
"}@	c #E7E2AA",
"|@	c #EAE1A8",
"1@	c #E9DDA1",
"2@	c #E8DA99",
"3@	c #E6DA92",
"4@	c #E2D587",
"5@	c #E0CF7F",
"6@	c #E2CD7C",
"7@	c #E2C770",
"8@	c #E2C46C",
"9@	c #DFC167",
"0@	c #DBBE60",
"a@	c #DABC5C",
"b@	c #DBBA59",
"c@	c #DBBB58",
"d@	c #DCBC59",
"e@	c #DEBE5B",
"f@	c #E1C770",
"g@	c #C1AC75",
"h@	c #DCCFAF",
"i@	c #FEFDFB",
"j@	c #FCFEFB",
"k@	c #F8F8F0",
"l@	c #A78B42",
"m@	c #ECDFB3",
"n@	c #E9E0A9",
"o@	c #E5D99D",
"p@	c #E7D99C",
"q@	c #E5D393",
"r@	c #E2CF8B",
"s@	c #DECC82",
"t@	c #D9C679",
"u@	c #D7C070",
"v@	c #D7BE6C",
"w@	c #D8BE61",
"x@	c #D9BC5E",
"y@	c #D7BB5A",
"z@	c #D5B956",
"A@	c #D5B854",
"B@	c #D5B852",
"C@	c #D6B651",
"D@	c #D7B754",
"E@	c #DFC674",
"F@	c #AC954F",
"G@	c #EFE8D6",
"H@	c #A48944",
"I@	c #DBCB97",
"J@	c #DACF91",
"K@	c #D3C57C",
"L@	c #D5C57A",
"M@	c #D5C276",
"N@	c #D3C071",
"O@	c #D2C06C",
"P@	c #D1BD66",
"Q@	c #CFBA61",
"R@	c #D1B85E",
"S@	c #D2B85B",
"T@	c #D1B758",
"U@	c #D0B657",
"V@	c #CFB554",
"W@	c #D2B653",
"X@	c #D1B552",
"Y@	c #D0B451",
"Z@	c #D4B656",
"`@	c #D9C070",
" #	c #A3893F",
".#	c #FBF6F0",
"+#	c #B39A61",
"@#	c #CBB778",
"##	c #DAC886",
"$#	c #D4C67D",
"%#	c #D6C57D",
"&#	c #D6C47A",
"*#	c #D6C376",
"=#	c #D6C374",
"-#	c #D5C371",
";#	c #D6C16E",
">#	c #D9C06C",
",#	c #D8BE67",
"'#	c #D7BE64",
")#	c #D5BC62",
"!#	c #D5BC60",
"~#	c #D6BB60",
"{#	c #D5BA5F",
"]#	c #D3B869",
"^#	c #A78E4B",
"/#	c #FFFCFB",
"(#	c #C5B287",
"_#	c #B59F54",
":#	c #D2C078",
"<#	c #CBBB6D",
"[#	c #CBBA6C",
"}#	c #CBB869",
"|#	c #CDB867",
"1#	c #CAB864",
"2#	c #CCB862",
"3#	c #CCB660",
"4#	c #CDB55F",
"5#	c #CEB559",
"6#	c #CDB457",
"7#	c #CDB356",
"8#	c #CCB255",
"9#	c #CCB253",
"0#	c #CBB154",
"a#	c #CDB257",
"b#	c #BE9E51",
"c#	c #B49B63",
"d#	c #FEFFFB",
"e#	c #D8CAA7",
"f#	c #A88F3D",
"g#	c #C9B66A",
"h#	c #C8B566",
"i#	c #C9B465",
"j#	c #CBB262",
"k#	c #C9B05E",
"l#	c #C8AF5D",
"m#	c #C7AE5A",
"n#	c #C7AD58",
"o#	c #C7AB57",
"p#	c #C4A952",
"q#	c #C4A950",
"r#	c #C3A84F",
"s#	c #C4A64E",
"t#	c #C3A54D",
"u#	c #C3A54F",
"v#	c #C1A64B",
"w#	c #AF8B3D",
"x#	c #BEA879",
"y#	c #F9FFFF",
"z#	c #FFF8F0",
"A#	c #A58E64",
"B#	c #9A7E35",
"C#	c #9B7B30",
"D#	c #997D34",
"E#	c #9E875D",
"F#	c #C2B5AC",
"G#	c #F8F7FC",
"H#	c #FBFFFB",
"I#	c #FFFCF3",
"J#	c #FFFEFC",
"K#	c #FFFDF4",
"L#	c #FFFDF8",
"M#	c #FDFCF8",
"N#	c #FDFEF9",
"O#	c #FBFDFA",
"P#	c #FBFAFF",
"Q#	c #FEFCFF",
"R#	c #F9FEFA",
"                                                                ",
".     +   @ # $     % &   * = -                                 ",
"  ;     .     # > , ' # # ) ! ~                                 ",
"      . @     { # - ] = ^ %   %                                 ",
"+   .     . {   / - ( = % _ : /                                 ",
"  . @         { < [ } | 1 2 < #                                 ",
"@     .   3 4 $ 5 6 7 8 9 0 a _                                 ",
"#     {   4 b c d e f g h i j k                                 ",
"$   {   { $ c l m n o p q r s t                                 ",
"_ u : = $ v w x y z A B C D E F G H I * *   J K L M % N $ O - P ",
"> # = Q R S T U V W X Y Z `  ...+.@.#.$.%.&.*.=.-.;.>.,.% % u % ",
"'.] % ).= ) !.~.{.].^./.(._.:.<.[.}.|.1.2.3.4.5.6.7.8.) 9.%     ",
"* ) 0.) a.$ b.c.d.e.f.g.h.i.j.k.l.m.n.o.p.q.r.s.t.u.v.% w.  { x.",
"% H , y.$ z.A.B.C.D.E.F.G.H.I.J.K.L.M.N.O.P.Q.R.S.T.U.V.= % { u ",
"< - = W.X.Y.Z.`. +.+++@+#+$+%+&+*+=+-+;+>+,+'+)+!+~+{+,.% N # # ",
". - % 9.]+^+/+(+_+:+<+[+}+|+1+2+3+4+5+6+7+8+9+0+a+b+c+5 d+,   # ",
"' ,   e+f+g+h+i+j+k+l+m+n+o+p+q+r+s+t+u+v+w+x+y+w+z+A+B+O $ C+_ ",
"_ J _ D+E+F+G+H+I+J+K+L+M+N+O+P+Q+R+S+T+U+V+W+W+X+Y+Z+`+3 _ )._ ",
"_ % _ $  @.@+@@@#@$@%@&@*@=@-@;@>@,@'@)@!@~@{@{@]@^@/@(@# _ ).  ",
"d+% { # _@:@<@[@}@|@1@2@3@4@5@6@7@8@9@0@a@b@c@d@e@f@g@h@i@_ J   ",
"j@% = # k@l@m@n@o@p@q@r@s@t@u@v@w@x@y@z@A@B@C@C@D@E@F@G@).      ",
"< % = . # H@I@J@K@L@M@N@O@P@Q@R@S@T@U@V@W@X@X@Y@Z@`@ #.#%   _   ",
"    % .   +#@###$#%#&#*#=#-#;#>#,#'#)#!#~#{#{#{#x@]#^#/#% . < { ",
"J _   . ~ (#_#:#<#[#}#|#1#2#3#4#5#6#7#8#9#0#0#0#a#b#c#%     d#  ",
"% ! a   D+e#f#g#h#i#j#k#l#m#n#o#p#q#r#r#r#s#t#u#v#w#x#% _   $ % ",
", # R y#% z#A#B#C#C#C#C#C#C#C#C#C#C#C#C#C#C#C#C#D#E#F#G#y#H## , ",
", % $ I # # >.I#J#J#J#J#J#J#J#J#J#J#J#J#J#J#J#J#K#L#M## N#J#J = ",
"< ( = = % O#! - # # # # # # # # # # # # # # # # - ! u J , = { < ",
"d#< a .   # /#).                                ).P J#    _ < d#",
"= ).$ '._ P#% =                                 , Q#% a '.3 % = ",
"% Q#  / _ _ '.j@_ _ _ _ _ _ _ _ _ _ _ _ _ _ _ _ u < _ y.% / Q#% ",
"C+! j@4 I # d+_ % % % % % % % % % % % % % % % % _ _ 3 $ # < R#! "};
