/* XPM */
static const char * LU_xpm[] = {
"32 32 445 2",
"  	c #000000",
". 	c #010101",
"+ 	c #000002",
"@ 	c #030303",
"# 	c #050409",
"$ 	c #000004",
"% 	c #040404",
"& 	c #000100",
"* 	c #010100",
"= 	c #020204",
"- 	c #040402",
"; 	c #020202",
"> 	c #040406",
", 	c #1B1A16",
"' 	c #151412",
") 	c #010000",
"! 	c #010002",
"~ 	c #010103",
"{ 	c #282722",
"] 	c #524F4A",
"^ 	c #060200",
"/ 	c #030102",
"( 	c #050304",
"_ 	c #161510",
": 	c #312E25",
"< 	c #767468",
"[ 	c #3A3730",
"} 	c #030200",
"| 	c #000201",
"1 	c #131210",
"2 	c #333029",
"3 	c #434031",
"4 	c #656253",
"5 	c #89857A",
"6 	c #0D0A05",
"7 	c #1D1C18",
"8 	c #454239",
"9 	c #514E3D",
"0 	c #5E5946",
"a 	c #9B9889",
"b 	c #4E4B44",
"c 	c #040605",
"d 	c #080808",
"e 	c #101010",
"f 	c #2D2C27",
"g 	c #504E42",
"h 	c #67624F",
"i 	c #67624C",
"j 	c #868070",
"k 	c #8F8C83",
"l 	c #010302",
"m 	c #030301",
"n 	c #010204",
"o 	c #000103",
"p 	c #12120A",
"q 	c #322F26",
"r 	c #4C4D3D",
"s 	c #615F50",
"t 	c #747160",
"u 	c #716C58",
"v 	c #827D69",
"w 	c #B2AF9E",
"x 	c #17140D",
"y 	c #020001",
"z 	c #0C0C0A",
"A 	c #23221D",
"B 	c #37342B",
"C 	c #444035",
"D 	c #454334",
"E 	c #595647",
"F 	c #706A5A",
"G 	c #7C7763",
"H 	c #898470",
"I 	c #BAB7A6",
"J 	c #403D36",
"K 	c #0F0E0A",
"L 	c #2A2720",
"M 	c #3B372B",
"N 	c #494335",
"O 	c #504D3E",
"P 	c #605A4A",
"Q 	c #726B59",
"R 	c #827B68",
"S 	c #8E8872",
"T 	c #BEBBAA",
"U 	c #605D54",
"V 	c #060608",
"W 	c #050400",
"X 	c #24211A",
"Y 	c #3B372C",
"Z 	c #433D2F",
"` 	c #504939",
" .	c #655E4E",
"..	c #746B5A",
"+.	c #7D7560",
"@.	c #8D8771",
"#.	c #C1BEAB",
"$.	c #6F6C63",
"%.	c #0A0A08",
"&.	c #161511",
"*.	c #211E17",
"=.	c #363227",
"-.	c #4D4739",
";.	c #554F3F",
">.	c #5D5646",
",.	c #6B6454",
"'.	c #676050",
").	c #766D5C",
"!.	c #847C67",
"~.	c #918B75",
"{.	c #C3BEAB",
"].	c #79766D",
"^.	c #040301",
"/.	c #11100B",
"(.	c #34312A",
"_.	c #3F3B30",
":.	c #3F3C2D",
"<.	c #565042",
"[.	c #666050",
"}.	c #635D4F",
"|.	c #6B6557",
"1.	c #696252",
"2.	c #7D7664",
"3.	c #9E9683",
"4.	c #9E9882",
"5.	c #C7C1B1",
"6.	c #7F7C73",
"7.	c #191A12",
"8.	c #2D2D23",
"9.	c #4C4A3D",
"0.	c #5D5A49",
"a.	c #676453",
"b.	c #6A6758",
"c.	c #656155",
"d.	c #6D6759",
"e.	c #8E8777",
"f.	c #B2AB98",
"g.	c #AFA895",
"h.	c #D4CEBE",
"i.	c #76716B",
"j.	c #040000",
"k.	c #10100E",
"l.	c #20201E",
"m.	c #37372D",
"n.	c #525246",
"o.	c #666455",
"p.	c #6B6857",
"q.	c #6F6C5B",
"r.	c #615E4F",
"s.	c #525043",
"t.	c #605E52",
"u.	c #6D6B5C",
"v.	c #7B7869",
"w.	c #A29C8C",
"x.	c #B9B29F",
"y.	c #B8B19E",
"z.	c #DCD6C6",
"A.	c #5C5751",
"B.	c #030000",
"C.	c #020200",
"D.	c #0F0C05",
"E.	c #2B291D",
"F.	c #403E31",
"G.	c #575443",
"H.	c #615E4D",
"I.	c #666352",
"J.	c #6E6B5C",
"K.	c #6F6C5D",
"L.	c #605D4E",
"M.	c #5E5B4C",
"N.	c #6B675B",
"O.	c #6E6D5B",
"P.	c #817E6F",
"Q.	c #938D7F",
"R.	c #B0A999",
"S.	c #BFB8A6",
"T.	c #D9D3C3",
"U.	c #36332C",
"V.	c #12110C",
"W.	c #434134",
"X.	c #4E4C3D",
"Y.	c #656251",
"Z.	c #726F5E",
"`.	c #807D6C",
" +	c #636051",
".+	c #625F50",
"++	c #6B6A58",
"@+	c #706D5C",
"#+	c #A7A191",
"$+	c #B3AC9A",
"%+	c #BBB4A1",
"&+	c #C5C2B3",
"*+	c #060407",
"=+	c #080806",
"-+	c #0D0E09",
";+	c #22211C",
">+	c #454336",
",+	c #5A5748",
"'+	c #5F5C4B",
")+	c #6E6B5A",
"!+	c #757261",
"~+	c #888574",
"{+	c #989584",
"]+	c #777463",
"^+	c #696655",
"/+	c #6C6958",
"(+	c #6D6A59",
"_+	c #C6C1AE",
":+	c #B7B09D",
"<+	c #BBB6A2",
"[+	c #949084",
"}+	c #010005",
"|+	c #080703",
"1+	c #2B2B23",
"2+	c #3F3C33",
"3+	c #4A483B",
"4+	c #575445",
"5+	c #5A5744",
"6+	c #6C6A55",
"7+	c #75705D",
"8+	c #827D6A",
"9+	c #918C79",
"0+	c #8C8676",
"a+	c #7B7565",
"b+	c #6F6959",
"c+	c #797363",
"d+	c #7A7464",
"e+	c #767362",
"f+	c #8A8572",
"g+	c #CDC8B4",
"h+	c #9B9682",
"i+	c #B1AC99",
"j+	c #46433A",
"k+	c #040309",
"l+	c #050503",
"m+	c #1F1F17",
"n+	c #34342C",
"o+	c #47443B",
"p+	c #575548",
"q+	c #686552",
"r+	c #746F5B",
"s+	c #736E5A",
"t+	c #9B9683",
"u+	c #9A9582",
"v+	c #77725F",
"w+	c #7B7663",
"x+	c #A49F8C",
"y+	c #787360",
"z+	c #8E8976",
"A+	c #ACA793",
"B+	c #B0AB97",
"C+	c #928D7A",
"D+	c #989488",
"E+	c #080500",
"F+	c #010207",
"G+	c #13120D",
"H+	c #24231E",
"I+	c #49463D",
"J+	c #4A483C",
"K+	c #5E5C4F",
"L+	c #76715E",
"M+	c #706B57",
"N+	c #79725F",
"O+	c #928B79",
"P+	c #A8A18F",
"Q+	c #9E9785",
"R+	c #938C79",
"S+	c #9D9683",
"T+	c #A69F8C",
"U+	c #918A78",
"V+	c #BAB3A0",
"W+	c #B7B29F",
"X+	c #C1BEAF",
"Y+	c #030305",
"Z+	c #040203",
"`+	c #090806",
" @	c #191611",
".@	c #322F28",
"+@	c #48463A",
"@@	c #565447",
"#@	c #5A5849",
"$@	c #716E5B",
"%@	c #7C7764",
"&@	c #847D6B",
"*@	c #9C9583",
"=@	c #A39C89",
"-@	c #857E6B",
";@	c #837C69",
">@	c #AAA390",
",@	c #ACA592",
"'@	c #847E68",
")@	c #847D6A",
"!@	c #E2DCCC",
"~@	c #817D74",
"{@	c #060201",
"]@	c #020403",
"^@	c #050505",
"/@	c #131112",
"(@	c #292524",
"_@	c #403D38",
":@	c #534F46",
"<@	c #5D594D",
"[@	c #646253",
"}@	c #696758",
"|@	c #7B7867",
"1@	c #7F7A67",
"2@	c #908977",
"3@	c #968F7D",
"4@	c #A59E8E",
"5@	c #A09986",
"6@	c #89826F",
"7@	c #7E7764",
"8@	c #918A77",
"9@	c #B3AC99",
"0@	c #958F79",
"a@	c #857F69",
"b@	c #8B856F",
"c@	c #847C69",
"d@	c #CCC5B3",
"e@	c #AEA89A",
"f@	c #090400",
"g@	c #060105",
"h@	c #010006",
"i@	c #030504",
"j@	c #000200",
"k@	c #0B0A08",
"l@	c #404038",
"m@	c #444236",
"n@	c #4F4D40",
"o@	c #686254",
"p@	c #6E685A",
"q@	c #716F60",
"r@	c #716E5D",
"s@	c #8B8472",
"t@	c #A09987",
"u@	c #A19A87",
"v@	c #9A9380",
"w@	c #B4AE98",
"x@	c #AFA993",
"y@	c #938D77",
"z@	c #8C8670",
"A@	c #98927C",
"B@	c #C3BBB0",
"C@	c #B8B1A9",
"D@	c #1B1813",
"E@	c #363530",
"F@	c #7D7B6E",
"G@	c #706D5A",
"H@	c #7C7968",
"I@	c #817E6B",
"J@	c #8B8673",
"K@	c #8C8572",
"L@	c #8F8875",
"M@	c #99927F",
"N@	c #A19A88",
"O@	c #A7A08D",
"P@	c #B4AD9A",
"Q@	c #9F9885",
"R@	c #C1BAA8",
"S@	c #E3DCCC",
"T@	c #B0A99F",
"U@	c #17120C",
"V@	c #040300",
"W@	c #89867D",
"X@	c #9A9889",
"Y@	c #8F8D78",
"Z@	c #85836A",
"`@	c #8C8774",
" #	c #948F7C",
".#	c #A59E8B",
"+#	c #A8A18E",
"@#	c #A49D8A",
"##	c #AEA995",
"$#	c #AFAA96",
"%#	c #C9C4B0",
"&#	c #B3AE9A",
"*#	c #ABA693",
"=#	c #ABA595",
"-#	c #C2BCAE",
";#	c #EBE5D9",
">#	c #928B81",
",#	c #0A0702",
"'#	c #020100",
")#	c #0B090A",
"!#	c #0B0A06",
"~#	c #646158",
"{#	c #A9A798",
"]#	c #B4B39F",
"^#	c #A39D8D",
"/#	c #B1AA97",
"(#	c #B5B09D",
"_#	c #C8C3B0",
":#	c #DCD9C6",
"<#	c #D3D0BF",
"[#	c #D0CDBC",
"}#	c #DCD9CA",
"|#	c #D8D4C8",
"1#	c #B4B0A7",
"2#	c #4F4A44",
"3#	c #050000",
"4#	c #010200",
"5#	c #040207",
"6#	c #191512",
"7#	c #5E5B54",
"8#	c #9D998D",
"9#	c #B6B0A2",
"0#	c #C0BAAA",
"a#	c #BFB9A9",
"b#	c #C1BBAB",
"c#	c #CECBBC",
"d#	c #E1DECF",
"e#	c #F3EFE3",
"f#	c #E4E0D4",
"g#	c #D2D0C4",
"h#	c #9B988F",
"i#	c #4F4C45",
"j#	c #0F0C07",
"k#	c #050706",
"l#	c #060606",
"m#	c #09070C",
"n#	c #020005",
"o#	c #020003",
"p#	c #050200",
"q#	c #28251E",
"r#	c #4A473E",
"s#	c #68645B",
"t#	c #8A877E",
"u#	c #87847B",
"v#	c #7E7B72",
"w#	c #68655E",
"x#	c #45423B",
"y#	c #201D18",
"z#	c #090909",
"A#	c #070508",
"B#	c #070705",
"C#	c #030207",
"D#	c #030400",
"E#	c #000205",
"F#	c #030408",
"G#	c #070709",
"H#	c #070506",
"I#	c #080609",
"J#	c #040205",
"K#	c #08060B",
"L#	c #030406",
"                                . .             +   @ + # $ % & ",
"                                    . . . . . . + . *   + =   - ",
"                                    ; .         >   , ' ) !     ",
"                                ; .             ~ ) { ] ^ / @   ",
"                                .       .   . ; ( _ : < [ } @ | ",
"                                      . .       1 2 3 4 5 6 * + ",
"                                .     .       % 7 8 9 0 a b   c ",
"                                            d e f g h i j k & l ",
"                m           + ~     n o & & p q r s t u v w x y ",
"                      . . . ~ ~ %   + = z A B C D E F G H I J } ",
"                    .           + +     K L M N O P Q R S T U ) ",
"                  . .     . .   + V } W X Y Z ` P  ...+.@.#.$.* ",
"                          . .     %.&.*.=.-.;.>.,.'.).!.~.{.].^.",
"                      .         & /.(._.:.<.[.}.|.1.2.3.4.5.6.) ",
"                + + . .     m z 7.8.9.E 0.a.b.c.4 d.e.f.g.h.i.j.",
"                + +   ;   @ k.l.m.n.o.p.q.r.s.t.u.v.w.x.y.z.A.B.",
"~ +   .   ) ) / + n . C.} D.E.F.G.H.I.J.K.L.M.N.O.P.Q.R.S.T.U.) ",
"+         .     |     ) V.: W.X.Y.a.Z.`. +.+b.b.++@+#+$+%+&+6 *+",
"  ; ;     . ; |   =+-+;+B >+,+'+)+!+~+{+]+^+/+J.(+Z._+:+<+[+W }+",
"    .   + & & & & |+1+2+3+4+5+6+7+8+9+0+a+b+c+d+e+f+g+h+i+j+) k+",
".     ~ .   * l+m+n+o+p+r.q+r+s+8+t+u+v+w+t+x+y+z+A+B+C+D+E+. F+",
";         } G+H+I+J+K+r.q+L+M+N+O+P+Q+R+S+T+S+R+U+V+W+X+J ^.Y++ ",
"&     Z+`+ @.@+@@@#@a.$@y+%@&@U+*@=@-@;@>@,@S '@)@>@!@~@{@! ]@& ",
"l l ^@/@(@_@:@<@[@}@|@w+1@2@3@4@5@6@7@8@9@0@a@b@c@d@e@f@g@h@i@j@",
". k@l@m@n@.+o@p@q@r@`.f+s@s@U+t@u@v@0@w@x@y@z@A@B@C@D@C.l | .   ",
"@   E@6.F@p.G@v H@I@J@K@L@M@*@N@O@O@O@=@P@Q@R@S@T@U@V@  & .   ) ",
"    ) H+W@X@Y@Z@`@ #Q@.#+#.#@###$#%#&#*#=#-#;#>#,#'#l+| & ^@. Z+",
"*   )#) !#~#{#]#^#t@Q+O@/#$#(#_#:#<#[#}#|#1#2#3#m C.& & n     y ",
"4#  Y+5#! ) 6#7#8#9#-#0#a#b#c#d#e#f#g#h#i#j#) / & l & + k#  l#) ",
"&     $ m#n#! o#p#q#r#s#~@t#u#v#w#x#y#) '#) ^@= i@  ; ;     ;   ",
"  z#  %   ;   A#& m ) ) j.B.'#) '#'#'#'#B#@ + + ;   ;   ^@.   o ",
"C#+   4#& & D#  E#F#n G#H#Z+I#J#K#o#*+    & L#+ ) / / )   . + o "};
