/* XPM */
static char * ng_xpm[] = {
"32 32 365 2",
"  	c #F0F0EE",
". 	c #ECECEA",
"+ 	c #EDEEE9",
"@ 	c #F0F1EC",
"# 	c #EFF0EB",
"$ 	c #EEEEEC",
"% 	c #EFEFED",
"& 	c #EEEEEE",
"* 	c #F1F0EE",
"= 	c #F1F1EF",
"- 	c #EFF1EE",
"; 	c #F0F2EF",
"> 	c #EDEFEC",
", 	c #F3F5F2",
"' 	c #F1F3F0",
") 	c #F3F5F4",
"! 	c #F2F4F1",
"~ 	c #F1F3EE",
"{ 	c #F3F4EF",
"] 	c #F2F3EE",
"^ 	c #EEEFEA",
"/ 	c #EDEDED",
"( 	c #EDEDEB",
"_ 	c #EEF0EF",
": 	c #EDEFEE",
"< 	c #EEF0ED",
"[ 	c #EDEFEA",
"} 	c #F1F2ED",
"| 	c #F3F3F1",
"1 	c #ECEDE8",
"2 	c #EBECE7",
"3 	c #EFF1EC",
"4 	c #F0F2ED",
"5 	c #F2F4EF",
"6 	c #EFF1F0",
"7 	c #F0F2F1",
"8 	c #EAEBE6",
"9 	c #EBEDE8",
"0 	c #E9EBE6",
"a 	c #EAECE7",
"b 	c #F0F1F3",
"c 	c #F1F3F2",
"d 	c #E9EAE4",
"e 	c #E6E7E1",
"f 	c #E8E9E3",
"g 	c #E9ECE5",
"h 	c #E7EAE3",
"i 	c #E5E8E1",
"j 	c #E8EBE4",
"k 	c #ECEFE8",
"l 	c #E3E4DF",
"m 	c #E9EAE5",
"n 	c #F4F4F2",
"o 	c #F3F3F3",
"p 	c #EFEFEF",
"q 	c #EFF0F2",
"r 	c #EAEBE5",
"s 	c #E5E6E0",
"t 	c #E1E2DC",
"u 	c #DFE0DA",
"v 	c #DDDED8",
"w 	c #E0E1DB",
"x 	c #E3E6DF",
"y 	c #E4E7E0",
"z 	c #E2E5DE",
"A 	c #EFF0EA",
"B 	c #E9E9E7",
"C 	c #E0E0E0",
"D 	c #F2F2F0",
"E 	c #ECEDE7",
"F 	c #E1E2DA",
"G 	c #DFE0D8",
"H 	c #DBDCD4",
"I 	c #D6D7CF",
"J 	c #D4D5CD",
"K 	c #D7D8D0",
"L 	c #DADBD3",
"M 	c #D5D8CF",
"N 	c #CED1C8",
"O 	c #CFD0C8",
"P 	c #D8D9D1",
"Q 	c #E2E3DB",
"R 	c #E7E8E2",
"S 	c #EBECE6",
"T 	c #E5E6DE",
"U 	c #DDDED6",
"V 	c #D5D5CD",
"W 	c #DADAD2",
"X 	c #D1D2CA",
"Y 	c #D3D4CC",
"Z 	c #D7D9CE",
"` 	c #DADCD1",
" .	c #DEDFD7",
"..	c #E8EAE9",
"+.	c #ECEEEB",
"@.	c #ECEEE9",
"#.	c #E9EBE8",
"$.	c #EAEAE8",
"%.	c #E4E3DE",
"&.	c #D8D8D0",
"*.	c #D9D9CF",
"=.	c #D1D3C8",
"-.	c #D6D9D2",
";.	c #CDD0C9",
">.	c #CECFC9",
",.	c #D0D1C9",
"'.	c #D6D6CE",
").	c #D8D7D2",
"!.	c #DBDCD6",
"~.	c #DEE1DA",
"{.	c #E0E3DC",
"].	c #E3E5E0",
"^.	c #EEF0EB",
"/.	c #D6D6D4",
"(.	c #E8E8E6",
"_.	c #E8E9E4",
":.	c #E3E2DD",
"<.	c #D9D9D1",
"[.	c #D4D4CA",
"}.	c #CDCFCA",
"|.	c #BFC4BE",
"1.	c #C0C5BF",
"2.	c #C3C5C0",
"3.	c #CBCDC8",
"4.	c #D1D2CC",
"5.	c #D7D8D2",
"6.	c #D5D8D1",
"7.	c #DDDFDA",
"8.	c #E1E3DE",
"9.	c #E5E7E2",
"0.	c #EBEBE9",
"a.	c #E7E8E3",
"b.	c #E3E4DE",
"c.	c #D5D5CB",
"d.	c #CED1CA",
"e.	c #C4C9C5",
"f.	c #B7BDBB",
"g.	c #B6BFBE",
"h.	c #B4BDBC",
"i.	c #BCC5C4",
"j.	c #C7C9C4",
"k.	c #D1D3CE",
"l.	c #D4D6D1",
"m.	c #DCDED9",
"n.	c #E0E2DD",
"o.	c #DEE0DD",
"p.	c #E6E8E5",
"q.	c #EAECEB",
"r.	c #ECEEED",
"s.	c #E7E7E5",
"t.	c #E4E5DF",
"u.	c #DEDFD9",
"v.	c #D5D6CE",
"w.	c #CECFC7",
"x.	c #C8CDC7",
"y.	c #BCC2BE",
"z.	c #B1BAB9",
"A.	c #AEB9BB",
"B.	c #A6B4B7",
"C.	c #ACB9BF",
"D.	c #C1C7C5",
"E.	c #D0D5D1",
"F.	c #D5DAD4",
"G.	c #DDDFDC",
"H.	c #E5E7E6",
"I.	c #F5F7F6",
"J.	c #E6E7E2",
"K.	c #BBC1BF",
"L.	c #ADB7B8",
"M.	c #A3B1B4",
"N.	c #9CABB2",
"O.	c #9CADB5",
"P.	c #A6B0B1",
"Q.	c #AFB8B7",
"R.	c #C4CAC8",
"S.	c #D3D8D4",
"T.	c #DADCD9",
"U.	c #DFE1DE",
"V.	c #E2E4E3",
"W.	c #E1E3E2",
"X.	c #EBEDEC",
"Y.	c #F1F1F1",
"Z.	c #E5E6E1",
"`.	c #E2E3DE",
" +	c #DCDDD5",
".+	c #D3D6CF",
"++	c #CCD1CB",
"@+	c #BCC2C0",
"#+	c #A8B2B3",
"$+	c #98A5AB",
"%+	c #8FA0A8",
"&+	c #8496A0",
"*+	c #93A0A6",
"=+	c #A3AEB2",
"-+	c #B5BDBF",
";+	c #CACECD",
">+	c #D6D8D5",
",+	c #E1E3E0",
"'+	c #DFE1E0",
")+	c #E7E9E8",
"!+	c #E3E5E4",
"~+	c #CED0CF",
"{+	c #F2F0F1",
"]+	c #F0EFED",
"^+	c #E2E4DF",
"/+	c #DADDD4",
"(+	c #CFD1CC",
"_+	c #BEC4C2",
":+	c #A9B1B3",
"<+	c #929FA5",
"[+	c #84959D",
"}+	c #61737F",
"|+	c #6F7D86",
"1+	c #96A3AB",
"2+	c #A8B2B4",
"3+	c #D1D3D0",
"4+	c #D7D9D4",
"5+	c #E4E4E2",
"6+	c #DEDEDC",
"7+	c #E2E2E0",
"8+	c #F1EFF0",
"9+	c #DEE1D8",
"0+	c #DBDED7",
"a+	c #C7CCC8",
"b+	c #B3BBBD",
"c+	c #9CA7AB",
"d+	c #86949D",
"e+	c #4D5E68",
"f+	c #445461",
"g+	c #86939C",
"h+	c #9CA5AA",
"i+	c #AEB4B4",
"j+	c #CACCC9",
"k+	c #D2D4CF",
"l+	c #DEE0DB",
"m+	c #E3E3E1",
"n+	c #EFEEE9",
"o+	c #EDECE8",
"p+	c #DFE1DC",
"q+	c #DBDDD8",
"r+	c #B9BFBD",
"s+	c #919CA0",
"t+	c #768389",
"u+	c #67717B",
"v+	c #828B94",
"w+	c #9AA1A7",
"x+	c #A5AAAD",
"y+	c #BFC3C2",
"z+	c #CDCFCC",
"A+	c #D8DAD5",
"B+	c #F3F2ED",
"C+	c #C7C6C1",
"D+	c #B0AFAA",
"E+	c #F4F5F0",
"F+	c #E1E4DD",
"G+	c #DDE0D9",
"H+	c #B1BAB7",
"I+	c #9FA9AA",
"J+	c #919C9E",
"K+	c #838C95",
"L+	c #929BA2",
"M+	c #959DA0",
"N+	c #AAB0B0",
"O+	c #BDC1C0",
"P+	c #CED0CD",
"Q+	c #DFE0DB",
"R+	c #DFE2DB",
"S+	c #D8DBD4",
"T+	c #C1C6C2",
"U+	c #B4BAB8",
"V+	c #A4ADAC",
"W+	c #A0A8AB",
"X+	c #A0A8AA",
"Y+	c #939C9B",
"Z+	c #A9AFAD",
"`+	c #BABFBB",
" @	c #C5CAC4",
".@	c #D5D7D2",
"+@	c #E5E5E3",
"@@	c #F2F3F5",
"#@	c #F4F4F4",
"$@	c #E7E6E1",
"%@	c #DBDED5",
"&@	c #D4D7CE",
"*@	c #C3C6BF",
"=@	c #B5B7B2",
"-@	c #AAB0AE",
";@	c #ABB1AD",
">@	c #AFB5B1",
",@	c #B6BBB5",
"'@	c #D0D2CD",
")@	c #E4E3E1",
"!@	c #E4E5E7",
"~@	c #F1F2F4",
"{@	c #F2F4F3",
"]@	c #F6F6F4",
"^@	c #EDECE7",
"/@	c #EBEAE5",
"(@	c #E0E1DC",
"_@	c #D9DAD4",
":@	c #CCCDC5",
"<@	c #C7C8C0",
"[@	c #B2B7B1",
"}@	c #B4B9B3",
"|@	c #B4BBB4",
"1@	c #C3C8C2",
"2@	c #C9CEC8",
"3@	c #CFD2CB",
"4@	c #D6D7D1",
"5@	c #E8EAE7",
"6@	c #E9EEEA",
"7@	c #D3D4D6",
"8@	c #E9EBEA",
"9@	c #DCDDD7",
"0@	c #DADBD5",
"a@	c #D0D0C6",
"b@	c #C5C8BF",
"c@	c #C6CBC4",
"d@	c #C6CBC5",
"e@	c #CED3CC",
"f@	c #C9CCC5",
"g@	c #D8D9D3",
"h@	c #E7E9E4",
"i@	c #F2F2F2",
"j@	c #F6F7F2",
"k@	c #F4F5EF",
"l@	c #ECEBE7",
"m@	c #DCDFD8",
"n@	c #D9DAD2",
"o@	c #CFCFC7",
"p@	c #CFD0CA",
"q@	c #CACFC8",
"r@	c #CED3CD",
"s@	c #D0D5CE",
"t@	c #C8CBC2",
"u@	c #E6E8E3",
"v@	c #E2E1DF",
"w@	c #F5F4F0",
"x@	c #D9DCD5",
"y@	c #D2D3CB",
"z@	c #D2D5CE",
"A@	c #D6DBD4",
"B@	c #CCCFC6",
"C@	c #E0E5DE",
"D@	c #E5EAE3",
"E@	c #ECECEC",
"F@	c #F0F0F0",
"G@	c #E8EAE5",
"H@	c #CED0C5",
"I@	c #D2D2C8",
"J@	c #DBDBD1",
"K@	c #EBEDEA",
"L@	c #E1E2DD",
"M@	c #DADDD6",
"N@	c #D7D7CF",
"O@	c #DFDFD5",
"P@	c #E3E4DC",
"Q@	c #E4E6E1",
"R@	c #EAECE9",
"S@	c #E4E9E3",
"T@	c #E8EDE9",
"U@	c #EBF0EC",
"V@	c #ECF1ED",
"W@	c #EAEFEB",
"X@	c #F5F6F1",
"  . + @ # $ % & * * * %   = =   - ; - > - , , ' ) ! ' ~ { { ] # ",
"  . + # ^ + $ / % % % $ ( . > - ; ; ; ; ' ; _ : _ - < [ # } | | ",
"= $ # @ ^ ^ % $ # 1 2 ^ 3 3 4 5 - > < ' ' 6 6 7 _ 6 < > ( $   = ",
"= % @ @ ^ ^ # + ^ 2 8 9 9 0 a [ 4 3 - - - 6 6 6 b c c - % $ $ $ ",
"  $ % # 1 1 1 d e e f g h i j k l m + $   n o p q 7 7 ; = = =   ",
"# $ % % 1 1 r s t u v w x i y z u f A # ^ % B C 6 6 - <   = D = ",
"# ^ % % + E f F G H I J K L M N O P Q R 1 } = ( : - ; 3 # @ = = ",
"+ 1 ( $ 1 S T U V W W J X Y I I Z `  .t s 8 + % ..+.; ~ } } } ] ",
"@.#.$.. . 2 %.&.*.=.O -.;.>.,.'.).!.!.~.{.].[ ^./.(.= % = D   $ ",
"' < ( . $._.:.<.[.O ;.}.|.1.2.3.4.5.6.-.7.8.9.0 D = % = | $ ( n ",
"$ . 0.$.(.a.b.!.c.,.d.e.f.g.h.i.j.k.l.l.m.n.o.p...: : q._ c 6 r.",
"s.s.B B a.a.t.u.v.w.x.y.z.A.B.C.f.D.E.F.m.o.G.H.r.r.: 6 7 7 c I.",
"0.0.. 2 a.J.s u L d.x.K.L.M.N.O.P.Q.R.S.T.G.U.V.W.H.X.6 c c 6 X.",
"Y.% $ 8 Z.s Z.`. +.+++@+#+$+%+&+*+=+-+;+>+m.,+o.'+)+: X.X._ !+~+",
"{+]+$ m s s 9.^+/+6.(+_+:+<+[+}+|+1+2+K.3+4+n.G.5+6+7+.   D D $ ",
"{+8+# 2 e e 9.8.9+0+l.a+b+c+d+e+f+g+h+i+j+k+l+8.m+7+s.$.$.$   0.",
"n+o+# ( 0.9.^+y m.p+q+}.r+#+s+t+u+v+w+x+y+z+A+^+^+n.J.m _.B+C+D+",
"E+% ( ( $ m F+G+].l+0+l.e.H+I+J+K+L+M+N+O+P+A+8.7+m+_.a.a.{ Q+5.",
"X.7 Y.& 0.+ d b.^+F+R+S+;.T+U+V+W+X+Y+Z+`+ @.@m.7+5+(.+@a.@ 4 5 ",
"@@q X.#@= 2 $@$@7.~.u %@&@d.*@=@-@-@;@>@,@,@'@p+)@5+s.+@#.#.' ' ",
"!@~@{@]@+ + ^@/@(@_@_@ .H Y :@<@|.[@}@|@1@2@3@4@7+5+s.(.> 5@< 6@",
"7@8@. ^ Z.1 ^ _.a.w 9@0@P I Y a@b@*@c@d@d@e@f@g@(@l h@h@+.#.; ; ",
"i@= Z.j@k@{ 4 3 o+l@J.m@-.n@K o@X p@q@++r@s@t@v.~.8.h@u@0 9 - ! ",
"v@w@2 d 9@u@4 ; n+o+2 h@R+x@K y@&.5.z@r@A@q@B@Z C@C@D@u@0 [ 1 + ",
"1 # # . $.E@p F@3 ^.9 G@h@h@^+~._@5.g@n@J H@I@J@^+u@a 0 G@a [ 3 ",
"  % $ . $     $ #.K@@.@.9 a u@].L@v M@x@I y@N@O@8.u@a a a 9 @.@.",
"D   $ $ % =   ( 5@K@< 3 ^.@.a 0 0 9.8.~.G+m@w P@Q@h@a 9 9 @.[ @.",
"Y.i@i@= % # # @ > < - - [ [ @.[ K@R@5@S@S@u@h@h@0 0 0 0 a @.^.3 ",
"F@Y.Y.= = @ @ } ' ; - < ^.^.^.^.R@K@K@T@T@T@a a a 0 h@h@0 @.^.4 ",
"  $ ( % = =   %   % $   = } @ @ $ < < U@6@6@K@K@9 0 0 a @.[ ^.3 ",
"D % $ %   % $ $   $ $   D = @ }   % < < V@W@K@K@[ @.@.^.3 ^.^.^.",
"E+E+X@| % E@/ F@i@  %     % % = % ( +.- - +.#.#.3 [ @.[ ^.[ [ ^."};
