/* XPM */
static const char * PL_xpm[] = {
"32 32 198 2",
"  	c #010101",
". 	c #000000",
"+ 	c #020200",
"@ 	c #000201",
"# 	c #040507",
"$ 	c #000103",
"% 	c #000100",
"& 	c #020202",
"* 	c #010300",
"= 	c #030301",
"- 	c #020001",
"; 	c #010000",
"> 	c #030104",
", 	c #000002",
"' 	c #010004",
") 	c #040207",
"! 	c #010002",
"~ 	c #040203",
"{ 	c #020100",
"] 	c #010100",
"^ 	c #020204",
"/ 	c #010204",
"( 	c #010200",
"_ 	c #050503",
": 	c #000004",
"< 	c #010103",
"[ 	c #040500",
"} 	c #020300",
"| 	c #040402",
"1 	c #050505",
"2 	c #020005",
"3 	c #030303",
"4 	c #040406",
"5 	c #010302",
"6 	c #030305",
"7 	c #000302",
"8 	c #040603",
"9 	c #040205",
"0 	c #030504",
"a 	c #050400",
"b 	c #000005",
"c 	c #0C0C14",
"d 	c #1C1C26",
"e 	c #2B2B35",
"f 	c #292D38",
"g 	c #1D2029",
"h 	c #05080D",
"i 	c #030400",
"j 	c #080904",
"k 	c #060405",
"l 	c #020308",
"m 	c #020307",
"n 	c #0E0F13",
"o 	c #121318",
"p 	c #14151A",
"q 	c #4F4E54",
"r 	c #747178",
"s 	c #76737A",
"t 	c #717076",
"u 	c #5E5D62",
"v 	c #222224",
"w 	c #020305",
"x 	c #040301",
"y 	c #090C15",
"z 	c #1B1F2A",
"A 	c #444559",
"B 	c #646577",
"C 	c #70727F",
"D 	c #5E5E66",
"E 	c #605E5F",
"F 	c #807B75",
"G 	c #8C8477",
"H 	c #908776",
"I 	c #8F8979",
"J 	c #908A7C",
"K 	c #878378",
"L 	c #605D58",
"M 	c #3B3B3D",
"N 	c #474751",
"O 	c #333542",
"P 	c #121325",
"Q 	c #030710",
"R 	c #000007",
"S 	c #000105",
"T 	c #070707",
"U 	c #20232A",
"V 	c #5B5F6B",
"W 	c #8990A0",
"X 	c #A3A8BE",
"Y 	c #696E81",
"Z 	c #3D414D",
"` 	c #3B3C40",
" .	c #7A7770",
"..	c #857D6A",
"+.	c #83755A",
"@.	c #968665",
"#.	c #8F805F",
"$.	c #8F8164",
"%.	c #837862",
"&.	c #787264",
"*.	c #5B5A56",
"=.	c #75757D",
"-.	c #8A8D9E",
";.	c #8A8FA3",
">.	c #565D6D",
",.	c #2B2F3B",
"'.	c #04070E",
").	c #030200",
"!.	c #2B2F38",
"~.	c #747C89",
"{.	c #AAB3C4",
"].	c #A1A9B6",
"^.	c #2A323D",
"/.	c #000107",
"(.	c #1A1A18",
"_.	c #837D71",
":.	c #A29680",
"<.	c #B29F81",
"[.	c #B19A78",
"}.	c #AF9B78",
"|.	c #A99676",
"1.	c #A3957A",
"2.	c #938B78",
"3.	c #454239",
"4.	c #060D15",
"5.	c #828A95",
"6.	c #AEB6CB",
"7.	c #9299A9",
"8.	c #42464F",
"9.	c #010206",
"0.	c #060503",
"a.	c #242529",
"b.	c #4F5055",
"c.	c #8A8997",
"d.	c #90929E",
"e.	c #747780",
"f.	c #696C71",
"g.	c #818382",
"h.	c #8E8F87",
"i.	c #969487",
"j.	c #9C9988",
"k.	c #A99E8A",
"l.	c #9F9685",
"m.	c #948D83",
"n.	c #807C79",
"o.	c #56555A",
"p.	c #393941",
"q.	c #5A5C68",
"r.	c #9A9EA9",
"s.	c #A0A4AD",
"t.	c #73787E",
"u.	c #35393C",
"v.	c #060A0B",
"w.	c #111217",
"x.	c #2F3035",
"y.	c #4A4D52",
"z.	c #585C5F",
"A.	c #777978",
"B.	c #93948F",
"C.	c #918E87",
"D.	c #8C887D",
"E.	c #8A8879",
"F.	c #8A887C",
"G.	c #96968E",
"H.	c #8F8F8D",
"I.	c #747577",
"J.	c #717276",
"K.	c #727378",
"L.	c #5B5C61",
"M.	c #31343B",
"N.	c #15181D",
"O.	c #000102",
"P.	c #1F2022",
"Q.	c #626262",
"R.	c #8F8E8C",
"S.	c #A09F9D",
"T.	c #9CA19A",
"U.	c #9EA39D",
"V.	c #737874",
"W.	c #363A39",
"X.	c #181C1D",
"Y.	c #0D0E10",
"Z.	c #040404",
"`.	c #060604",
" +	c #020403",
".+	c #08090B",
"++	c #2E2E30",
"@+	c #3F3F3F",
"#+	c #424743",
"$+	c #323635",
"%+	c #101413",
"&+	c #060606",
"*+	c #000200",
"=+	c #040000",
"-+	c #080403",
";+	c #030000",
">+	c #050507",
",+	c #010508",
"                            . . . .         . .                 ",
"                            . . . .         . .                 ",
"                            . . . .         . .                 ",
"                            . . . .         . .                 ",
"                            . . . .         . .                 ",
"                            . . . .         . .                 ",
"                            . . . .         . .                 ",
"                            . . . .         . .                 ",
"+ . @ # $ % & + * * = . - ; > , ' ) ! ~ { . + ] , ^ / , , @ + ( ",
"_   % % . & & . : : <   ] % [ * % } | . . 1 , 2 3 . . 4 % % ] . ",
"% 5 &   & & - ; , 6 6 , @ % % % 7 % % 8 & . ; 9 ; { | ] . . 0 5 ",
", 5   . ; ; ! 6 a % . $ b c d e f g h , @ i j % = { ; ; |   % / ",
", . . ; k < : l , m n o p q r s t t u v , % , w : , & x { . , , ",
"/   . ; . : y z A B C D E F G H I J K L M N O P Q R S 3 ; . T , ",
", . { ; 6 U V W X Y Z `  ...+.@.#.$.%.&.*.=.-.;.>.,.'., { ; . , ",
", . ).. / !.~.{.].^./.(._.:.<.[.}.|.1.2.3.$ 4.5.6.7.8.9.. 0.. ^ ",
"+ . . & . , a.b.c.d.e.f.g.h.i.j.k.l.m.n.o.p.q.r.s.t.u.v.%   ~ ! ",
". . .   3 / / m w.x.y.z.A.B.C.D.E.F.G.H.I.J.K.L.M.N.O.% % . . 9 ",
", & 3 . . . , , = . , , P.Q.R.S.T.U.V.W.X.Y.. . m , % + _ 3   ^ ",
"^ , . . . . & Z.; `.T  +, .+++@+#+$+%+O.% 5 ] 0.. 3 = . . . . , ",
"6 , . & | . . . ;   .   5 % % ] ; ; & &+^ ^ 6 , { ; ; ] ] .   3 ",
", / 3 ] . . = _ , , < . 3 _ . *+=+-+;+;   < , ^ ).. . = = . . . ",
"@ 5 *+. ] = & . / 5 1 . .   . & ; ;   =   . ; - ] + & . . + + . ",
"@ % % ] ] . .   % % . =   , >+: ,+O.% * % % ).;+% @ 5     ] + ( ",
"  . . . . . .   . . . . . . . . . . . . . . . . ] ] ] ] ] ] ] ] ",
"    . . . .     . . . . . . . . . . . . . . . . ] ] ] ] ] ] ] ] ",
"    . . . .                                     ] ] ] ] ] ] ] ] ",
"                                                                ",
"                                                                ",
"                                                                ",
"                                                                ",
"                                                                "};
