/* XPM */
static const char * rH_xpm[] = {
"32 32 68 1",
" 	c #FFFFFF",
".	c #FBFBFB",
"+	c #FEFEFE",
"@	c #F8F8F8",
"#	c #FDFDFD",
"$	c #FAFAFA",
"%	c #FCFCFC",
"&	c #F7F7F7",
"*	c #F0F0F0",
"=	c #F1F1F1",
"-	c #F9F9F9",
";	c #7D7D7D",
">	c #A0A0A0",
",	c #F5F5F5",
"'	c #F4F4F4",
")	c #A2A2A2",
"!	c #7F7F7F",
"~	c #979797",
"{	c #010101",
"]	c #A6A6A6",
"^	c #040404",
"/	c #A9A9A9",
"(	c #0F0F0F",
"_	c #000000",
":	c #AAAAAA",
"<	c #ADADAD",
"[	c #0C0C0C",
"}	c #A7A7A7",
"|	c #B5B5B5",
"1	c #080808",
"2	c #A3A3A3",
"3	c #F2F2F2",
"4	c #0A0A0A",
"5	c #BFBFBF",
"6	c #101010",
"7	c #030303",
"8	c #050505",
"9	c #B2B2B2",
"0	c #B4B4B4",
"a	c #D0D0D0",
"b	c #181818",
"c	c #717171",
"d	c #B8B8B8",
"e	c #A5A5A5",
"f	c #737373",
"g	c #DCDCDC",
"h	c #202020",
"i	c #060606",
"j	c #020202",
"k	c #E4E4E4",
"l	c #2C2C2C",
"m	c #E3E3E3",
"n	c #363636",
"o	c #6F6F6F",
"p	c #A1A1A1",
"q	c #A4A4A4",
"r	c #B1B1B1",
"s	c #B3B3B3",
"t	c #090909",
"u	c #F3F3F3",
"v	c #A8A8A8",
"w	c #0E0E0E",
"x	c #F6F6F6",
"y	c #ABABAB",
"z	c #0D0D0D",
"A	c #989898",
"B	c #9F9F9F",
"C	c #EFEFEF",
"         .  +  ++  +  .         ",
"        +    +@  @+ +  +        ",
"        + .+ +    ++#$ +        ",
"        +.  # .%%% #+ .         ",
"     +++ +.+  #  +  +$  +++     ",
"    ++++$#  &. .. $&  %$++++    ",
"    ++++++@*. #++# .=-##++++    ",
"    ++++%.;> , %# ' )!..++++    ",
"#  # . @ ~{) -+  +@ ]^~ @ . #  #",
"  .$ #@ /(_:+ -  .  <_[} @# $.  ",
"++  +& |1{_2$3+-&#*$]_{4| &+  ++",
"# @##+5678^9+  %#  +087765+##@ #",
"   +#ab_{__cde}::/edf__{_ba#+   ",
" +#$gh_i_^{___j^j____j^_i_hg$#+ ",
"-  kl__{__7j{8__j_i{jj__{__lk  -",
" $mn__i____{{_7__7_{j__j_i__nm$ ",
" $mn__i_{__{{_7__7_{j__j_i__nm$ ",
"-  kl__{__7j{i_j{_i{7j__{__lk  -",
" +#$gh_i_8j___{^7j___j7_i_hg$#+ ",
"   +#ab_{__o|p)qq2>0c__j_ba#+   ",
"# @##+56j^^r#  .. +#s^jj65+##@ #",
"++  +& |tj_e%' .. u%}__t| &+  ++",
"  .$ #@ vw_v%#x++&%%y_zv @# $.  ",
"#  # . @ Aj2 -    @ ]^~ @ . #  #",
"    ++++.#;B , ## ' )!..++++    ",
"    ++++# @C% % +# .=-##++++    ",
"    ++++$+  @. %. $&  %$++++    ",
"     +++  .#  #  +  +$  +++     ",
"        +.  % .%%% #+ .         ",
"        + % +#    ++#$ +        ",
"         +   +$  @+ +  +        ",
"         -  %  #+  +  .         "};
