/* XPM */
static char * rV_xpm[] = {
"32 32 57 1",
" 	c #FFFFFF",
".	c #FDFDFD",
"+	c #FCFCFC",
"@	c #FEFEFE",
"#	c #FBFBFB",
"$	c #F8F8F8",
"%	c #E8E8E8",
"&	c #F7F7F7",
"*	c #E4E4E4",
"=	c #343434",
"-	c #DADADA",
";	c #2D2D2D",
">	c #010101",
",	c #FAFAFA",
"'	c #CFCFCF",
")	c #1F1F1F",
"!	c #030303",
"~	c #020202",
"{	c #BFBFBF",
"]	c #171717",
"^	c #000000",
"/	c #B3B3B3",
"(	c #131313",
"_	c #060606",
":	c #F9F9F9",
"<	c #A6A6A6",
"[	c #0D0D0D",
"}	c #0C0C0C",
"|	c #A8A8A8",
"1	c #9B9B9B",
"2	c #0B0B0B",
"3	c #050505",
"4	c #F4F4F4",
"5	c #7A7A7A",
"6	c #F1F1F1",
"7	c #9E9E9E",
"8	c #A4A4A4",
"9	c #B5B5B5",
"0	c #6E6E6E",
"a	c #6D6D6D",
"b	c #A3A3A3",
"c	c #A7A7A7",
"d	c #B2B2B2",
"e	c #F5F5F5",
"f	c #F6F6F6",
"g	c #040404",
"h	c #A5A5A5",
"i	c #A9A9A9",
"j	c #AAAAAA",
"k	c #B1B1B1",
"l	c #A0A0A0",
"m	c #B6B6B6",
"n	c #707070",
"o	c #7E7E7E",
"p	c #9A9A9A",
"q	c #0A0A0A",
"r	c #9C9C9C",
"         . +   ++   + .         ",
"        . @ @#@  @#@ @ .        ",
"        +  $  @%%@  $  +        ",
"       @ .#&+ *==* +&#. @       ",
"      @@.   @-;>>;-@   .@@      ",
"     @@@,.&,')!~~!)',&.,@@@     ",
"    @@@@., {]^^^^^^]{ ,.@@@@    ",
"    @@@.&@/(^_!^^!_^(/@&.@@@    ",
"@ @ .#.: <[^^^~^^^^^^}| :.#. @ @",
"@  , @. 12_!3>^^~^^_~3}1 .@ ,  @",
"  + +.45~^^^^>!^^~^^^^^~54.+ +  ",
" +  #.678<890^!^^~^a9bcb76.#  + ",
"  +  ,+ @.# /~^~~^>d #.@ +,  +  ",
"  :  . e+ f+|^!^^g^h#f .e .  :  ",
" @ #. . #$ ,i~^~>~><: &# . .# @ ",
" +   : #  , j~^^^~>< ,@ # :   + ",
" + + + #  , j~^^^!>h :@ # + + + ",
".  +@+@ :: $j!^~^>><: :@ @+@+  .",
"   @@ @&, e,|^~^>_^h,e@#&@ @@   ",
"+ +  :  @ + 9!^~^^^k +    :  + +",
" +@ .:6l<jhmn^~>^>^0m<j|l6:. @+ ",
" .  + 6o!^^^^>~^^g~^^^^>o6 +  . ",
": .: # .pqg~3^^~^^^_!_[r. # :. :",
"    @##. <}^^^^^>^^^^2< .##@    ",
"    @@@.&@/(^_!^^!_^(/@&.@@@    ",
"    @@@@., {]^^^^^^]{ ,.@@@@    ",
"     @@@,.&,')!~~!)',&.,@@@     ",
"      @@.   @-;>>;-@   .@@      ",
"       @ .#&+ *==* +&#. @       ",
"        +  $  @%%@  $  +        ",
"        . @ @#@  @#@ @ .        ",
"         . +   ++   + .         "};
