/* XPM */
static const char *solar_xpm[] = {
/* columns rows colors chars-per-pixel */
"32 32 189 2",
"   c #040001",
".  c #0A0201",
"X  c #0E0901",
"o  c #020009",
"O  c #090008",
"+  c #120401",
"@  c #1B0402",
"#  c #130900",
"$  c #1C0C01",
"%  c #100B09",
"&  c #171000",
"*  c #1B1102",
"=  c #1C1806",
"-  c #17140E",
";  c #1C1209",
":  c #0A0211",
">  c #200700",
",  c #210C03",
"<  c #310D00",
"1  c #261401",
"2  c #2A1302",
"3  c #241900",
"4  c #2C1B02",
"5  c #2A1D09",
"6  c #311300",
"7  c #361C04",
"8  c #3B1800",
"9  c #38190F",
"0  c #2B200A",
"q  c #332203",
"w  c #3A2203",
"e  c #332108",
"r  c #3C240A",
"t  c #3D2D08",
"y  c #432402",
"u  c #452B05",
"i  c #4F2D00",
"p  c #4B2508",
"a  c #562E03",
"s  c #5C2B00",
"d  c #4F3000",
"f  c #4A330D",
"g  c #5F3D06",
"h  c #533109",
"j  c #593809",
"k  c #492D1E",
"l  c #5A3514",
"z  c #583D11",
"x  c #523718",
"c  c #653A00",
"v  c #693F05",
"b  c #5A450F",
"n  c #5F4712",
"m  c #654100",
"M  c #6D4606",
"N  c #654508",
"B  c #6E4608",
"V  c #6C4B0C",
"C  c #724A06",
"Z  c #7B4D05",
"A  c #705303",
"S  c #7C5905",
"D  c #71520E",
"F  c #674311",
"G  c #6A4613",
"H  c #674814",
"J  c #6B4916",
"K  c #714613",
"L  c #754E11",
"P  c #675010",
"I  c #745613",
"U  c #785312",
"Y  c #7C5C12",
"T  c #74521A",
"R  c #824F03",
"E  c #8A5200",
"W  c #865A02",
"Q  c #8F5900",
"!  c #935F07",
"~  c #825417",
"^  c #845F13",
"/  c #86630B",
"(  c #89600E",
")  c #82651A",
"_  c #996C12",
"`  c #9C671E",
"'  c #996E1A",
"]  c #A16E00",
"[  c #A26E08",
"{  c #A2730E",
"}  c #A5780B",
"|  c #BA790F",
" . c #A56512",
".. c #A06C13",
"X. c #A57416",
"o. c #AB7C15",
"O. c #A37419",
"+. c #A77F1F",
"@. c #B57A1C",
"#. c #BC7B1C",
"$. c #836927",
"%. c #8B6921",
"&. c #916F2A",
"*. c #8D7228",
"=. c #957321",
"-. c #9C732B",
";. c #8F6832",
":. c #977335",
">. c #A27723",
",. c #AA7721",
"<. c #A47823",
"1. c #A97F27",
"2. c #A77E2E",
"3. c #AC7E3F",
"4. c #B1830E",
"5. c #AF821E",
"6. c #B68414",
"7. c #BD8621",
"8. c #B8822A",
"9. c #B38B2A",
"0. c #B98C2C",
"q. c #B5902C",
"w. c #BA922D",
"e. c #AB8531",
"r. c #B58832",
"t. c #BB8C36",
"y. c #B28F3E",
"u. c #B59433",
"i. c #BC9432",
"p. c #BE9833",
"a. c #BB963B",
"s. c #C18625",
"d. c #C69620",
"f. c #C89124",
"g. c #C1972E",
"h. c #D09E26",
"j. c #D2932D",
"k. c #D09A2E",
"l. c #C29532",
"z. c #CC9535",
"x. c #C39A35",
"c. c #C49C39",
"v. c #C99D3A",
"b. c #D29B34",
"n. c #C2A029",
"m. c #C6A036",
"M. c #CAA235",
"N. c #C6A03B",
"B. c #CAA13D",
"V. c #D6A333",
"C. c #D0A63A",
"Z. c #DCA13E",
"A. c #D4AC3D",
"S. c #E5AB3D",
"D. c #BD9541",
"F. c #C29643",
"G. c #C19943",
"H. c #C99C43",
"J. c #C1A045",
"K. c #CCA441",
"L. c #CEA842",
"P. c #D1A542",
"I. c #D3A945",
"U. c #D2A449",
"Y. c #D4AA49",
"T. c #D9AD4A",
"R. c #DCB244",
"E. c #DDB24D",
"W. c #D4A652",
"Q. c #D8AE5E",
"!. c #DCB453",
"~. c #DFB853",
"^. c #ECAC4A",
"/. c #E3B445",
"(. c #E1B44D",
"). c #DCB86D",
"_. c #E1B860",
"`. c #E1BF6F",
"'. c #F7C354",
"]. c #F8C450",
"[. c #F8C359",
"{. c #FCC95F",
"}. c #ECC463",
"|. c #F5C766",
" X c #F9C56E",
".X c #F2CB69",
"XX c #FFC86A",
"oX c #FDD069",
"OX c #FFD779",
/* pixels */
"                              o         O               o       ",
"                + O O   o o                   .   O     o       ",
"            & $ = #   .                 .                       ",
"          + f H Y H 7 w 4 3 $ +                   .       o     ",
"  + # ; q Y e.{ W Z c U A ) T h - .                             ",
". + + q H O.E =.!  .@.C C S ^ a 3 k r X   .               o     ",
"  . + 5 h _ Q f.6.X.^ a y D I j 2 @ 0 = %       O     o         ",
"+ . . $ f Y ' g.L 8 V ~ B / m v l +   .   .         . . o   .   ",
"1 $ + + # @ < j w 2 N @.o.4.{ R B $ . o   . .     .     .   .   ",
"3.;.z 7 $ * $ @ $ 2 2 i K.] 7.} O.%.1 O                         ",
"H.U.a.y.:.H f 4 > @ > w e.V.s.k.j.0.M y X .   o       . .       ",
"r.t.r.t.z.v.H.<.J y 6 2 *.oX#.| ^.f.z.e.x $ X .                 ",
"u.c.w.0.u.q.c.l.x.H.:.c *.OXZ.S./.].{.0.C =.V t $ .       .     ",
"a.c.a.i.9.a.t.u.c.a.i.v.W._..XA.^.{.XX8.{ h.g.Y y @ O   .   . . ",
"8.1.0.9.0.x.i.i.v.u.t.K.a.J.`.). Xl.b./.V.b._ C b 5 X   .   . . ",
"i.c.a.i.p.a.c.a.c.H.x.K.a.K.D.).W.U.5.B.|.z.s p w 1 & X .   .   ",
"L.Y.L.B.t.c.K.l.i.i.i.q.z.l.l.l.U.Y.U.!.}.L.e.l $ e 5 # . .   . ",
"p.q.p.p.v.i.c.l.c.L.w.x.v.l.B.x.c.v.N.W.L.!.=.L 7 1 = & # X + . ",
"p.p.w.B.0.w.B.v.c.I.x.x.x.B.N.I.p.c.a.m.c.m.Y.D.U w ; % # # + + ",
"p.i.p.x.z.v.v.x.c.N.v.i.v.x.N.B.m.m.m.C.R.N.M.A.E.a.G 7 1 $ @ # ",
"a.p.p.p.p.p.p.i.x.N.N.x.p.K.q.B.m.m.I.C.p.B.m.B.P.V.T.-.h 9 , $ ",
"p.p.m.N.N.p.B.m.N.N.L.w.c.L.p.B.c.B.N.N.p.B.L.L.v.P.l.(.F.F r 3 ",
"L.N.x.L.m.N.K.m.x.L.N.m.C.L.L.L.N.N.N.B.m.L.N.L.P.C.Y.v.T.A.) u ",
"w.N.N.i.L.B.i.N.x.x.L.a.N.B.p.q.m.K.q.B.L.N.c.L.U.Y.T.Y.A.M.R.i.",
"N.m.u.N.N.m.w.N.m.p.N.!.u.B.c.p.I.v.v.K.U.B.U.T.v.T.v.Y.P.T.A.I.",
"N.B.I.m.x.p.L.L.L.N.c.K.B.N.B.L.x.l.l.I.B.B.v.v.v.(.P.P.P.v.v.P.",
"m.B.N.N.K.m.m.K.L.N.p.K.N.C.c.B.v.U.x.I.(.g.x.v.v.U.T.C.I.T.T.Y.",
"K.c.a.N.N.K.m.K.c.B.K.L.N.c.u.p.z.I.z.v.v.v.z.v.U.C.Y.v.T.P.v.C.",
"L.c.m.m.L.c.K.N.B.Y.p.m.B.v.l.v.T.T.P.T.U.0.C.v.I.T.P.I.P.v.I.T.",
"B.K.K.~.K.Y.q.L.x.K.p.B.P.l.P.v.B.B.v.I.x.v.P.I.C.Y.P.z.v.P.Y.b.",
"L.p.a.B.p.m.B.L.c.K.B.I.l.v.P.v.U.v.v.P.P.v.C.v.v.l.C.U.C.w.Y.U.",
"c.K.N.L.L.N.K.K.K.B.K.B.v.l.v.x.C.l.l.B.v.P.v.U.v.B.Y.T.U.c.z.P."
};
