/* XPM */
static const char * Sv_xpm[] = {
"32 32 518 2",
"  	c #FEFFFF",
". 	c #D4D5D9",
"+ 	c #404145",
"@ 	c #515256",
"# 	c #4B4C50",
"$ 	c #8C8D91",
"% 	c #9D9EA2",
"& 	c #919296",
"* 	c #96979B",
"= 	c #969799",
"- 	c #969897",
"; 	c #969895",
"> 	c #98999D",
", 	c #95969A",
"' 	c #424348",
") 	c #3E3F44",
"! 	c #515159",
"~ 	c #ACACB4",
"{ 	c #FEFEFF",
"] 	c #F7F8FC",
"^ 	c #36373B",
"/ 	c #55565A",
"( 	c #4F5054",
"_ 	c #2E2F33",
": 	c #F8F9FD",
"< 	c #FEFFFD",
"[ 	c #F4F5F9",
"} 	c #37383D",
"| 	c #58595E",
"1 	c #4C4C54",
"2 	c #F7F7FF",
"3 	c #F2F2FA",
"4 	c #1D1E22",
"5 	c #5C5D61",
"6 	c #68696D",
"7 	c #27282C",
"8 	c #F2F3F7",
"9 	c #24252A",
"0 	c #636469",
"a 	c #55555D",
"b 	c #2D2D35",
"c 	c #FAFBFF",
"d 	c #444549",
"e 	c #414246",
"f 	c #606165",
"g 	c #3B3C40",
"h 	c #DADBDF",
"i 	c #D1D2D6",
"j 	c #D6D7DB",
"k 	c #D6D7D9",
"l 	c #D6D8D7",
"m 	c #EEEFF3",
"n 	c #EAEBEF",
"o 	c #3B3C41",
"p 	c #56575C",
"q 	c #4D4D55",
"r 	c #414149",
"s 	c #343539",
"t 	c #3A3B3F",
"u 	c #F0F1F5",
"v 	c #FBFCFF",
"w 	c #F7F8FA",
"x 	c #FDFEFF",
"y 	c #ECEDF2",
"z 	c #48494E",
"A 	c #46474C",
"B 	c #43434B",
"C 	c #46464E",
"D 	c #F9F9FF",
"E 	c #FDFDFF",
"F 	c #28292D",
"G 	c #4C4D51",
"H 	c #494A4E",
"I 	c #333438",
"J 	c #E6E7EB",
"K 	c #F5F6FA",
"L 	c #E5E6EA",
"M 	c #F0F1F3",
"N 	c #F3F4F9",
"O 	c #E4E5EA",
"P 	c #2E2F34",
"Q 	c #4C4D52",
"R 	c #53535B",
"S 	c #36363E",
"T 	c #F5F8FD",
"U 	c #2C2F34",
"V 	c #3E4146",
"W 	c #4D5055",
"X 	c #393C41",
"Y 	c #CFD2D7",
"Z 	c #F4F7FC",
"` 	c #CED1D6",
" .	c #CCCFD4",
"..	c #CCD0D3",
"+.	c #ECEFF4",
"@.	c #E0E3E8",
"#.	c #4F5257",
"$.	c #56595E",
"%.	c #25282D",
"&.	c #F8FBFF",
"*.	c #F1F4FB",
"=.	c #FCFFFF",
"-.	c #383B40",
";.	c #44474C",
">.	c #34373C",
",.	c #3C3F44",
"'.	c #DADDE2",
").	c #E4E7EC",
"!.	c #E7EAEF",
"~.	c #D9DCE1",
"{.	c #3A3D42",
"].	c #3B3E43",
"^.	c #FBFFFF",
"/.	c #292E34",
"(.	c #454A50",
"_.	c #393E44",
":.	c #DDE2E8",
"<.	c #EDF2F8",
"[.	c #CFD4DA",
"}.	c #E3E8EE",
"|.	c #E2E7ED",
"1.	c #EAEFF5",
"2.	c #D2D7DD",
"3.	c #303539",
"4.	c #3A3F43",
"5.	c #404549",
"6.	c #373C40",
"7.	c #F8FDFF",
"8.	c #262B31",
"9.	c #3F444A",
"0.	c #41464C",
"a.	c #D5DAE0",
"b.	c #E0E5EB",
"c.	c #CED3D9",
"d.	c #BFC4CA",
"e.	c #BEC3C9",
"f.	c #BEC2CB",
"g.	c #DFE4EA",
"h.	c #DEE3E9",
"i.	c #474C50",
"j.	c #2E3337",
"k.	c #F7FCFF",
"l.	c #FAFFFF",
"m.	c #2E3339",
"n.	c #373C42",
"o.	c #42474D",
"p.	c #22272D",
"q.	c #CACFD5",
"r.	c #D0D5DB",
"s.	c #DFE3EC",
"t.	c #DFE3EE",
"u.	c #D3D8DE",
"v.	c #D8DDE3",
"w.	c #191E22",
"x.	c #3B4044",
"y.	c #F9FEFF",
"z.	c #F5FAFF",
"A.	c #32373D",
"B.	c #34393F",
"C.	c #464B51",
"D.	c #2C3137",
"E.	c #D6DBE1",
"F.	c #D5D9E2",
"G.	c #D6DAE5",
"H.	c #D6DAE3",
"I.	c #E5EAF0",
"J.	c #1E2327",
"K.	c #EFF6FE",
"L.	c #353C44",
"M.	c #30373F",
"N.	c #383F47",
"O.	c #272E36",
"P.	c #C3CAD2",
"Q.	c #C9D0D8",
"R.	c #B1B8C0",
"S.	c #B4BBC3",
"T.	c #B5BCC6",
"U.	c #B5BBC7",
"V.	c #B5BCC4",
"W.	c #C0C7CD",
"X.	c #CED5DB",
"Y.	c #22292F",
"Z.	c #3E454B",
"`.	c #3A4245",
" +	c #283033",
".+	c #F7FFFF",
"++	c #F9FFFF",
"@+	c #394048",
"#+	c #2B323A",
"$+	c #262D35",
"%+	c #B7BEC6",
"&+	c #D9E0E8",
"*+	c #CED5DD",
"=+	c #CED5DF",
"-+	c #CED4E0",
";+	c #DEE5ED",
">+	c #BDC4CA",
",+	c #1C2329",
"'+	c #242B31",
")+	c #30383B",
"!+	c #2E3639",
"~+	c #F7FEFF",
"{+	c #2D343C",
"]+	c #2C333B",
"^+	c #363D45",
"/+	c #9AA1A9",
"(+	c #D1D8E0",
"_+	c #D1D8E2",
":+	c #D1D7E3",
"<+	c #D1D7E5",
"[+	c #D4DBE3",
"}+	c #9FA6AE",
"|+	c #30373D",
"1+	c #293036",
"2+	c #343C3F",
"3+	c #EEF6F8",
"4+	c #F7FBFF",
"5+	c #2B2F38",
"6+	c #393D46",
"7+	c #333740",
"8+	c #20242D",
"9+	c #31353E",
"0+	c #363A43",
"a+	c #2D313A",
"b+	c #323641",
"c+	c #2C3039",
"d+	c #282C35",
"e+	c #353A40",
"f+	c #34393D",
"g+	c #1F2428",
"h+	c #2F3239",
"i+	c #2E3138",
"j+	c #292C33",
"k+	c #2A2D34",
"l+	c #2B2E35",
"m+	c #2D3037",
"n+	c #272A31",
"o+	c #35383F",
"p+	c #3B3E45",
"q+	c #3C3F46",
"r+	c #393C43",
"s+	c #373A41",
"t+	c #3A3D44",
"u+	c #393C45",
"v+	c #2C2E3A",
"w+	c #272935",
"x+	c #343642",
"y+	c #30323E",
"z+	c #33363F",
"A+	c #31343D",
"B+	c #363940",
"C+	c #2F3237",
"D+	c #2D3035",
"E+	c #303038",
"F+	c #2F2F37",
"G+	c #2A2A32",
"H+	c #2C2C34",
"I+	c #2E2E36",
"J+	c #212129",
"K+	c #3E3E46",
"L+	c #37373F",
"M+	c #33333B",
"N+	c #27272F",
"O+	c #35353D",
"P+	c #2B2C31",
"Q+	c #333439",
"R+	c #2F3034",
"S+	c #232429",
"T+	c #31313B",
"U+	c #363640",
"V+	c #30303C",
"W+	c #2E2E3A",
"X+	c #2E2E38",
"Y+	c #292931",
"Z+	c #32323A",
"`+	c #77777F",
" @	c #C0C0C8",
".@	c #CDCDD5",
"+@	c #D4D4DC",
"@@	c #D5D5DD",
"#@	c #E8E8F0",
"$@	c #D2D3D8",
"%@	c #D8D9DD",
"&@	c #D9DADF",
"*@	c #D8D9DE",
"=@	c #D7D7E1",
"-@	c #B8B8C2",
";@	c #70707C",
">@	c #2C2C38",
",@	c #2A2A36",
"'@	c #2B2B37",
")@	c #272731",
"!@	c #2C2D32",
"~@	c #26262E",
"{@	c #B9B9C1",
"]@	c #CCCCD4",
"^@	c #6E6E76",
"/@	c #2B2B33",
"(@	c #45454D",
"_@	c #9F9FA7",
":@	c #B4B5BA",
"<@	c #B2B3B7",
"[@	c #B8B9BD",
"}@	c #BDBEC3",
"|@	c #C2C3C8",
"1@	c #CECED6",
"2@	c #C6C6D0",
"3@	c #81818D",
"4@	c #292935",
"5@	c #282832",
"6@	c #23232D",
"7@	c #282830",
"8@	c #25262B",
"9@	c #2A2B2F",
"0@	c #2A2B30",
"a@	c #28292E",
"b@	c #27282D",
"c@	c #2D2E33",
"d@	c #313237",
"e@	c #AAABB0",
"f@	c #AFB0B5",
"g@	c #36373C",
"h@	c #14151A",
"i@	c #202126",
"j@	c #34353A",
"k@	c #9C9DA2",
"l@	c #B9BABF",
"m@	c #B9BABE",
"n@	c #B7B8BA",
"o@	c #A8A9AE",
"p@	c #AFAFB7",
"q@	c #B8B8C0",
"r@	c #83838D",
"s@	c #292933",
"t@	c #2B2B35",
"u@	c #21212B",
"v@	c #1F2025",
"w@	c #292A2F",
"x@	c #B1B2B7",
"y@	c #17181D",
"z@	c #909196",
"A@	c #ABACB0",
"B@	c #9B9C9E",
"C@	c #9FA0A2",
"D@	c #AAABAF",
"E@	c #ADAEB3",
"F@	c #B6B6BE",
"G@	c #7F7F89",
"H@	c #1E1E28",
"I@	c #2A2A34",
"J@	c #202028",
"K@	c #25262A",
"L@	c #2B2C30",
"M@	c #FCFDFF",
"N@	c #1C1D22",
"O@	c #26272C",
"P@	c #999A9F",
"Q@	c #AEAFB4",
"R@	c #8E8F94",
"S@	c #A4A5A9",
"T@	c #B2B3B5",
"U@	c #AAABAD",
"V@	c #ACADB1",
"W@	c #A3A4A8",
"X@	c #9D9EA3",
"Y@	c #A6A6AE",
"Z@	c #787882",
"`@	c #1B1B25",
" #	c #262630",
".#	c #1C1C24",
"+#	c #26272B",
"@#	c #2C2D31",
"##	c #FCFEFD",
"$#	c #1A1B20",
"%#	c #1E1F24",
"&#	c #1D1E23",
"*#	c #919297",
"=#	c #B3B4B9",
"-#	c #8C8D92",
";#	c #9D9EA0",
">#	c #959796",
",#	c #A1A2A6",
"'#	c #A7A8AD",
")#	c #7A7A82",
"!#	c #1E1E26",
"~#	c #191A1F",
"{#	c #222328",
"]#	c #2D2E30",
"^#	c #323337",
"/#	c #242529",
"(#	c #15161A",
"_#	c #18191D",
":#	c #17181C",
"<#	c #8A8B8F",
"[#	c #A8A9AD",
"}#	c #222327",
"|#	c #141519",
"1#	c #202125",
"2#	c #939498",
"3#	c #989A99",
"4#	c #A2A3A5",
"5#	c #A1A2A7",
"6#	c #75757D",
"7#	c #1A1A22",
"8#	c #17171F",
"9#	c #38393B",
"0#	c #F5F7F6",
"a#	c #303135",
"b#	c #08090D",
"c#	c #121317",
"d#	c #0C0D11",
"e#	c #929397",
"f#	c #0B0C10",
"g#	c #191A1E",
"h#	c #232428",
"i#	c #898A8E",
"j#	c #8E908F",
"k#	c #929395",
"l#	c #8F9092",
"m#	c #8F9094",
"n#	c #72727A",
"o#	c #15151D",
"p#	c #1F1F27",
"q#	c #161719",
"r#	c #202221",
"s#	c #F3F4F6",
"t#	c #3E3F41",
"u#	c #111214",
"v#	c #1C1D1F",
"w#	c #27282A",
"x#	c #090A0C",
"y#	c #7F8082",
"z#	c #47484A",
"A#	c #363739",
"B#	c #424345",
"C#	c #7E7F81",
"D#	c #8B8C8E",
"E#	c #929491",
"F#	c #929493",
"G#	c #8C8D8F",
"H#	c #909195",
"I#	c #9FA0A4",
"J#	c #707176",
"K#	c #131419",
"L#	c #0E0F14",
"M#	c #1F2024",
"N#	c #202123",
"O#	c #212322",
"P#	c #F1F3F0",
"Q#	c #EBECEE",
"R#	c #0E0F11",
"S#	c #0F1012",
"T#	c #08090B",
"U#	c #141517",
"V#	c #292A2C",
"W#	c #838486",
"X#	c #97989A",
"Y#	c #898A8C",
"Z#	c #919294",
"`#	c #8E8F91",
" $	c #868887",
".$	c #8B8D8A",
"+$	c #8D8F8E",
"@$	c #848685",
"#$	c #87888C",
"$$	c #606166",
"%$	c #0D0E13",
"&$	c #16171C",
"*$	c #060709",
"=$	c #373938",
"-$	c #FDFFFC",
";$	c #37383A",
">$	c #252628",
",$	c #404143",
"'$	c #2A2B2D",
")$	c #6A6B6D",
"!$	c #717274",
"~$	c #797A7C",
"{$	c #7B7C7E",
"]$	c #77787A",
"^$	c #7A7C7B",
"/$	c #787A79",
"($	c #838582",
"_$	c #858786",
":$	c #7C7D81",
"<$	c #838488",
"[$	c #64656A",
"}$	c #2F3035",
"|$	c #121318",
"1$	c #2C2D2F",
"2$	c #888A89",
"3$	c #FAFCF9",
"4$	c #F4F5F7",
"5$	c #F1F2F4",
"6$	c #E9EAEC",
"7$	c #F5F6F8",
"8$	c #FAFBFD",
"9$	c #F8F9FB",
"0$	c #F4F6F3",
"a$	c #FCFEFB",
"b$	c #F9FBFA",
"c$	c #F1F3F2",
"d$	c #F6F7F9",
"e$	c #F8F9FE",
"f$	c #E6E7EC",
"g$	c #F4F5FA",
"h$	c #EEEFF4",
"i$	c #E1E3E2",
"j$	c #E7E8EA",
"k$	c #FBFCFE",
"l$	c #F9FAFC",
"m$	c #F6F8F7",
"n$	c #F2F4F3",
"o$	c #FEFFFB",
"p$	c #F2F3F5",
"q$	c #F7F8FD",
"r$	c #F1F2F7",
"s$	c #F8FAF7",
"  . + @ # $ % & * * * * * * * = - ; ; ; - - = = > , ' ) ! ~ { { ",
"] ^ / ( _   :                     < < <           [ } | 1 1 2 3 ",
"  4 5 6 7     8                                     9 0 a b { { ",
"c d e f g h   i j j j j j j j j k l l l k k k k m n o p q r { { ",
"c s e e t u v v ] ] ] ] ] ] ] ] w w w w ] ] ] ] x y z A B C D E ",
"  F G H I J K L u u u u u u u u u M u u u u u u N O P Q R S { { ",
"T U V W X Y Z `  . . . . . . . . ... . . . . . .+.@.U #.$.%.&.*.",
"=.-.;.>.,.'.).+.!.!.!.!.!.!.!.!.!.!.!.!.!.!.!.!.+.~.{.].;.>.=.=.",
"^./.(._./.:.<.[.}.}.}.}.}.}.}.}.|.|.|.|.|.|.|.|.1.2.3.4.5.6.^.^.",
"7.8.9.0./.a.b.c.d.d.d.d.d.d.d.d.e.e.f.e.e.e.e.e.g.h.6.i.5.j.k.l.",
"^.m.n.o.p.q.a.r.g.g.g.g.g.g.g.g.s.s.t.s.s.s.s.s.u.v.w.6.x.3.y.^.",
"z.A.B.C.D.E.g.a.a.a.a.a.a.a.a.F.G.G.G.G.G.H.H.H.v.I.J.5.5.3.k.7.",
"K.L.M.N.O.P.Q.R.S.S.S.S.S.S.S.S.T.U.U.T.T.T.V.V.W.X.Y.Z.`. +.+++",
"++@+#+$+O.%+&+*+*+*+*+*+*+*+*+=+-+-+-+-+=+=+=+*+;+>+,+'+)+!+++++",
"~+{+]+#+^+/+Q.*+(+(+(+(+(+(+(+_+:+<+:+:+:+_+_+(+[+}+|+1+2+!+++3+",
"4+5+6+7+8+9+0+a+7+7+7+7+7+7+7+7+b+b+b+b+b+b+b+b+c+5+d+e+f+g+^.^.",
"=.h+i+j+i+k+l+m+m+i+n+o+p+o+q+r+s+p+t+t+u+v+w+x+y+z+A+B+C+D+=.^.",
"{ E+F+G+E+H+I+E+J+K+L+M+H+N+O+P+Q+R+9 S+T+U+V+W+W+V+X+M+b P     ",
"{ E+I+Y+I+H+F+Z+`+ @.@+@@@+@#@$@$@%@&@*@=@-@;@>@,@'@)@H+Y+!@    ",
"{ F+H+~@H+G+I+Z+{@]@^@O+/@(@_@:@<@[@}@|@1@2@3@4@,@5@6@7@8@9@    ",
"  P 0@S+a@b@c@d@e@f@g@h@i@j@k@l@m@n@<@o@p@q@r@s@t@s@u@~@8@9@  x ",
"  c@b@v@9 S+w@P f@x@b@y@c@P+z@A@B@C@A@D@E@F@G@H@I@)@J@8@K@L@  M@",
"  !@8@N@i@v@O@P+P@Q@O@i@} w@R@S@T@U@V@W@X@Y@Z@`@ #6@.#9 +#@#  ##",
"  !@9 $#%#&#S+w@*#=#8@y@a@$#-#S@;#>#C@,#X@'#)#`@u@!#~#{#+#]#  ##",
"  ^#/#(#_#7 :#/#<#[#}#|#/#1#$ 2#;#3#4#,#P@5#6#7#J+8#%#O@}#9#0###",
"  a#b#9@c#d#7 7 e#,#/#f#g#h#i#;#>#j#k#l#m#X@n#o#p#N@$#:#q#r#    ",
"s#t#u#v#q#w#x#v#y#l#z#A#B#z#C#D#>#E#F#G#H#I#J#K#L#$#v@M#N#O#  P#",
"  Q#t#R#S#T#U#V#W#X#D#Y#Z#D#`#j# $.$+$@$#$H#$$%$v@&$d#*$*$=$< -$",
"Q#w C@;$>$,$'$)$!$~$C#{$C#C#]$^$/$($_$^$:$<$[$}$v@|$:#V#1$2$3$< ",
"w   4$x 5$6$  Q#w 7$8$7$s#9$w ##0$a$b$c$d$  e$f$g$h$8   i$  < 3$",
"  j$M@7$M@    8$k$l$    k$8$  ##a$< b$m$x           :   n$  a$o$",
"9$    p$  9$w           k$l$    < o$        q$  r$  K     s$< o$"};
