/* XPM */
static const char *write_xpm[] = {
/* columns rows colors chars-per-pixel */
"32 32 191 2",
"   c #232323",
".  c gray14",
"X  c #252525",
"o  c #272727",
"O  c #2F2523",
"+  c #2F2623",
"@  c #2A2A2A",
"#  c gray17",
"$  c #2D2D2D",
"%  c gray18",
"&  c #302624",
"*  c #382A27",
"=  c #312B2B",
"-  c #342A28",
";  c #352A28",
":  c #372F2D",
">  c #392B28",
",  c #392C28",
"<  c #3B2E2B",
"1  c #3C2E2B",
"2  c #382E2C",
"3  c #3E302D",
"4  c #2E2D3D",
"5  c #313131",
"6  c gray20",
"7  c #303037",
"8  c gray21",
"9  c #383231",
"0  c #3A3332",
"q  c #3A3736",
"w  c #313138",
"e  c #3C3A39",
"r  c #3D3A39",
"t  c #3E3A39",
"y  c #3C3C3C",
"u  c #40322F",
"i  c #40332F",
"p  c #413330",
"a  c #433937",
"s  c #403D3D",
"d  c #493B38",
"f  c #4A3C39",
"g  c #5A5B3F",
"h  c #70723F",
"j  c #787A3E",
"k  c #2B2A41",
"l  c #323043",
"z  c #343440",
"x  c #3F4648",
"c  c #3C4F53",
"v  c #245474",
"b  c #37616C",
"n  c #37626C",
"m  c gray26",
"M  c #434343",
"N  c #434344",
"B  c #464545",
"V  c #4F4846",
"C  c #484848",
"Z  c #4B4B4B",
"A  c #4A4954",
"S  c #53525A",
"D  c #656565",
"F  c gray40",
"G  c #696666",
"H  c #6A6766",
"J  c #6D6D6D",
"K  c gray44",
"L  c gray47",
"P  c #7F7F7F",
"I  c #868939",
"U  c #B7BD2F",
"Y  c #A0A535",
"T  c #FBF808",
"R  c #FFFA09",
"E  c #FFFF0F",
"W  c #F2F617",
"Q  c #F6FE1E",
"!  c #FFFF1A",
"~  c #F8FF1E",
"^  c #FCFF1C",
"/  c #FCFF1D",
"(  c #EBF220",
")  c #466583",
"_  c #597B84",
"`  c #597C84",
"'  c #597C85",
"]  c #5A7C85",
"[  c #7A7A80",
"{  c #7E7E81",
"}  c #28ADA5",
"|  c #009CC3",
" . c #00A2CA",
".. c #18A8CA",
"X. c #19A8CA",
"o. c #1EADCF",
"O. c #0BA4D6",
"+. c #00ABD6",
"@. c #00ADDA",
"#. c #00A9DD",
"$. c #6EC8DE",
"%. c #6FC8DE",
"&. c #6FCBE2",
"*. c #66C5EB",
"=. c #71CEE5",
"-. c #7DCDE1",
";. c #7ECDE1",
":. c #7AD2E8",
">. c #6FD9FB",
",. c #73D9F2",
"<. c #75E0FA",
"1. c #818181",
"2. c #8E8E8E",
"3. c gray56",
"4. c #909090",
"5. c #939393",
"6. c gray58",
"7. c #959494",
"8. c gray59",
"9. c #979797",
"0. c #9A9A9A",
"q. c gray61",
"w. c gray63",
"e. c #A4A4A4",
"r. c gray65",
"t. c #A7A7A7",
"y. c #A7A7A8",
"u. c gray66",
"i. c #A8A9A9",
"p. c #A9A9A9",
"a. c gray69",
"s. c #B1B1B1",
"d. c #B2B2B2",
"f. c #B4B4B4",
"g. c gray71",
"h. c #B6B6B6",
"j. c #B7B7B7",
"k. c gray72",
"l. c #B9B9B9",
"z. c gray73",
"x. c #BBBBBB",
"c. c #BCBCBC",
"v. c gray74",
"b. c gray",
"n. c gray75",
"m. c #87D2B9",
"M. c #8BD1BD",
"N. c #C1C1C1",
"B. c gray76",
"V. c #C3C3C3",
"C. c gray77",
"Z. c #C5C5C5",
"A. c #C6C6C6",
"S. c gray78",
"D. c gray79",
"F. c #CACACA",
"G. c #CBCBCB",
"H. c gray80",
"J. c gray81",
"K. c #D0D0D0",
"L. c #D5D5D5",
"P. c gray84",
"I. c #D7D7D7",
"U. c gray85",
"Y. c #DADADA",
"T. c gray86",
"R. c #DDDDDD",
"E. c gray87",
"W. c #DFDFDF",
"Q. c gray88",
"!. c #E2E2E2",
"~. c gray89",
"^. c #E6E6E6",
"/. c gray92",
"(. c #ECECEC",
"). c gray93",
"_. c #F1F1F1",
"`. c gray95",
"'. c #F3F3F3",
"]. c #F4F4F4",
"[. c gray96",
"{. c #F6F6F6",
"}. c gray97",
"|. c #F8F8F8",
" X c #F9F9F9",
".X c gray98",
"XX c #FBFBFB",
"oX c gray99",
"OX c #FDFDFD",
"+X c #FEFEFE",
"@X c gray100",
/* pixels */
"@X@X@X@X@X@X@X@X@X@X@X@X@X@X@X@X@X@X@X@X@X@X@X@X@X@X@X@X@X@X@X@X",
"@X@X@X@X@X@X@XOX].[.[.[.[.[.[.[.[.[.[.[.[.[.}.@XT.7.w.@X@X@X@X@X",
"@X@X@X@X@XN.m o @ @ @ @ @ @ @ @ @ @ @ @ @ $ 6 m 9 s 0 e |.@X@X@X",
"@X@X@X@Xf.  J C.Z.Z.Z.Z.Z.Z.Z.Z.Z.Z.Z.Z.V.d.F a _ <.=.B r }.@X@X",
"@X@X@X@X% P @X@X@X@X@X@X@X@X@X@X@X@X@X@X@Xd.2 ' ,.$.&.:.V t [.@X",
"@X@X@XU.o ).@XU.P.I.I.I.XX@X+X+X+X+X+X@Xu.& ' ,.$.%.-.o. .x G @X",
"@X@X@XU.o XXU.h.z.z.z.k.S.@X+X+X+X+X@Xu.& ' ,.$.%.;...| @.c H @X",
"@X@X@XU.o .XP.x.b.b.b.c.Z.@X+X+X+X@Xi.+ ` ,.$.$.;.X.| +.b ; R.@X",
"@X@X@XU.o .XP.x.b.b.b.c.A.@X+X+X@Xi.+ ] ,.$.$.;.X.| +.b > b.@X@X",
"@X@X@XU.o .XP.x.b.b.b.c.A.@X+X@Xp.O ] ,.$.%.;.X.| +.b , v.@X@X@X",
"@X@X@XU.o .XL.l.v.v.v.x.V.@X@Xi.+ ] ,.$.%.-...| +.n 3 c.@X@X@X@X",
"@X@X@XU.o {. XN.N.B.N.n.).@Xu.+ ] ,.$.%.-...| +.b d 4.@X@X@X@X@X",
"@X@X@XU.o [.@X@X@X@X@X@X@Xu.& ' ,.$.%.-...| +.n f M 9.@X@X@X@X@X",
"@X@X@XU.o [.@X|._.`.`.@Xt.& ' ,.$.%.-...| +.n i e.C 6.@X@X@X@X@X",
"@X@X@XU.o }._.d.k.k.Z.1.- ' ,.$.%.;...| +.n 3 8.I.m 6.@X@X@X@X@X",
"@X@X@XU.o |.^.f.z.B.5.: ` ,.$.$.;.X.| +.n , d.S.H.m 6.@X@X@X@X@X",
"@X@X@XU.o [.@X~.W.Q.q ) >.$.$.;.X.| +.n * B.@Xk.H.m 6.@X@X@X@X@X",
"@X@X@XU.o [.@X@X@Xv.k W m.*.;.X.| +.n 1 B.@X_.k.H.m 6.@X@X@X@X@X",
"@X@X@XU.o [.@XU.W.{ N ! T M.O.| +.n u q..X@X_.k.H.m 6.@X@X@X@X@X",
"@X@X@XU.o |.!.g.S.S h ~ ( R } #.b p 8.D.s.@X`.k.H.m 6.@X@X@X@X@X",
"@X@X@XU.o }.{.d.Z.z Y / Q ^ E v < 3.B.g.b.@X`.k.H.m 6.@X@X@X@X@X",
"@X@X@XU.o [.@X@X@X7 j U I g l = S.@XXX.X@X@X_.k.H.m 6.@X@X@X@X@X",
"@X@X@XU.o [.@X@X@XD.w 4 A [ y.'.@X@X@X@X@X@X_.k.H.m 6.@X@X@X@X@X",
"@X@X@XU.o {.oXz.k.B.S.B.J.D.C.v.l.l.l.j.G.@X`.k.H.m 6.@X@X@X@X@X",
"@X@X@XU.o |.Q.h.c.c.c.v.c.c.c.c.c.c.c.c.a.+X`.k.H.m 6.@X@X@X@X@X",
"@X@X@XU.o }.@XF.A.S.S.S.S.S.S.S.S.S.S.Z.T.@X`.k.H.m 5.@X@X@X@X@X",
"@X@X@XY.o /.@X@X@X@X@X@X@X@X@X@X@X@X@X@X@X@X(.l.K.8 q.@X@X@X@X@X",
"@X@X@X@X5 L @X@X@X@X@X@X@X@X@X@X@X@X@X@X@X@XG.H.2.@ E.@X@X@X@X@X",
"@X@X@X@Xc.. D z.b.v.v.v.v.v.v.v.v.v.v.b.x.0.5.K # P @X@X@X@X@X@X",
"@X@X@X@X@XH.Z X o o o o o o o o o o o o o @ @ y r.@X@X@X@X@X@X@X",
"@X@X@X@X@X@X@X@X@X@X@X@X@X@X@X@X@X@X@X@X@X@X@X@X@X@X@X@X@X@X@X@X",
"@X@X@X@X@X@X@X@X@X@X@X@X@X@X@X@X@X@X@X@X@X@X@X@X@X@X@X@X@X@X@X@X"
};
