/* XPM */
static const char * XB_xpm[] = {
"32 32 2 1",
" 	c #000000",
".	c #C3C3C3",
"              .   .             ",
"              .   .             ",
"              .   .             ",
"              .   .             ",
"              .   .             ",
"              .   .             ",
"              .   .             ",
"              .   .             ",
"              .   .             ",
"              .   .             ",
"              .   .             ",
"              .   .             ",
"              .   .             ",
"................................",
"              .   .             ",
"              .   .             ",
"              .   .             ",
"................................",
"              .   .             ",
"              .   .             ",
"              .   .             ",
"              .   .             ",
"              .   .             ",
"              .   .             ",
"              .   .             ",
"              .   .             ",
"              .   .             ",
"              .   .             ",
"              .   .             ",
"              .   .             ",
"              .   .             ",
"              .   .             "};
