/* XPM */
static const char * XH_xpm[] = {
"32 32 2 1",
" 	c None",
".	c #000000",
"                                ",
"                                ",
"                                ",
"                                ",
"                                ",
"                                ",
"    ...    ...  ..      ..      ",
"     ..    ..   ..      ..      ",
"     ...  ..    ..      ..      ",
"      .. ...    ..      ..      ",
"       ....     ..      ..      ",
"       ...      ..........      ",
"       ...      ..........      ",
"       ....     ..      ..      ",
"      .. ..     ..      ..      ",
"     ...  ..    ..      ..      ",
"     ..   ...   ..      ..      ",
"    ..     ..   ..      ..      ",
"   ...     ...  ..      ..      ",
"                                ",
"                                ",
"                                ",
"                                ",
"                                ",
"                                ",
"                                ",
"                                ",
"                                ",
"                                ",
"                                ",
"                                ",
"                                "};
