/* XPM */
static char * zzz_xpm[] = {
"32 32 149 2",
"  	c #FFFFFF",
". 	c #FEFEFE",
"+ 	c #FDFDFD",
"@ 	c #FCFCFC",
"# 	c #FBFBFB",
"$ 	c #F9F9F9",
"% 	c #F8F8F8",
"& 	c #F5F5F5",
"* 	c #FAFAFA",
"= 	c #B9B9B9",
"- 	c #262626",
"; 	c #1F1F1F",
"> 	c #AAAAAA",
", 	c #F7F7F7",
"' 	c #8A8A8A",
") 	c #000000",
"! 	c #030303",
"~ 	c #545454",
"{ 	c #8C8C8C",
"] 	c #6B6B6B",
"^ 	c #F6F6F6",
"/ 	c #959595",
"( 	c #040404",
"_ 	c #DADADA",
": 	c #717171",
"< 	c #676767",
"[ 	c #DDDDDD",
"} 	c #8F8F8F",
"| 	c #F2F2F2",
"1 	c #6C6C6C",
"2 	c #D1D1D1",
"3 	c #F4F4F4",
"4 	c #929292",
"5 	c #1B1B1B",
"6 	c #BCBCBC",
"7 	c #949494",
"8 	c #010101",
"9 	c #707070",
"0 	c #151515",
"a 	c #868686",
"b 	c #202020",
"c 	c #9A9A9A",
"d 	c #939393",
"e 	c #6D6D6D",
"f 	c #A8A8A8",
"g 	c #282828",
"h 	c #505050",
"i 	c #E6E6E6",
"j 	c #595959",
"k 	c #050505",
"l 	c #4C4C4C",
"m 	c #909090",
"n 	c #EAEAEA",
"o 	c #646464",
"p 	c #393939",
"q 	c #ECECEC",
"r 	c #F3F3F3",
"s 	c #737373",
"t 	c #020202",
"u 	c #6F6F6F",
"v 	c #878787",
"w 	c #555555",
"x 	c #B2B2B2",
"y 	c #919191",
"z 	c #787878",
"A 	c #F1F1F1",
"B 	c #2E2E2E",
"C 	c #D8D8D8",
"D 	c #8E8E8E",
"E 	c #060606",
"F 	c #686868",
"G 	c #3C3C3C",
"H 	c #A3A3A3",
"I 	c #969696",
"J 	c #7E7E7E",
"K 	c #4A4A4A",
"L 	c #1C1C1C",
"M 	c #E4E4E4",
"N 	c #181818",
"O 	c #5F5F5F",
"P 	c #696969",
"Q 	c #818181",
"R 	c #0E0E0E",
"S 	c #D4D4D4",
"T 	c #C5C5C5",
"U 	c #B4B4B4",
"V 	c #B3B3B3",
"W 	c #CFCFCF",
"X 	c #0A0A0A",
"Y 	c #8D8D8D",
"Z 	c #BFBFBF",
"` 	c #101010",
" .	c #A2A2A2",
"..	c #ADADAD",
"+.	c #2F2F2F",
"@.	c #2A2A2A",
"#.	c #9F9F9F",
"$.	c #CCCCCC",
"%.	c #0C0C0C",
"&.	c #EFEFEF",
"*.	c #A0A0A0",
"=.	c #E9E9E9",
"-.	c #5D5D5D",
";.	c #888888",
">.	c #C8C8C8",
",.	c #4E4E4E",
"'.	c #191919",
").	c #EBEBEB",
"!.	c #3E3E3E",
"~.	c #ABABAB",
"{.	c #757575",
"].	c #363636",
"^.	c #E3E3E3",
"/.	c #EDEDED",
"(.	c #323232",
"_.	c #131313",
":.	c #D9D9D9",
"<.	c #AEAEAE",
"[.	c #474747",
"}.	c #636363",
"|.	c #838383",
"1.	c #727272",
"2.	c #5C5C5C",
"3.	c #F0F0F0",
"4.	c #7A7A7A",
"5.	c #4D4D4D",
"6.	c #404040",
"7.	c #D6D6D6",
"8.	c #535353",
"9.	c #383838",
"0.	c #848484",
"a.	c #E2E2E2",
"b.	c #989898",
"c.	c #161616",
"d.	c #9B9B9B",
"e.	c #DBDBDB",
"f.	c #A9A9A9",
"g.	c #6E6E6E",
"h.	c #242424",
"i.	c #141414",
"j.	c #E5E5E5",
"k.	c #777777",
"l.	c #252525",
"m.	c #D0D0D0",
"n.	c #E8E8E8",
"o.	c #313131",
"p.	c #1A1A1A",
"q.	c #272727",
"r.	c #9E9E9E",
"    .     + .   @   @ # . $   % & . + + # +       . @   .   @   ",
"  +   @   .   *         $ @ = - ; > . ,   $ + @ # @   . . # .   ",
"  @ +   @ . .   +   @ @ %   ' ) ! ~   % +   .       . @ @     # ",
"# .   %       . + + ,   $ # { ! ) ] + ^ + * . .   #       # .   ",
"  . @   + $ % $   +   # ^   / ) ( ]   . . . @ . , . * ,   #   + ",
"  . . $ @   #   _ : < [ +   } ) ) <   & | : 1 2   . #   $   *   ",
"# +     , 3   4 5 ) ! 6 . + 7 ) 8 9 +   2 ) ) 0 a * $ * * #   + ",
"    @   3 # ] ! ) b c 3 + . d 8 ) e   3 + f g ) ) h i + #   + . ",
"  * @ # + j k ) l _ @ @ *   m ) ) 1   , %   n o ) ) p q $   * @ ",
"% . r   s ) ) < *   %   & @ d t ) u   %   ^   . v ) ) w % * + + ",
". 3   x ) ) ~   * & *   $   y ) t e   & . # & ^ $ z ) ) /   $ # ",
". @ A B ) 5 C @ * + . , $   D E t F   @ , .   @ *   G ( 0 [ + % ",
"3   H ) ! I   ^ . $ # @ # . d ) ) e # * .   # # $ @ = 8 ) J   % ",
"* + K ) L i # + .       % @ I ) ) s   % * +       $ | p t B # @ ",
". M N 8 O + , @     $ + + + } ! 8 P +     @ . * + %   Q ) R S   ",
". T ! ) y . * . +     . ,   y ) ) e   ^ *     . + % . U t ) > # ",
"  / ) 8 V + ^ @ @   @   $   4 8 t ]   ^ ,     . + , + W X ) d . ",
"  Y ) ) Z   % *   $ #   # * 4 ) ) 1 ^ @   + #   . .   C ` 8 {   ",
"%  .) ! ..  %   +     % ,   x +.@.#.  % @ +   + # +   $.%.) m   ",
"  T ! ) 7 + @ $ + # .     @ % & &.#   #   @ $     $ @ U t ) *.. ",
"  =.5 t -.  * * .     @ + $ *   # @ @ % @ .       ^   ;.) %.>.  ",
", . ,.) '.).+ @   # .   .     +   +     .   . # * @ # !.) g & . ",
"@ + H E t Y @ 3   + .   $ .   % + # @ . . +   @ @   ~.E ! {.  & ",
"#   | ].) L ^.# %   +       #   +   +     #   @ * /.(.) _.:.@ * ",
". %   <.k ) [.# . *   . #     @ + .   . # + . #   }.) E |.  @ + ",
"*   % @ 1.t ) 2.* + 3.  , $ *   + * + % . , %   4.) 8 5.r   *   ",
"  # . @ . j k ) 6.7.    * , % # % @ r $ @   ).8.) ( 9./.  , + + ",
"* @   % $ @ e ) ! _.0.a.+     *   %     | b.- 8 ) h i   ,       ",
"+ @     * # . f L k 8 c.< d.T :.e.>.f.g.h.8 ) i.|.#   $ . + $ # ",
".   *   .   @ . j.k.l.) 8 t ) 8 t ) ) E ) L ] m.    #   @ .     ",
"+ #   @   . % .     n.U 9 [.o.0 p.q.6.P r.a.@   @ % @   +   # + ",
"    #   . @   $ $ ,   .     , ^ 3.^ .       $ $ %     @ .     . "};
